<?xml version="1.0" encoding="UTF-8" standalone="no"?>
<svg id="svg3029" xmlns:rdf="http://www.w3.org/1999/02/22-rdf-syntax-ns#" xmlns="http://www.w3.org/2000/svg" height="16" width="16" version="1.1" xmlns:cc="http://creativecommons.org/ns#" xmlns:dc="http://purl.org/dc/elements/1.1/">
 <metadata id="metadata3037">
  <rdf:RDF>
   <cc:Work rdf:about="">
    <dc:format>image/svg+xml</dc:format>
    <dc:type rdf:resource="http://purl.org/dc/dcmitype/StillImage"/>
   </cc:Work>
  </rdf:RDF>
 </metadata>
 <path id="path3031" style="fill:#666" d="m13.375 0-7.375 1.9062c-0.554 0.1485-1 0.739-1 1.3126v9.0932c-0.5618-0.294-1.2833-0.413-2.0312-0.218-1.3498 0.35-2.1956 1.484-1.9063 2.531s1.619 1.632 2.9687 1.281c1.0769-0.28 1.8192-1.071 1.9376-1.906l0.0312-8.5938 7-1.875v6.7812c-0.562-0.294-1.283-0.4126-2.031-0.218-1.35 0.35-2.1958 1.484-1.9065 2.531 0.28933 1.0471 1.619 1.632 2.9688 1.2812 1.077-0.28 1.819-1.071 1.938-1.906l0.031-11.188c0-0.42966-0.266-0.75149-0.625-0.812z" color="#bebebe" fill="#bebebe"/>
</svg>
