<?xml version="1.0" encoding="UTF-8" standalone="no"?>
<svg id="svg2997" xmlns:rdf="http://www.w3.org/1999/02/22-rdf-syntax-ns#" xmlns="http://www.w3.org/2000/svg" height="16" width="16" version="1.1" xmlns:cc="http://creativecommons.org/ns#" xmlns:dc="http://purl.org/dc/elements/1.1/">
 <metadata id="metadata3005">
  <rdf:RDF>
   <cc:Work rdf:about="">
    <dc:format>image/svg+xml</dc:format>
    <dc:type rdf:resource="http://purl.org/dc/dcmitype/StillImage"/>
   </cc:Work>
  </rdf:RDF>
 </metadata>
 <path id="path2999" style="fill:#666" d="m6 2v5h1v-5h-1zm3 0v5h1v-5h-1zm-6 5l2.2383 2.2363-0.0039 0.0039 0.4668 0.4649-0.002 0.0019 2.293 2.293 0.0078-0.008 0.0078 0.008 2.2932-2.293-0.002-0.0019 0.467-0.4649-0.004-0.0039 2.238-2.2363h-1.412l-1.9982 1.9941 0.004 0.0039v0.002l-1.5938 1.594-1.5938-1.594v-0.002l0.004-0.0039-1.9981-1.9941h-1.4121zm-1 6v1h12v-1h-12z" fill="#bebebe"/>
</svg>
