<?xml version="1.0" encoding="UTF-8" standalone="no"?>
<svg id="svg3087" xmlns:rdf="http://www.w3.org/1999/02/22-rdf-syntax-ns#" xmlns="http://www.w3.org/2000/svg" height="16" width="16" version="1.1" xmlns:cc="http://creativecommons.org/ns#" xmlns:dc="http://purl.org/dc/elements/1.1/">
 <metadata id="metadata3095">
  <rdf:RDF>
   <cc:Work rdf:about="">
    <dc:format>image/svg+xml</dc:format>
    <dc:type rdf:resource="http://purl.org/dc/dcmitype/StillImage"/>
   </cc:Work>
  </rdf:RDF>
 </metadata>
 <path id="path3089" style="fill:#666" d="m2.5 2c-0.277 0-0.5 0.223-0.5 0.5v0.5h-0.5c-0.277 0-0.5 0.223-0.5 0.5v2c0-0.277 0.223-0.5 0.5-0.5h13c0.277 0 0.5 0.223 0.5 0.5v-2c0-0.277-0.223-0.5-0.5-0.5h-6.5v-0.5c0-0.277-0.223-0.5-0.5-0.5h-5zm-1 4c-0.277 0-0.5 0.223-0.5 0.5v7c0 0.277 0.223 0.5 0.5 0.5h13c0.277 0 0.5-0.223 0.5-0.5v-7c0-0.277-0.223-0.5-0.5-0.5h-13z" color="#bebebe" fill="#bebebe"/>
</svg>
