<?xml version="1.0" encoding="UTF-8" standalone="no"?>
<svg id="svg3097" xmlns:rdf="http://www.w3.org/1999/02/22-rdf-syntax-ns#" xmlns="http://www.w3.org/2000/svg" height="16" width="16" version="1.1" xmlns:cc="http://creativecommons.org/ns#" xmlns:dc="http://purl.org/dc/elements/1.1/">
 <metadata id="metadata3105">
  <rdf:RDF>
   <cc:Work rdf:about="">
    <dc:format>image/svg+xml</dc:format>
    <dc:type rdf:resource="http://purl.org/dc/dcmitype/StillImage"/>
   </cc:Work>
  </rdf:RDF>
 </metadata>
 <path id="path3099" style="color:#bebebe;fill:#666" d="m1.75 0.5c-0.4155 0-0.75 0.3345-0.75 0.75v13.5c0 0.4155 0.3345 0.75 0.75 0.75h12.5c0.416 0 0.75-0.334 0.75-0.75v-13.5c0-0.4155-0.334-0.75-0.75-0.75h-12.5zm0.25 1h1v1h-1v-1zm2.5 0h7c0.277 0 0.5 0.223 0.5 0.5v5c0 0.277-0.223 0.5-0.5 0.5h-7c-0.277 0-0.5-0.223-0.5-0.5v-5c0-0.277 0.223-0.5 0.5-0.5zm8.5 0h1v1h-1v-1zm-11 2h1v1h-1v-1zm11 0h1v1h-1v-1zm-11 2h1v1h-1v-1zm11 0h1v1h-1v-1zm-11 2h1v1h-1v-1zm11 0h1v1h-1v-1zm-8.5 1h7c0.277 0 0.5 0.223 0.5 0.5v5c0 0.277-0.223 0.5-0.5 0.5h-7c-0.277 0-0.5-0.223-0.5-0.5v-5c0-0.277 0.223-0.5 0.5-0.5zm-2.5 1h1v1h-1v-1zm11 0h1v1h-1v-1zm-11 2h1v1h-1v-1zm11 0h1v1h-1v-1zm-11 2h1v1h-1v-1zm11 0h1v1h-1v-1z"/>
</svg>
