<?xml version="1.0" encoding="UTF-8" standalone="no"?>
<svg id="svg3039" xmlns:rdf="http://www.w3.org/1999/02/22-rdf-syntax-ns#" xmlns="http://www.w3.org/2000/svg" height="16" width="16" version="1.1" xmlns:cc="http://creativecommons.org/ns#" xmlns:dc="http://purl.org/dc/elements/1.1/">
 <metadata id="metadata3047">
  <rdf:RDF>
   <cc:Work rdf:about="">
    <dc:format>image/svg+xml</dc:format>
    <dc:type rdf:resource="http://purl.org/dc/dcmitype/StillImage"/>
   </cc:Work>
  </rdf:RDF>
 </metadata>
 <path id="path3041" style="fill:#666" d="m9.9413 0c-0.0645 0.008-0.12753 0.0279-0.1875 0.0625l-5.0625 2.9375h3.9687l0.8125-0.4688 0.2813 0.4688h2.2812l-1.594-2.75c-0.104-0.17992-0.306-0.27423-0.4997-0.25zm-6.9375 3.9688-2.75 1.5938c-0.23989 0.1385-0.326 0.44761-0.1875 0.6875l2.9375 5.0619v-3.9687l-0.46875-0.8125 0.46875-0.28125v-2.2812zm1.5 0.03125c-0.277 0-0.5 0.223-0.5 0.5v11c0 0.277 0.223 0.5 0.5 0.5h11c0.277 0 0.5-0.223 0.5-0.5v-11c0-0.277-0.223-0.5-0.5-0.5h-11zm1.5 2h8v7h-8v-7z" color="#000000" fill="#bebebe"/>
</svg>
