<?xml version="1.0" encoding="UTF-8" standalone="no"?>
<svg id="svg3077" xmlns:rdf="http://www.w3.org/1999/02/22-rdf-syntax-ns#" xmlns="http://www.w3.org/2000/svg" height="16" width="16" version="1.1" xmlns:cc="http://creativecommons.org/ns#" xmlns:dc="http://purl.org/dc/elements/1.1/">
 <metadata id="metadata3085">
  <rdf:RDF>
   <cc:Work rdf:about="">
    <dc:format>image/svg+xml</dc:format>
    <dc:type rdf:resource="http://purl.org/dc/dcmitype/StillImage"/>
   </cc:Work>
  </rdf:RDF>
 </metadata>
 <path id="path3079" opacity=".9" style="opacity:1;fill:#666" d="m8.0287 10.787c-0.88378 0-1.7583 0.46314-2.1185 0.86083l2.1185 2.3037 2.139-2.2831c-0.3605-0.419-1.2555-0.882-2.1393-0.882zm0-4c-1.8479 0-3.5041 0.73648-4.8649 1.8612l1.3245 1.4137c0.90637-0.64917 2.3168-1.2749 3.4869-1.2749 1.1984 0 2.676 0.63984 3.5953 1.3181l1.365-1.4778c-1.361-1.1247-3.0584-1.8405-4.9063-1.8405zm0-4c-2.8534 0-5.4683 1.0963-7.5 2.9228l1.2959 1.4594c1.8117-1.5884 3.7177-2.3821 6.2041-2.3821s4.3344 0.7475 6.2329 2.4143l1.2671-1.4915c-2.032-1.8268-4.647-2.9232-7.5003-2.9232z" color="#bebebe" transform="translate(-.029 -.787)" fill="#bebebe"/>
</svg>
