<?xml version="1.0" encoding="UTF-8" standalone="no"?>
<svg id="svg3107" xmlns:rdf="http://www.w3.org/1999/02/22-rdf-syntax-ns#" xmlns="http://www.w3.org/2000/svg" height="16" width="16" version="1.1" xmlns:cc="http://creativecommons.org/ns#" xmlns:dc="http://purl.org/dc/elements/1.1/">
 <metadata id="metadata3115">
  <rdf:RDF>
   <cc:Work rdf:about="">
    <dc:format>image/svg+xml</dc:format>
    <dc:type rdf:resource="http://purl.org/dc/dcmitype/StillImage"/>
   </cc:Work>
  </rdf:RDF>
 </metadata>
 <path id="path3109" style="fill:#666" d="m3 2v3 1 1h10v-1-1-3h-10zm1 1h2v2 1h-2v-1-2zm3 0h5v2 1h-5v-1-2zm3 1v1h1v-1h-1zm-7 5v3 1 1h10v-1-1-3h-10zm1 1h2v2 1h-2v-1-2zm3 0h5v2 1h-5v-1-2zm3 1v1h1v-1h-1z" fill="#bebebe"/>
</svg>
