<?xml version="1.0" encoding="UTF-8" standalone="no"?>
<svg id="svg3117" xmlns:rdf="http://www.w3.org/1999/02/22-rdf-syntax-ns#" xmlns="http://www.w3.org/2000/svg" height="16" width="16" version="1.1" xmlns:cc="http://creativecommons.org/ns#" xmlns:dc="http://purl.org/dc/elements/1.1/">
 <metadata id="metadata3125">
  <rdf:RDF>
   <cc:Work rdf:about="">
    <dc:format>image/svg+xml</dc:format>
    <dc:type rdf:resource="http://purl.org/dc/dcmitype/StillImage"/>
   </cc:Work>
  </rdf:RDF>
 </metadata>
 <path id="path3119" style="fill:#666" d="m3 2v8h4v2h-1v-1h-4v3h4v-1h4v1h4v-3h-4v1h-1v-2h4v-8h-10zm1 1h2v6h-2v-6zm3 0h5v6h-5v-6zm3 1v1h1v-1h-1zm0 3v1h1v-1h-1zm-7 5h2v1h-2v-1zm8 0h2v1h-2v-1z" fill="#bebebe"/>
</svg>
