<?xml version="1.0" encoding="UTF-8"?>
<svg xmlns="http://www.w3.org/2000/svg" xmlns:xlink="http://www.w3.org/1999/xlink" width="77pt" height="77pt" viewBox="0 0 77 77" version="1.1">
<defs>
<linearGradient id="linear0" gradientUnits="userSpaceOnUse" x1="102.29776" y1="-0.426868" x2="102.29776" y2="199.16539" gradientTransform="matrix(0.385,0,0,0.385,0,0.00000385)">
<stop offset="0" style="stop-color:rgb(95.686275%,98.431373%,98.823529%);stop-opacity:1;"/>
<stop offset="1" style="stop-color:rgb(83.921569%,83.921569%,83.921569%);stop-opacity:1;"/>
</linearGradient>
<linearGradient id="linear1" gradientUnits="userSpaceOnUse" x1="99.036476" y1="-0.504716" x2="99.036476" y2="199.83986" gradientTransform="matrix(0.350429,0,0,0.350429,3.457143,3.457146)">
<stop offset="0" style="stop-color:rgb(79.607843%,88.627451%,90.588235%);stop-opacity:1;"/>
<stop offset="1" style="stop-color:rgb(47.45098%,47.45098%,47.45098%);stop-opacity:1;"/>
</linearGradient>
</defs>
<g id="surface1">
<path style=" stroke:none;fill-rule:nonzero;fill:url(#linear0);" d="M 77 38.5 C 77 59.761719 59.761719 77 38.5 77 C 17.238281 77 0 59.761719 0 38.5 C 0 17.238281 17.238281 0 38.5 0 C 59.761719 0 77 17.238281 77 38.5 Z M 77 38.5 "/>
<path style=" stroke:none;fill-rule:nonzero;fill:url(#linear1);" d="M 73.542969 38.5 C 73.542969 57.855469 57.855469 73.542969 38.5 73.542969 C 19.144531 73.542969 3.457031 57.855469 3.457031 38.5 C 3.457031 19.144531 19.144531 3.457031 38.5 3.457031 C 57.855469 3.457031 73.542969 19.144531 73.542969 38.5 Z M 73.542969 38.5 "/>
<path style=" stroke:none;fill-rule:nonzero;fill:rgb(26.666667%,28.627451%,29.803922%);fill-opacity:1;" d="M 59.144531 16.675781 C 42.667969 16.675781 31.144531 31.871094 31.144531 31.871094 C 19.242188 33.445312 12.09375 41.644531 12.09375 41.644531 C 15.40625 41.566406 18.699219 40.929688 23.902344 40.929688 C 29.105469 40.929688 24.757812 45.746094 24.757812 45.746094 C 26.335938 48.898438 30.855469 52.453125 30.855469 52.453125 C 32.984375 50.164062 35.421875 50.953125 35.421875 50.953125 L 35.421875 62.9375 C 43.777344 55.765625 44.019531 45.105469 44.019531 45.105469 C 59.308594 35.09375 59.144531 16.675781 59.144531 16.675781 Z M 45.660156 26.128906 C 48.316406 26.128906 50.476562 28.289062 50.476562 30.941406 C 50.476562 33.597656 48.316406 35.757812 45.660156 35.757812 C 43.003906 35.757812 40.84375 33.597656 40.84375 30.941406 C 40.84375 28.289062 43.003906 26.128906 45.660156 26.128906 Z M 22.476562 48.992188 C 22.476562 48.992188 17.375 53.871094 17.375 58.445312 C 22.023438 58.445312 24.058594 57.800781 26.898438 53.308594 C 26.898438 53.308594 25.261719 54.664062 22.191406 54.664062 C 22.191406 54.664062 21.371094 52.855469 22.476562 48.992188 Z M 22.476562 48.992188 "/>
<path style=" stroke:none;fill-rule:nonzero;fill:rgb(16.078431%,16.862745%,16.470588%);fill-opacity:0.462745;" d="M 59.109375 16.675781 C 58.976562 19.140625 57.609375 35.464844 43.484375 44.710938 C 43.484375 44.710938 43.164062 55.265625 35.421875 62.4375 L 35.421875 62.9375 C 43.777344 55.765625 44.019531 45.105469 44.019531 45.105469 C 59.308594 35.09375 59.144531 16.675781 59.144531 16.675781 C 59.128906 16.675781 59.121094 16.675781 59.109375 16.675781 Z M 45.660156 25.628906 C 43.003906 25.628906 40.84375 27.789062 40.84375 30.445312 C 40.84375 30.53125 40.875 30.609375 40.878906 30.691406 C 41.015625 28.15625 43.089844 26.128906 45.660156 26.128906 C 48.230469 26.128906 50.304688 28.15625 50.441406 30.691406 C 50.441406 30.609375 50.476562 30.53125 50.476562 30.445312 C 50.476562 27.789062 48.316406 25.628906 45.660156 25.628906 Z M 23.902344 40.429688 C 18.960938 40.429688 15.742188 40.984375 12.59375 41.109375 C 12.289062 41.417969 12.09375 41.644531 12.09375 41.644531 C 15.40625 41.566406 18.699219 40.929688 23.902344 40.929688 C 25.664062 40.929688 26.324219 41.484375 26.433594 42.214844 C 26.558594 41.253906 26.042969 40.429688 23.902344 40.429688 Z M 24.9375 45.53125 C 24.894531 45.578125 24.757812 45.746094 24.757812 45.746094 C 26.335938 48.898438 30.855469 52.453125 30.855469 52.453125 C 32.984375 50.164062 35.421875 50.953125 35.421875 50.953125 L 35.421875 50.453125 C 35.421875 50.453125 32.984375 49.667969 30.855469 51.953125 C 30.855469 51.953125 26.632812 48.609375 24.9375 45.53125 Z M 22.476562 48.992188 C 22.476562 48.992188 22.355469 49.144531 22.332031 49.171875 C 21.988281 50.585938 21.875 51.683594 21.902344 52.488281 C 21.921875 51.601562 22.0625 50.441406 22.476562 48.992188 Z M 26.898438 53.308594 C 26.898438 53.308594 26.640625 53.46875 26.292969 53.664062 C 23.757812 57.324219 21.699219 57.941406 17.410156 57.945312 C 17.398438 58.113281 17.375 58.277344 17.375 58.445312 C 22.023438 58.445312 24.0625 57.800781 26.898438 53.308594 Z M 26.898438 53.308594 "/>
</g>
</svg>
