<?xml version="1.0" encoding="UTF-8" standalone="no"?>
<svg
   xmlns:dc="http://purl.org/dc/elements/1.1/"
   xmlns:cc="http://creativecommons.org/ns#"
   xmlns:rdf="http://www.w3.org/1999/02/22-rdf-syntax-ns#"
   xmlns:svg="http://www.w3.org/2000/svg"
   xmlns="http://www.w3.org/2000/svg"
   xmlns:xlink="http://www.w3.org/1999/xlink"
   xmlns:sodipodi="http://sodipodi.sourceforge.net/DTD/sodipodi-0.dtd"
   xmlns:inkscape="http://www.inkscape.org/namespaces/inkscape"
   id="svg2"
   height="96"
   width="96"
   version="1.1"
   inkscape:version="0.91 r13725"
   sodipodi:docname="folder-documents.svg">
  <sodipodi:namedview
     pagecolor="#ffffff"
     bordercolor="#666666"
     borderopacity="1"
     objecttolerance="10"
     gridtolerance="10"
     guidetolerance="10"
     inkscape:pageopacity="0"
     inkscape:pageshadow="2"
     inkscape:window-width="1366"
     inkscape:window-height="718"
     id="namedview28"
     showgrid="false"
     inkscape:zoom="2.0108349"
     inkscape:cx="-57.377365"
     inkscape:cy="51.4288"
     inkscape:window-x="0"
     inkscape:window-y="24"
     inkscape:window-maximized="1"
     inkscape:current-layer="svg2" />
  <metadata
     id="metadata70">
    <rdf:RDF>
      <cc:Work
         rdf:about="">
        <dc:format>image/svg+xml</dc:format>
        <dc:type
           rdf:resource="http://purl.org/dc/dcmitype/StillImage" />
        <dc:title></dc:title>
      </cc:Work>
    </rdf:RDF>
  </metadata>
  <defs
     id="defs4">
    <linearGradient
       id="linearGradient4398">
      <stop
         id="stop4400"
         offset="0"
         style="stop-color:#78d9fd;stop-opacity:1;" />
      <stop
         id="stop4402"
         offset="1"
         style="stop-color:#7bb8ff;stop-opacity:1" />
    </linearGradient>
    <linearGradient
       id="linearGradient4340"
       y2="45.913"
       gradientUnits="userSpaceOnUse"
       x2="45.07"
       y1="-20.335"
       x1="44.36"
       gradientTransform="translate(5.5712949,10.359987)">
      <stop
         id="stop4336"
         style="stop-color:#fff"
         offset="0" />
      <stop
         id="stop4338"
         style="stop-color:#fff;stop-opacity:0"
         offset="1" />
    </linearGradient>
    <linearGradient
       id="linearGradient4348"
       y2="48"
       gradientUnits="userSpaceOnUse"
       x2="90.499"
       y1="48"
       x1="5.4988">
      <stop
         id="stop4344"
         style="stop-color:#3eadf3"
         offset="0" />
      <stop
         id="stop4346"
         style="stop-color:#005285"
         offset="1" />
    </linearGradient>
    <filter
       id="filter4356"
       style="color-interpolation-filters:sRGB"
       height="1.2617"
       width="1.0799"
       y="-.13085"
       x="-.039940">
      <feGaussianBlur
         id="feGaussianBlur4358"
         stdDeviation="1.1452528" />
    </filter>
    <linearGradient
       id="linearGradient4372"
       y2="26.095"
       gradientUnits="userSpaceOnUse"
       x2="52.385"
       y1="88.512"
       x1="52.385">
      <stop
         id="stop4368"
         style="stop-color:#389edd"
         offset="0" />
      <stop
         id="stop4370"
         style="stop-color:#66bff7"
         offset="1" />
    </linearGradient>
    <filter
       id="filter4390"
       style="color-interpolation-filters:sRGB"
       height="1.1591"
       width="1.1237"
       y="-.079545"
       x="-.061865">
      <feGaussianBlur
         id="feGaussianBlur4392"
         stdDeviation="1.8044006" />
    </filter>
    <linearGradient
       inkscape:collect="always"
       id="linearGradient3793">
      <stop
         style="stop-color:#000000;stop-opacity:1;"
         offset="0"
         id="stop3795" />
      <stop
         style="stop-color:#000000;stop-opacity:0;"
         offset="1"
         id="stop3797" />
    </linearGradient>
    <linearGradient
       id="linearGradient18984">
      <stop
         style="stop-color:#78d9fd;stop-opacity:1;"
         offset="0"
         id="stop18986" />
      <stop
         style="stop-color:#7bdeff;stop-opacity:1;"
         offset="1"
         id="stop18988" />
    </linearGradient>
    <linearGradient
       id="linearGradient18973">
      <stop
         style="stop-color:#35cafc;stop-opacity:1;"
         offset="0"
         id="stop18975" />
      <stop
         id="stop18981"
         offset="0.5"
         style="stop-color:#50d4ff;stop-opacity:1;" />
      <stop
         style="stop-color:#4dcbf6;stop-opacity:1;"
         offset="1"
         id="stop18977" />
    </linearGradient>
    <linearGradient
       inkscape:collect="always"
       xlink:href="#linearGradient18973"
       id="linearGradient4213"
       gradientUnits="userSpaceOnUse"
       x1="5.4987998"
       y1="48"
       x2="90.499001"
       y2="48"
       gradientTransform="translate(-1.2000761,-5.4722595e-6)" />
    <linearGradient
       inkscape:collect="always"
       xlink:href="#linearGradient18984"
       id="linearGradient4227"
       gradientUnits="userSpaceOnUse"
       x1="44.360001"
       y1="-20.334999"
       x2="45.07"
       y2="45.912998"
       gradientTransform="translate(2.85e-4,-2.336261)" />
    <linearGradient
       inkscape:collect="always"
       xlink:href="#linearGradient4348"
       id="linearGradient4244"
       x1="5"
       y1="48"
       x2="91"
       y2="48"
       gradientUnits="userSpaceOnUse" />
    <linearGradient
       inkscape:collect="always"
       xlink:href="#linearGradient4348"
       id="linearGradient4246"
       gradientUnits="userSpaceOnUse"
       x1="5"
       y1="48"
       x2="91"
       y2="48" />
    <linearGradient
       inkscape:collect="always"
       xlink:href="#linearGradient3793"
       id="linearGradient4316"
       x1="46.124733"
       y1="74.434715"
       x2="45.516567"
       y2="93.322433"
       gradientUnits="userSpaceOnUse" />
    <linearGradient
       x1="44.36"
       y1="-20.335"
       x2="45.07"
       gradientUnits="userSpaceOnUse"
       y2="45.913"
       id="linearGradient4340-4">
      <stop
         offset="0"
         style="stop-color:#fff"
         id="stop4336-6" />
      <stop
         offset="1"
         style="stop-color:#fff;stop-opacity:0"
         id="stop4338-1" />
    </linearGradient>
    <filter
       x="-.039940"
       y="-.13085"
       width="1.0799"
       height="1.2617"
       style="color-interpolation-filters:sRGB"
       id="filter4356-3">
      <feGaussianBlur
         stdDeviation="1.1452528"
         id="feGaussianBlur4358-5" />
    </filter>
    <filter
       x="-.061865"
       y="-.079545"
       width="1.1237"
       height="1.1591"
       style="color-interpolation-filters:sRGB"
       id="filter4390-1">
      <feGaussianBlur
         stdDeviation="1.8044006"
         id="feGaussianBlur4392-5" />
    </filter>
    <linearGradient
       inkscape:collect="always"
       xlink:href="#linearGradient18973"
       id="linearGradient4396"
       x1="229.22832"
       y1="31.820383"
       x2="314.22931"
       y2="31.820383"
       gradientUnits="userSpaceOnUse" />
    <linearGradient
       inkscape:collect="always"
       xlink:href="#linearGradient18973"
       id="linearGradient4414"
       gradientUnits="userSpaceOnUse"
       x1="229.22832"
       y1="31.820383"
       x2="314.22931"
       y2="31.820383" />
    <linearGradient
       inkscape:collect="always"
       xlink:href="#linearGradient18973"
       id="linearGradient4416"
       gradientUnits="userSpaceOnUse"
       x1="229.22832"
       y1="31.820383"
       x2="314.22931"
       y2="31.820383" />
    <linearGradient
       inkscape:collect="always"
       xlink:href="#linearGradient18984"
       id="linearGradient4506"
       gradientUnits="userSpaceOnUse"
       x1="-64.788628"
       y1="29.85832"
       x2="-24.726427"
       y2="29.85832"
       gradientTransform="translate(109.9046,25.362599)" />
    <linearGradient
       inkscape:collect="always"
       xlink:href="#linearGradient18984"
       id="linearGradient4508"
       gradientUnits="userSpaceOnUse"
       x1="-64.788628"
       y1="29.85832"
       x2="-24.726427"
       y2="29.85832"
       gradientTransform="translate(109.9046,25.362599)" />
  </defs>
  <g
     id="g4235"
     style="fill:url(#linearGradient4244);fill-opacity:1"
     transform="translate(495.45763,-1.6271167)">
    <rect
       x="5"
       y="5"
       width="86"
       height="86"
       transform="matrix(0,1,1,0,0,0)"
       rx="11.577"
       style="opacity:0.1;fill:url(#linearGradient4246);fill-opacity:1"
       id="rect4360" />
  </g>
  <rect
     x="4.2987242"
     y="5.5"
     width="85"
     height="85"
     transform="matrix(0,1,1,0,0,0)"
     rx="11.442"
     style="fill:url(#linearGradient4213);fill-opacity:1"
     id="rect4211" />
  <rect
     id="rect4350"
     style="color:#000000;opacity:0.397;filter:url(#filter4356)"
     width="68.818001"
     y="18.172812"
     x="13.59031"
     height="21.006001" />
  <rect
     x="13.591"
     y="17.853416"
     width="68.818001"
     height="21.006001"
     style="color:#000000;fill:#e6e6e6;stroke:none;stroke-opacity:1"
     id="rect4233" />
  <g
     id="g4221"
     transform="translate(-223.72881,24.424839)"
     style="fill:url(#linearGradient4396);fill-opacity:1">
    <path
       inkscape:connector-curvature="0"
       style="opacity:0.08900003;fill:url(#linearGradient4414);fill-opacity:1;filter:url(#filter4390)"
       d="m 264.79101,3.6981031 -7.2188,11.0739999 -21.656,0 0,33.934 c 0,5.2204 4.2132,9.4336 9.4336,9.4336 l 51.13299,0 c 5.2204,0 9.4336,-4.2132 9.4336,-9.4336 l 0,-45.0079999 -41.12499,0 z"
       id="path4374" />
    <path
       inkscape:connector-curvature="0"
       d="m 264.29091,-1.233119 -8.7656,13.447 -26.297,0 0,41.205004 c 0,6.3391 5.116,11.455 11.455,11.455 l 62.09,0 c 6.34,0 11.456,-5.116 11.456,-11.455 l 0,-54.652004 -49.938,0 z"
       style="fill:url(#linearGradient4416);fill-opacity:1"
       id="path4304" />
  </g>
  <path
     d="m 40.562285,22.057739 -8.7656,13.447 -26.297,0 0,2.3008 26.008,0 8.7656,-13.447 49.938,0 0,54.652 c 0,0.0969 -0.0113,0.1908 -0.0137,0.28711 0.19156,-0.83234 0.30273,-1.6963 0.30273,-2.5879 l 0,-54.652 -49.938,0 z"
     style="fill:url(#linearGradient4227);fill-opacity:1"
     id="path4225"
     inkscape:connector-curvature="0" />
  <path
     id="path64"
     d="m 5.4435,74.602976 0,5.0663 c 0,6.668 5.3645,12.032 12.032,12.032 l 61.049,0 c 6.668,0 12.032,-5.3645 12.032,-12.032 l 0,-5.0663 c 0,6.6681 -5.3645,12.032 -12.032,12.032 l -61.049,0 c -6.668,0 -12.032,-5.3643 -12.032,-12.032 z"
     style="opacity:0.13999999;fill:url(#linearGradient4316);fill-opacity:1"
     inkscape:connector-curvature="0" />
  <path
     inkscape:connector-curvature="0"
     id="path75"
     style="opacity:0.05;fill:url(#linearGradient4506);fill-opacity:1"
     d="m 49.147172,31.189719 c -2.1918,0 -4.0312,1.8394 -4.0312,4.0312 l 0,40 c 0,2.1918 1.8394,4.0312 4.0312,4.0312 l 32,0 c 2.192,0 4.031,-1.839 4.031,-4.031 l 0,-28 c 0,-1.694 -0.35014,-3.3292 -1.3125,-4.8438 -0.96236,-1.5146 -2.3705,-2.9642 -4.625,-5.2188 -2.478,-2.477 -3.936,-3.88 -5.438,-4.812 -1.501,-0.932 -3.056,-1.156 -4.656,-1.156 l -20,0 z m 0,2.031 20,0 c 3,0 3.7285,0.44727 8.6562,5.375 4.479,4.479 5.344,5.625 5.344,8.625 l 0,28 c 0,1.108 -0.892,2 -2,2 l -32,0 c -1.108,0 -2,-0.892 -2,-2 l 0,-40 c 0,-1.108 0.892,-2 2,-2 z m 2,4 0,36 28,0 0,-26 -10,0 0,-10 -18,0 z m 2.031,2.031 13.938,0 0,3.5625 a 2.0196,2.0196 0 0 0 -1.969,-1.625 l -10,0 a 2.0196,2.0196 0 0 0 -1.9688,1.5938 l 0,-3.5312 z m 1.969,3.969 10,0 0,2 -10,0 0,-2 z m -1.9688,2.4062 a 2.0196,2.0196 0 0 0 1.781,1.594 2.0196,2.0196 0 0 0 -1.781,1.562 l 0,-3.1562 z m 13.938,0.03125 0,1.5625 a 2.0196,2.0196 0 0 0 2.031,2.031 l 7.9688,0 0,21.938 -2.5625,0 a 2.0196,2.0196 0 0 0 1.625,-1.969 l 0,-2 a 2.0196,2.0196 0 0 0 -1.8438,-2 2.0196,2.0196 0 0 0 1.8438,-2 l 0,-2 a 2.0196,2.0196 0 0 0 -1.8438,-2 2.0196,2.0196 0 0 0 1.8438,-2 l 0,-2 a 2.0196,2.0196 0 0 0 -2.031,-2.031 l -8.5938,0 a 2.0196,2.0196 0 0 0 1.625,-1.969 l 0,-2 a 2.0196,2.0196 0 0 0 -1.843,-2 2.0196,2.0196 0 0 0 1.781,-1.562 z m -11.969,3.563 10,0 0,2 -10,0 0,-2 z m -1.9688,2.4062 a 2.0196,2.0196 0 0 0 1.781,1.594 2.0196,2.0196 0 0 0 -1.781,1.562 l 0,-3.1562 z m 1.969,3.594 19,0 0,2 -19,0 0,-2 z m -1.9688,2.4062 a 2.0196,2.0196 0 0 0 1.781,1.594 2.0196,2.0196 0 0 0 -1.781,1.562 l 0,-3.1562 z m 1.969,3.594 19,0 0,2 -19,0 0,-2 z m -1.9688,2.4062 a 2.0196,2.0196 0 0 0 1.781,1.594 2.0196,2.0196 0 0 0 -1.781,1.562 l 0,-3.1562 z m 1.969,3.594 19,0 0,2 -19,0 0,-2 z m -1.9688,2.4062 a 2.0196,2.0196 0 0 0 1.5312,1.5625 l -1.5312,0 0,-1.5625 z" />
  <path
     inkscape:connector-curvature="0"
     id="path77"
     style="opacity:0.1;fill:url(#linearGradient4508);fill-opacity:1"
     d="m 49.147172,32.220719 c -1.645,0 -3,1.355 -3,3 l 0,40 c 0,1.645 1.355,3 3,3 l 32,0 c 1.645,0 3,-1.355 3,-3 l 0,-28 c 0,-1.596 -0.288,-2.915 -1.156,-4.281 -0.869,-1.367 -2.222,-2.816 -4.469,-5.063 -2.471,-2.47 -3.914,-3.827 -5.25,-4.656 -1.336,-0.829 -2.575,-1 -4.125,-1 l -20,0 z m 0,1 20,0 c 3,0 3.7285,0.44727 8.6562,5.375 4.479,4.479 5.344,5.625 5.344,8.625 l 0,28 c 0,1.108 -0.892,2 -2,2 l -32,0 c -1.108,0 -2,-0.892 -2,-2 l 0,-40 c 0,-1.108 0.892,-2 2,-2 z m 2,4 0,36 28,0 0,-26 -10,0 0,-10 -18,0 z m 1,1 16,0 0,9 a 1.0007,1.0007 0 0 0 1,1 l 9,0 0,24 -26,0 0,-34 z m 2.8125,4 a 1.0007,1.0007 0 0 0 -0.812,1 l 0,2 a 1.0007,1.0007 0 0 0 1,1 l 10,0 a 1.0007,1.0007 0 0 0 1,-1 l 0,-2 a 1.0007,1.0007 0 0 0 -1,-1 l -10,0 a 1.0007,1.0007 0 0 0 -0.09375,0 1.0007,1.0007 0 0 0 -0.09375,0 z m 0.188,1 10,0 0,2 -10,0 0,-2 z m -0.1875,5 a 1.0007,1.0007 0 0 0 -0.812,1 l 0,2 a 1.0007,1.0007 0 0 0 1,1 l 10,0 a 1.0007,1.0007 0 0 0 1,-1 l 0,-2 a 1.0007,1.0007 0 0 0 -1,-1 l -10,0 a 1.0007,1.0007 0 0 0 -0.09375,0 1.0007,1.0007 0 0 0 -0.09375,0 z m 0.188,1 10,0 0,2 -10,0 0,-2 z m -0.1875,5 a 1.0007,1.0007 0 0 0 -0.812,1 l 0,2 a 1.0007,1.0007 0 0 0 1,1 l 19,0 a 1.0007,1.0007 0 0 0 1,-1 l 0,-2 a 1.0007,1.0007 0 0 0 -1,-1 l -19,0 a 1.0007,1.0007 0 0 0 -0.09375,0 1.0007,1.0007 0 0 0 -0.09375,0 z m 0.188,1 19,0 0,2 -19,0 0,-2 z m -0.1875,5 a 1.0007,1.0007 0 0 0 -0.812,1 l 0,2 a 1.0007,1.0007 0 0 0 1,1 l 19,0 a 1.0007,1.0007 0 0 0 1,-1 l 0,-2 a 1.0007,1.0007 0 0 0 -1,-1 l -19,0 a 1.0007,1.0007 0 0 0 -0.09375,0 1.0007,1.0007 0 0 0 -0.09375,0 z m 0.188,1 19,0 0,2 -19,0 0,-2 z m -0.1875,5 a 1.0007,1.0007 0 0 0 -0.812,1 l 0,2 a 1.0007,1.0007 0 0 0 1,1 l 19,0 a 1.0007,1.0007 0 0 0 1,-1 l 0,-2 a 1.0007,1.0007 0 0 0 -1,-1 l -19,0 a 1.0007,1.0007 0 0 0 -0.09375,0 1.0007,1.0007 0 0 0 -0.09375,0 z m 0.188,1 19,0 0,2 -19,0 0,-2 z" />
  <path
     inkscape:connector-curvature="0"
     id="path79"
     style="opacity:1;fill:#ffffff;fill-opacity:0.627451"
     d="m 47.388931,36.385555 c -1.108,0 -2,0.892 -2,2 l 0,40 c 0,1.108 0.892,2 2,2 l 32.000004,0 c 1.108,0 2,-0.892 2,-2 l 0,-28 c 0,-3 -0.865,-4.146 -5.344004,-8.625 -4.927,-4.928 -5.656,-5.375 -8.656,-5.375 l -20,0 z m 2,4 18,0 0,10 10.000004,0 0,26 -28.000004,0 0,-36 z m 4,6 0,2 10,0 0,-2 -10,0 z m 0,6 0,2 10,0 0,-2 -10,0 z m 0,6 0,2 19,0 0,-2 -19,0 z m 0,6 0,2 19,0 0,-2 -19,0 z m 0,6 0,2 19,0 0,-2 -19,0 z" />
</svg>
