<?xml version="1.0" encoding="UTF-8" standalone="no"?>
<svg
   xmlns:dc="http://purl.org/dc/elements/1.1/"
   xmlns:cc="http://creativecommons.org/ns#"
   xmlns:rdf="http://www.w3.org/1999/02/22-rdf-syntax-ns#"
   xmlns:svg="http://www.w3.org/2000/svg"
   xmlns="http://www.w3.org/2000/svg"
   xmlns:xlink="http://www.w3.org/1999/xlink"
   xmlns:sodipodi="http://sodipodi.sourceforge.net/DTD/sodipodi-0.dtd"
   xmlns:inkscape="http://www.inkscape.org/namespaces/inkscape"
   id="svg2"
   height="96"
   width="96"
   version="1.1"
   inkscape:version="0.91 r13725"
   sodipodi:docname="folder-publicshare.svg">
  <sodipodi:namedview
     pagecolor="#ffffff"
     bordercolor="#666666"
     borderopacity="1"
     objecttolerance="10"
     gridtolerance="10"
     guidetolerance="10"
     inkscape:pageopacity="0"
     inkscape:pageshadow="2"
     inkscape:window-width="1366"
     inkscape:window-height="718"
     id="namedview28"
     showgrid="false"
     inkscape:zoom="5.6875"
     inkscape:cx="48"
     inkscape:cy="48"
     inkscape:window-x="0"
     inkscape:window-y="24"
     inkscape:window-maximized="1"
     inkscape:current-layer="svg2" />
  <metadata
     id="metadata70">
    <rdf:RDF>
      <cc:Work
         rdf:about="">
        <dc:format>image/svg+xml</dc:format>
        <dc:type
           rdf:resource="http://purl.org/dc/dcmitype/StillImage" />
        <dc:title></dc:title>
      </cc:Work>
    </rdf:RDF>
  </metadata>
  <defs
     id="defs4">
    <linearGradient
       id="linearGradient4398">
      <stop
         id="stop4400"
         offset="0"
         style="stop-color:#78d9fd;stop-opacity:1;" />
      <stop
         id="stop4402"
         offset="1"
         style="stop-color:#7bb8ff;stop-opacity:1" />
    </linearGradient>
    <linearGradient
       id="linearGradient4340"
       y2="45.913"
       gradientUnits="userSpaceOnUse"
       x2="45.07"
       y1="-20.335"
       x1="44.36"
       gradientTransform="translate(5.5712949,10.359987)">
      <stop
         id="stop4336"
         style="stop-color:#fff"
         offset="0" />
      <stop
         id="stop4338"
         style="stop-color:#fff;stop-opacity:0"
         offset="1" />
    </linearGradient>
    <linearGradient
       id="linearGradient4348"
       y2="48"
       gradientUnits="userSpaceOnUse"
       x2="90.499"
       y1="48"
       x1="5.4988">
      <stop
         id="stop4344"
         style="stop-color:#3eadf3"
         offset="0" />
      <stop
         id="stop4346"
         style="stop-color:#005285"
         offset="1" />
    </linearGradient>
    <filter
       id="filter4356"
       style="color-interpolation-filters:sRGB"
       height="1.2617"
       width="1.0799"
       y="-.13085"
       x="-.039940">
      <feGaussianBlur
         id="feGaussianBlur4358"
         stdDeviation="1.1452528" />
    </filter>
    <linearGradient
       id="linearGradient4372"
       y2="26.095"
       gradientUnits="userSpaceOnUse"
       x2="52.385"
       y1="88.512"
       x1="52.385">
      <stop
         id="stop4368"
         style="stop-color:#389edd"
         offset="0" />
      <stop
         id="stop4370"
         style="stop-color:#66bff7"
         offset="1" />
    </linearGradient>
    <filter
       id="filter4390"
       style="color-interpolation-filters:sRGB"
       height="1.1591"
       width="1.1237"
       y="-.079545"
       x="-.061865">
      <feGaussianBlur
         id="feGaussianBlur4392"
         stdDeviation="1.8044006" />
    </filter>
    <linearGradient
       inkscape:collect="always"
       id="linearGradient3793">
      <stop
         style="stop-color:#000000;stop-opacity:1;"
         offset="0"
         id="stop3795" />
      <stop
         style="stop-color:#000000;stop-opacity:0;"
         offset="1"
         id="stop3797" />
    </linearGradient>
    <linearGradient
       id="linearGradient18984">
      <stop
         style="stop-color:#78d9fd;stop-opacity:1;"
         offset="0"
         id="stop18986" />
      <stop
         style="stop-color:#7bdeff;stop-opacity:1;"
         offset="1"
         id="stop18988" />
    </linearGradient>
    <linearGradient
       id="linearGradient18973">
      <stop
         style="stop-color:#35cafc;stop-opacity:1;"
         offset="0"
         id="stop18975" />
      <stop
         id="stop18981"
         offset="0.5"
         style="stop-color:#50d4ff;stop-opacity:1;" />
      <stop
         style="stop-color:#4dcbf6;stop-opacity:1;"
         offset="1"
         id="stop18977" />
    </linearGradient>
    <linearGradient
       inkscape:collect="always"
       xlink:href="#linearGradient18973"
       id="linearGradient4213"
       gradientUnits="userSpaceOnUse"
       x1="5.4987998"
       y1="48"
       x2="90.499001"
       y2="48"
       gradientTransform="translate(-1.200076,-5.4722595e-6)" />
    <linearGradient
       inkscape:collect="always"
       xlink:href="#linearGradient18984"
       id="linearGradient4227"
       gradientUnits="userSpaceOnUse"
       x1="44.360001"
       y1="-20.334999"
       x2="45.07"
       y2="45.912998"
       gradientTransform="translate(2.85e-4,-2.336261)" />
    <linearGradient
       inkscape:collect="always"
       xlink:href="#linearGradient3793"
       id="linearGradient4316"
       x1="46.124733"
       y1="74.434715"
       x2="45.516567"
       y2="93.322433"
       gradientUnits="userSpaceOnUse" />
    <linearGradient
       x1="44.36"
       y1="-20.335"
       x2="45.07"
       gradientUnits="userSpaceOnUse"
       y2="45.913"
       id="linearGradient4340-4">
      <stop
         offset="0"
         style="stop-color:#fff"
         id="stop4336-6" />
      <stop
         offset="1"
         style="stop-color:#fff;stop-opacity:0"
         id="stop4338-1" />
    </linearGradient>
    <filter
       x="-.039940"
       y="-.13085"
       width="1.0799"
       height="1.2617"
       style="color-interpolation-filters:sRGB"
       id="filter4356-3">
      <feGaussianBlur
         stdDeviation="1.1452528"
         id="feGaussianBlur4358-5" />
    </filter>
    <filter
       x="-.061865"
       y="-.079545"
       width="1.1237"
       height="1.1591"
       style="color-interpolation-filters:sRGB"
       id="filter4390-1">
      <feGaussianBlur
         stdDeviation="1.8044006"
         id="feGaussianBlur4392-5" />
    </filter>
    <linearGradient
       inkscape:collect="always"
       xlink:href="#linearGradient18973"
       id="linearGradient4396"
       x1="229.22832"
       y1="31.820383"
       x2="314.22931"
       y2="31.820383"
       gradientUnits="userSpaceOnUse" />
    <linearGradient
       inkscape:collect="always"
       xlink:href="#linearGradient18973"
       id="linearGradient4414"
       gradientUnits="userSpaceOnUse"
       x1="229.22832"
       y1="31.820383"
       x2="314.22931"
       y2="31.820383" />
    <linearGradient
       inkscape:collect="always"
       xlink:href="#linearGradient18973"
       id="linearGradient4416"
       gradientUnits="userSpaceOnUse"
       x1="229.22832"
       y1="31.820383"
       x2="314.22931"
       y2="31.820383" />
  </defs>
  <g
     id="g4404">
    <rect
       id="rect4211"
       style="fill:url(#linearGradient4213);fill-opacity:1"
       rx="11.442"
       transform="matrix(0,1,1,0,0,0)"
       height="85"
       width="85"
       y="5.5"
       x="4.2987242" />
    <rect
       height="21.006001"
       x="13.59031"
       y="18.172812"
       width="68.818001"
       style="color:#000000;opacity:0.397;filter:url(#filter4356)"
       id="rect4350" />
    <rect
       id="rect4233"
       style="color:#000000;fill:#e6e6e6;stroke:none;stroke-opacity:1"
       height="21.006001"
       width="68.818001"
       y="17.853416"
       x="13.591" />
    <g
       style="fill:url(#linearGradient4396);fill-opacity:1"
       transform="translate(-223.72881,24.424839)"
       id="g4221">
      <path
         id="path4374"
         d="m 264.79101,3.6981031 -7.2188,11.0739999 -21.656,0 0,33.934 c 0,5.2204 4.2132,9.4336 9.4336,9.4336 l 51.13299,0 c 5.2204,0 9.4336,-4.2132 9.4336,-9.4336 l 0,-45.0079999 -41.12499,0 z"
         style="opacity:0.08900003;fill:url(#linearGradient4414);fill-opacity:1;filter:url(#filter4390)"
         inkscape:connector-curvature="0" />
      <path
         id="path4304"
         style="fill:url(#linearGradient4416);fill-opacity:1"
         d="m 264.29091,-1.233119 -8.7656,13.447 -26.297,0 0,41.205004 c 0,6.3391 5.116,11.455 11.455,11.455 l 62.09,0 c 6.34,0 11.456,-5.116 11.456,-11.455 l 0,-54.652004 -49.938,0 z"
         inkscape:connector-curvature="0" />
    </g>
    <path
       inkscape:connector-curvature="0"
       id="path4225"
       style="fill:url(#linearGradient4227);fill-opacity:1"
       d="m 40.562285,22.057739 -8.7656,13.447 -26.297,0 0,2.3008 26.008,0 8.7656,-13.447 49.938,0 0,54.652 c 0,0.0969 -0.0113,0.1908 -0.0137,0.28711 0.19156,-0.83234 0.30273,-1.6963 0.30273,-2.5879 l 0,-54.652 -49.938,0 z" />
    <path
       inkscape:connector-curvature="0"
       style="opacity:0.13999999;fill:url(#linearGradient4316);fill-opacity:1"
       d="m 5.4435,74.602976 0,5.0663 c 0,6.668 5.3645,12.032 12.032,12.032 l 61.049,0 c 6.668,0 12.032,-5.3645 12.032,-12.032 l 0,-5.0663 c 0,6.6681 -5.3645,12.032 -12.032,12.032 l -61.049,0 c -6.668,0 -12.032,-5.3643 -12.032,-12.032 z"
       id="path64" />
  </g>
  <path
     inkscape:connector-curvature="0"
     id="path4329"
     d="m 70.999605,38.029393 c -1.63095,0.03471 -3.26289,0.601802 -4.59472,1.727272 -4.28311,3.619484 -0.95636,7.380074 -4.69141,10.536669 -3.73505,3.15632 -7.04453,-0.61627 -11.328093,3.00325 l 0,0.006 c -0.95132,0.80391 -1.63779,1.7994 -2.05283,2.8751 -0.003,0.007 -0.003,0.0152 -0.005,0.0223 -0.0836,0.21876 -0.15503,0.43837 -0.21609,0.66305 -0.0272,0.0998 -0.0569,0.20021 -0.0796,0.30088 -0.003,0.011 -0.004,0.0224 -0.005,0.0334 -0.0467,0.21234 -0.0812,0.4255 -0.10804,0.64077 -2.5e-4,0.002 2.1e-4,0.004 0,0.006 -0.002,0.0112 -0.005,0.0222 -0.005,0.0334 -0.0119,0.10026 -0.0209,0.20023 -0.0284,0.30088 -0.006,0.0757 -0.0137,0.15268 -0.0171,0.22845 -0.002,0.0386 -0.004,0.0784 -0.005,0.11701 -3.7e-4,0.0129 2.8e-4,0.0261 0,0.039 -0.002,0.101 -0.002,0.19984 0,0.30089 9e-4,0.0517 0.004,0.10437 0.005,0.15601 0.004,0.0758 0.0112,0.15277 0.0171,0.22845 0.009,0.1121 0.0202,0.22256 0.0342,0.33432 2.1e-4,0.002 -2.5e-4,0.004 0,0.006 0.0268,0.21526 0.0613,0.42842 0.10804,0.64076 0.003,0.0111 0.004,0.0223 0.005,0.0334 0.023,0.10128 0.0521,0.20039 0.0796,0.30088 0.0611,0.22469 0.1325,0.44429 0.21609,0.66305 0.003,0.007 0.003,0.0151 0.005,0.0223 0.41509,1.0757 1.10151,2.07118 2.05283,2.8751 l 0,0.006 c 4.283113,3.61948 7.592593,-0.15309 11.328093,3.00326 3.73505,3.15632 0.40828,6.91691 4.69141,10.53666 3.04417,2.57248 7.63881,2.23612 10.26416,-0.74663 2.62545,-2.98275 2.28783,-7.48467 -0.75631,-10.05732 -4.28311,-3.61948 -7.59259,0.15866 -11.32809,-2.99768 -1.88682,-1.59444 -1.96947,-3.34716 -2.14385,-5.15394 0.17438,-1.80677 0.25704,-3.55949 2.14385,-5.15393 3.73505,-3.15633 7.04453,0.62184 11.32809,-2.99768 3.04417,-2.57248 3.38178,-7.074391 0.75631,-10.057322 -1.4768,-1.677809 -3.57253,-2.518512 -5.66953,-2.473905 z"
     style="color:#000000;opacity:0.9;fill:#ffffff;fill-opacity:0.62745098;fill-rule:evenodd" />
</svg>
