<?xml version="1.0" encoding="UTF-8" standalone="no"?>
<svg
   xmlns:dc="http://purl.org/dc/elements/1.1/"
   xmlns:cc="http://creativecommons.org/ns#"
   xmlns:rdf="http://www.w3.org/1999/02/22-rdf-syntax-ns#"
   xmlns:svg="http://www.w3.org/2000/svg"
   xmlns="http://www.w3.org/2000/svg"
   xmlns:xlink="http://www.w3.org/1999/xlink"
   xmlns:sodipodi="http://sodipodi.sourceforge.net/DTD/sodipodi-0.dtd"
   xmlns:inkscape="http://www.inkscape.org/namespaces/inkscape"
   id="svg2"
   height="96"
   width="96"
   version="1.1"
   inkscape:version="0.91 r13725"
   sodipodi:docname="folder-videos.svg">
  <sodipodi:namedview
     pagecolor="#ffffff"
     bordercolor="#666666"
     borderopacity="1"
     objecttolerance="10"
     gridtolerance="10"
     guidetolerance="10"
     inkscape:pageopacity="0"
     inkscape:pageshadow="2"
     inkscape:window-width="1366"
     inkscape:window-height="718"
     id="namedview28"
     showgrid="false"
     inkscape:zoom="2.0108349"
     inkscape:cx="-128.47746"
     inkscape:cy="76.27339"
     inkscape:window-x="0"
     inkscape:window-y="24"
     inkscape:window-maximized="1"
     inkscape:current-layer="svg2" />
  <metadata
     id="metadata70">
    <rdf:RDF>
      <cc:Work
         rdf:about="">
        <dc:format>image/svg+xml</dc:format>
        <dc:type
           rdf:resource="http://purl.org/dc/dcmitype/StillImage" />
        <dc:title></dc:title>
      </cc:Work>
    </rdf:RDF>
  </metadata>
  <defs
     id="defs4">
    <linearGradient
       id="linearGradient4398">
      <stop
         id="stop4400"
         offset="0"
         style="stop-color:#78d9fd;stop-opacity:1;" />
      <stop
         id="stop4402"
         offset="1"
         style="stop-color:#7bb8ff;stop-opacity:1" />
    </linearGradient>
    <linearGradient
       id="linearGradient4340"
       y2="45.913"
       gradientUnits="userSpaceOnUse"
       x2="45.07"
       y1="-20.335"
       x1="44.36"
       gradientTransform="translate(5.5712949,10.359987)">
      <stop
         id="stop4336"
         style="stop-color:#fff"
         offset="0" />
      <stop
         id="stop4338"
         style="stop-color:#fff;stop-opacity:0"
         offset="1" />
    </linearGradient>
    <linearGradient
       id="linearGradient4348"
       y2="48"
       gradientUnits="userSpaceOnUse"
       x2="90.499"
       y1="48"
       x1="5.4988">
      <stop
         id="stop4344"
         style="stop-color:#3eadf3"
         offset="0" />
      <stop
         id="stop4346"
         style="stop-color:#005285"
         offset="1" />
    </linearGradient>
    <filter
       id="filter4356"
       style="color-interpolation-filters:sRGB"
       height="1.2617"
       width="1.0799"
       y="-.13085"
       x="-.039940">
      <feGaussianBlur
         id="feGaussianBlur4358"
         stdDeviation="1.1452528" />
    </filter>
    <linearGradient
       id="linearGradient4372"
       y2="26.095"
       gradientUnits="userSpaceOnUse"
       x2="52.385"
       y1="88.512"
       x1="52.385">
      <stop
         id="stop4368"
         style="stop-color:#389edd"
         offset="0" />
      <stop
         id="stop4370"
         style="stop-color:#66bff7"
         offset="1" />
    </linearGradient>
    <filter
       id="filter4390"
       style="color-interpolation-filters:sRGB"
       height="1.1591"
       width="1.1237"
       y="-.079545"
       x="-.061865">
      <feGaussianBlur
         id="feGaussianBlur4392"
         stdDeviation="1.8044006" />
    </filter>
    <linearGradient
       inkscape:collect="always"
       id="linearGradient3793">
      <stop
         style="stop-color:#000000;stop-opacity:1;"
         offset="0"
         id="stop3795" />
      <stop
         style="stop-color:#000000;stop-opacity:0;"
         offset="1"
         id="stop3797" />
    </linearGradient>
    <linearGradient
       id="linearGradient18984">
      <stop
         style="stop-color:#78d9fd;stop-opacity:1;"
         offset="0"
         id="stop18986" />
      <stop
         style="stop-color:#7bdeff;stop-opacity:1;"
         offset="1"
         id="stop18988" />
    </linearGradient>
    <linearGradient
       id="linearGradient18973">
      <stop
         style="stop-color:#35cafc;stop-opacity:1;"
         offset="0"
         id="stop18975" />
      <stop
         id="stop18981"
         offset="0.5"
         style="stop-color:#50d4ff;stop-opacity:1;" />
      <stop
         style="stop-color:#4dcbf6;stop-opacity:1;"
         offset="1"
         id="stop18977" />
    </linearGradient>
    <linearGradient
       inkscape:collect="always"
       xlink:href="#linearGradient18973"
       id="linearGradient4213"
       gradientUnits="userSpaceOnUse"
       x1="5.4987998"
       y1="48"
       x2="90.499001"
       y2="48"
       gradientTransform="translate(-1.200076,-5.4722595e-6)" />
    <linearGradient
       inkscape:collect="always"
       xlink:href="#linearGradient18984"
       id="linearGradient4227"
       gradientUnits="userSpaceOnUse"
       x1="44.360001"
       y1="-20.334999"
       x2="45.07"
       y2="45.912998"
       gradientTransform="translate(2.85e-4,-2.336261)" />
    <linearGradient
       inkscape:collect="always"
       xlink:href="#linearGradient4348"
       id="linearGradient4244"
       x1="5"
       y1="48"
       x2="91"
       y2="48"
       gradientUnits="userSpaceOnUse" />
    <linearGradient
       inkscape:collect="always"
       xlink:href="#linearGradient4348"
       id="linearGradient4246"
       gradientUnits="userSpaceOnUse"
       x1="5"
       y1="48"
       x2="91"
       y2="48" />
    <linearGradient
       inkscape:collect="always"
       xlink:href="#linearGradient3793"
       id="linearGradient4316"
       x1="46.124733"
       y1="74.434715"
       x2="45.516567"
       y2="93.322433"
       gradientUnits="userSpaceOnUse" />
    <linearGradient
       x1="44.36"
       y1="-20.335"
       x2="45.07"
       gradientUnits="userSpaceOnUse"
       y2="45.913"
       id="linearGradient4340-4">
      <stop
         offset="0"
         style="stop-color:#fff"
         id="stop4336-6" />
      <stop
         offset="1"
         style="stop-color:#fff;stop-opacity:0"
         id="stop4338-1" />
    </linearGradient>
    <filter
       x="-.039940"
       y="-.13085"
       width="1.0799"
       height="1.2617"
       style="color-interpolation-filters:sRGB"
       id="filter4356-3">
      <feGaussianBlur
         stdDeviation="1.1452528"
         id="feGaussianBlur4358-5" />
    </filter>
    <filter
       x="-.061865"
       y="-.079545"
       width="1.1237"
       height="1.1591"
       style="color-interpolation-filters:sRGB"
       id="filter4390-1">
      <feGaussianBlur
         stdDeviation="1.8044006"
         id="feGaussianBlur4392-5" />
    </filter>
    <linearGradient
       inkscape:collect="always"
       xlink:href="#linearGradient18973"
       id="linearGradient4396"
       x1="229.22832"
       y1="31.820383"
       x2="314.22931"
       y2="31.820383"
       gradientUnits="userSpaceOnUse" />
    <linearGradient
       inkscape:collect="always"
       xlink:href="#linearGradient18973"
       id="linearGradient4414"
       gradientUnits="userSpaceOnUse"
       x1="229.22832"
       y1="31.820383"
       x2="314.22931"
       y2="31.820383" />
    <linearGradient
       inkscape:collect="always"
       xlink:href="#linearGradient18973"
       id="linearGradient4416"
       gradientUnits="userSpaceOnUse"
       x1="229.22832"
       y1="31.820383"
       x2="314.22931"
       y2="31.820383" />
  </defs>
  <g
     id="g4235"
     style="fill:url(#linearGradient4244);fill-opacity:1"
     transform="translate(495.45763,-1.6271167)">
    <rect
       x="5"
       y="5"
       width="86"
       height="86"
       transform="matrix(0,1,1,0,0,0)"
       rx="11.577"
       style="opacity:0.1;fill:url(#linearGradient4246);fill-opacity:1"
       id="rect4360" />
  </g>
  <g
     id="g4404">
    <rect
       id="rect4211"
       style="fill:url(#linearGradient4213);fill-opacity:1"
       rx="11.442"
       transform="matrix(0,1,1,0,0,0)"
       height="85"
       width="85"
       y="5.5"
       x="4.2987242" />
    <rect
       height="21.006001"
       x="13.59031"
       y="18.172812"
       width="68.818001"
       style="color:#000000;opacity:0.397;filter:url(#filter4356)"
       id="rect4350" />
    <rect
       id="rect4233"
       style="color:#000000;fill:#e6e6e6;stroke:none;stroke-opacity:1"
       height="21.006001"
       width="68.818001"
       y="17.853416"
       x="13.591" />
    <g
       style="fill:url(#linearGradient4396);fill-opacity:1"
       transform="translate(-223.72881,24.424839)"
       id="g4221">
      <path
         id="path4374"
         d="m 264.79101,3.6981031 -7.2188,11.0739999 -21.656,0 0,33.934 c 0,5.2204 4.2132,9.4336 9.4336,9.4336 l 51.13299,0 c 5.2204,0 9.4336,-4.2132 9.4336,-9.4336 l 0,-45.0079999 -41.12499,0 z"
         style="opacity:0.08900003;fill:url(#linearGradient4414);fill-opacity:1;filter:url(#filter4390)"
         inkscape:connector-curvature="0" />
      <path
         id="path4304"
         style="fill:url(#linearGradient4416);fill-opacity:1"
         d="m 264.29091,-1.233119 -8.7656,13.447 -26.297,0 0,41.205004 c 0,6.3391 5.116,11.455 11.455,11.455 l 62.09,0 c 6.34,0 11.456,-5.116 11.456,-11.455 l 0,-54.652004 -49.938,0 z"
         inkscape:connector-curvature="0" />
    </g>
    <path
       inkscape:connector-curvature="0"
       id="path4225"
       style="fill:url(#linearGradient4227);fill-opacity:1"
       d="m 40.562285,22.057739 -8.7656,13.447 -26.297,0 0,2.3008 26.008,0 8.7656,-13.447 49.938,0 0,54.652 c 0,0.0969 -0.0113,0.1908 -0.0137,0.28711 0.19156,-0.83234 0.30273,-1.6963 0.30273,-2.5879 l 0,-54.652 -49.938,0 z" />
    <path
       inkscape:connector-curvature="0"
       style="opacity:0.13999999;fill:url(#linearGradient4316);fill-opacity:1"
       d="m 5.4435,74.602976 0,5.0663 c 0,6.668 5.3645,12.032 12.032,12.032 l 61.049,0 c 6.668,0 12.032,-5.3645 12.032,-12.032 l 0,-5.0663 c 0,6.6681 -5.3645,12.032 -12.032,12.032 l -61.049,0 c -6.668,0 -12.032,-5.3643 -12.032,-12.032 z"
       id="path64" />
  </g>
  <path
     id="path79"
     style="opacity:1;fill:#ffffff;fill-opacity:0.62745098"
     d="m 52.287592,37.540961 c -6.225448,0 -11.2722,5.046752 -11.2722,11.2722 0,4.186406 2.304883,7.830896 5.694809,9.774876 -0.03741,0.18374 -0.05871,0.36259 -0.05871,0.55769 l 0,1.90801 c -0.153114,-0.0244 -0.307167,-0.0291 -0.469675,-0.0291 -1.301,0 -2.348375,0.8379 -2.348375,1.8787 0,1.0408 1.047375,1.8787 2.348375,1.8787 0.16262,0 0.316524,0 0.469675,-0.0291 l 0,5.66541 c 0,1.5612 1.256851,2.81805 2.81805,2.81805 l 0.93935,0 3.346434,0 -2.994178,3.93353 c -0.527915,0.68478 0.247988,1.70867 1.291606,1.7021 l 8.45415,0 8.483458,0 c 1.043242,0.009 1.819521,-1.01694 1.291606,-1.70257 l -2.993708,-3.934 3.78652,0 0.93935,0 c 1.5612,0 2.81805,-1.25685 2.81805,-2.81805 l 0,-2.84736 0.381611,0 4.843476,3.37584 c 0.456083,0.40495 1.042021,0.40777 1.497136,0 0.455031,-0.40778 0.761992,-1.21073 0.763222,-2.02543 l 0,-4.63804 0,-3.69869 c 0.0099,-1.33425 -0.848787,-2.51877 -1.702572,-2.34838 -0.195911,0.0404 -0.386608,0.14034 -0.557739,0.29355 l -4.843476,3.40514 -0.381611,0 0,-2.78893 c 0,-0.58521 -0.166265,-1.13567 -0.469675,-1.58562 2.565365,-2.06281 4.227075,-5.19648 4.227075,-8.747226 0,-6.225072 -5.047128,-11.2722 -11.2722,-11.2722 -2.89132,0 -5.52056,1.08401 -7.5148,2.87629 -1.99424,-1.79228 -4.623481,-2.87629 -7.5148,-2.87629 z m 0,5.6361 c 1.750948,0 3.310739,0.802224 4.344493,2.054829 0.402014,0.487128 0.71695,1.040518 0.93935,1.643862 0.09482,0.25897 0.178533,0.517394 0.234838,0.79253 0.0102,0.04885 0.02044,0.09732 0.02935,0.14682 0.0051,0.02818 -0.0046,0.05918 0,0.0883 0.04885,0.296835 0.0883,0.599305 0.0883,0.91023 0,0.310643 -0.03935,0.613396 -0.08806,0.910042 -0.0047,0.02818 0.0051,0.06012 0,0.0883 -0.04147,0.23418 -0.106701,0.45192 -0.176128,0.6752 -0.02755,0.0883 -0.05636,0.1782 -0.08806,0.26415 -0.222401,0.60334 -0.537337,1.15671 -0.93935,1.64386 -1.033285,1.25309 -2.593546,2.0553 -4.344494,2.0553 -3.112724,0 -5.6361,-2.52338 -5.6361,-5.636102 0,-3.112706 2.523376,-5.636082 5.6361,-5.636082 z m 15.0296,0 c 3.112724,0 5.6361,2.523376 5.6361,5.6361 0,3.112726 -2.523376,5.636096 -5.6361,5.636096 -1.750949,0 -3.31074,-0.8022 -4.344494,-2.05482 -0.402014,-0.48715 -0.71695,-1.04052 -0.93935,-1.64387 -0.105076,-0.28697 -0.20662,-0.57403 -0.264192,-0.88064 -0.0089,-0.047 0.0078,-0.09948 0,-0.146817 -0.04885,-0.296835 -0.0883,-0.599305 -0.0883,-0.91023 0,-0.310643 0.03935,-0.613302 0.08806,-0.909949 0.0078,-0.04697 -0.0089,-0.09995 0,-0.14682 0.05757,-0.306604 0.159116,-0.59365 0.264192,-0.880612 0.2224,-0.603307 0.537336,-1.156716 0.93935,-1.643863 1.033285,-1.253093 2.593545,-2.055298 4.344493,-2.055298 z m -15.0296,1.8787 c -2.075119,0 -3.7574,1.682282 -3.7574,3.7574 0,2.075116 1.682281,3.757396 3.7574,3.757396 2.075118,0 3.7574,-1.68228 3.7574,-3.757396 0,-2.075118 -1.682282,-3.7574 -3.7574,-3.7574 z m 15.0296,0 c -2.075119,0 -3.7574,1.682282 -3.7574,3.7574 0,2.075116 1.682281,3.757396 3.7574,3.757396 2.075118,0 3.7574,-1.68228 3.7574,-3.757396 0,-2.075118 -1.682282,-3.7574 -3.7574,-3.7574 z"
     inkscape:connector-curvature="0" />
</svg>
