<?xml version="1.0" encoding="UTF-8" standalone="no"?>
<svg
   xmlns:dc="http://purl.org/dc/elements/1.1/"
   xmlns:cc="http://creativecommons.org/ns#"
   xmlns:rdf="http://www.w3.org/1999/02/22-rdf-syntax-ns#"
   xmlns:svg="http://www.w3.org/2000/svg"
   xmlns="http://www.w3.org/2000/svg"
   xmlns:xlink="http://www.w3.org/1999/xlink"
   xmlns:sodipodi="http://sodipodi.sourceforge.net/DTD/sodipodi-0.dtd"
   xmlns:inkscape="http://www.inkscape.org/namespaces/inkscape"
   id="svg2"
   height="96"
   width="96"
   version="1.1"
   inkscape:version="0.91 r13725"
   sodipodi:docname="folder-system.svg">
  <sodipodi:namedview
     pagecolor="#ffffff"
     bordercolor="#666666"
     borderopacity="1"
     objecttolerance="10"
     gridtolerance="10"
     guidetolerance="10"
     inkscape:pageopacity="0"
     inkscape:pageshadow="2"
     inkscape:window-width="1366"
     inkscape:window-height="718"
     id="namedview28"
     showgrid="false"
     inkscape:zoom="5.6875"
     inkscape:cx="48"
     inkscape:cy="48"
     inkscape:window-x="0"
     inkscape:window-y="24"
     inkscape:window-maximized="1"
     inkscape:current-layer="svg2" />
  <metadata
     id="metadata70">
    <rdf:RDF>
      <cc:Work
         rdf:about="">
        <dc:format>image/svg+xml</dc:format>
        <dc:type
           rdf:resource="http://purl.org/dc/dcmitype/StillImage" />
        <dc:title></dc:title>
      </cc:Work>
    </rdf:RDF>
  </metadata>
  <defs
     id="defs4">
    <linearGradient
       id="linearGradient4398">
      <stop
         id="stop4400"
         offset="0"
         style="stop-color:#78d9fd;stop-opacity:1;" />
      <stop
         id="stop4402"
         offset="1"
         style="stop-color:#7bb8ff;stop-opacity:1" />
    </linearGradient>
    <linearGradient
       id="linearGradient4340"
       y2="45.913"
       gradientUnits="userSpaceOnUse"
       x2="45.07"
       y1="-20.335"
       x1="44.36"
       gradientTransform="translate(5.5712949,10.359987)">
      <stop
         id="stop4336"
         style="stop-color:#fff"
         offset="0" />
      <stop
         id="stop4338"
         style="stop-color:#fff;stop-opacity:0"
         offset="1" />
    </linearGradient>
    <linearGradient
       id="linearGradient4348"
       y2="48"
       gradientUnits="userSpaceOnUse"
       x2="90.499"
       y1="48"
       x1="5.4988">
      <stop
         id="stop4344"
         style="stop-color:#3eadf3"
         offset="0" />
      <stop
         id="stop4346"
         style="stop-color:#005285"
         offset="1" />
    </linearGradient>
    <filter
       id="filter4356"
       style="color-interpolation-filters:sRGB"
       height="1.2617"
       width="1.0799"
       y="-.13085"
       x="-.039940">
      <feGaussianBlur
         id="feGaussianBlur4358"
         stdDeviation="1.1452528" />
    </filter>
    <linearGradient
       id="linearGradient4372"
       y2="26.095"
       gradientUnits="userSpaceOnUse"
       x2="52.385"
       y1="88.512"
       x1="52.385">
      <stop
         id="stop4368"
         style="stop-color:#389edd"
         offset="0" />
      <stop
         id="stop4370"
         style="stop-color:#66bff7"
         offset="1" />
    </linearGradient>
    <filter
       id="filter4390"
       style="color-interpolation-filters:sRGB"
       height="1.1591"
       width="1.1237"
       y="-.079545"
       x="-.061865">
      <feGaussianBlur
         id="feGaussianBlur4392"
         stdDeviation="1.8044006" />
    </filter>
    <linearGradient
       inkscape:collect="always"
       id="linearGradient3793">
      <stop
         style="stop-color:#000000;stop-opacity:1;"
         offset="0"
         id="stop3795" />
      <stop
         style="stop-color:#000000;stop-opacity:0;"
         offset="1"
         id="stop3797" />
    </linearGradient>
    <linearGradient
       id="linearGradient18984">
      <stop
         style="stop-color:#78d9fd;stop-opacity:1;"
         offset="0"
         id="stop18986" />
      <stop
         style="stop-color:#7bdeff;stop-opacity:1;"
         offset="1"
         id="stop18988" />
    </linearGradient>
    <linearGradient
       id="linearGradient18973">
      <stop
         style="stop-color:#35cafc;stop-opacity:1;"
         offset="0"
         id="stop18975" />
      <stop
         id="stop18981"
         offset="0.5"
         style="stop-color:#50d4ff;stop-opacity:1;" />
      <stop
         style="stop-color:#4dcbf6;stop-opacity:1;"
         offset="1"
         id="stop18977" />
    </linearGradient>
    <linearGradient
       inkscape:collect="always"
       xlink:href="#linearGradient18973"
       id="linearGradient4213"
       gradientUnits="userSpaceOnUse"
       x1="5.4987998"
       y1="48"
       x2="90.499001"
       y2="48"
       gradientTransform="translate(-1.200076,-5.4722595e-6)" />
    <linearGradient
       inkscape:collect="always"
       xlink:href="#linearGradient18984"
       id="linearGradient4227"
       gradientUnits="userSpaceOnUse"
       x1="44.360001"
       y1="-20.334999"
       x2="45.07"
       y2="45.912998"
       gradientTransform="translate(2.85e-4,-2.336261)" />
    <linearGradient
       inkscape:collect="always"
       xlink:href="#linearGradient4348"
       id="linearGradient4244"
       x1="5"
       y1="48"
       x2="91"
       y2="48"
       gradientUnits="userSpaceOnUse" />
    <linearGradient
       inkscape:collect="always"
       xlink:href="#linearGradient4348"
       id="linearGradient4246"
       gradientUnits="userSpaceOnUse"
       x1="5"
       y1="48"
       x2="91"
       y2="48" />
    <linearGradient
       inkscape:collect="always"
       xlink:href="#linearGradient3793"
       id="linearGradient4316"
       x1="46.124733"
       y1="74.434715"
       x2="45.516567"
       y2="93.322433"
       gradientUnits="userSpaceOnUse" />
    <linearGradient
       x1="44.36"
       y1="-20.335"
       x2="45.07"
       gradientUnits="userSpaceOnUse"
       y2="45.913"
       id="linearGradient4340-4">
      <stop
         offset="0"
         style="stop-color:#fff"
         id="stop4336-6" />
      <stop
         offset="1"
         style="stop-color:#fff;stop-opacity:0"
         id="stop4338-1" />
    </linearGradient>
    <filter
       x="-.039940"
       y="-.13085"
       width="1.0799"
       height="1.2617"
       style="color-interpolation-filters:sRGB"
       id="filter4356-3">
      <feGaussianBlur
         stdDeviation="1.1452528"
         id="feGaussianBlur4358-5" />
    </filter>
    <filter
       x="-.061865"
       y="-.079545"
       width="1.1237"
       height="1.1591"
       style="color-interpolation-filters:sRGB"
       id="filter4390-1">
      <feGaussianBlur
         stdDeviation="1.8044006"
         id="feGaussianBlur4392-5" />
    </filter>
    <linearGradient
       inkscape:collect="always"
       xlink:href="#linearGradient18973"
       id="linearGradient4396"
       x1="229.22832"
       y1="31.820383"
       x2="314.22931"
       y2="31.820383"
       gradientUnits="userSpaceOnUse" />
    <linearGradient
       inkscape:collect="always"
       xlink:href="#linearGradient18973"
       id="linearGradient4414"
       gradientUnits="userSpaceOnUse"
       x1="229.22832"
       y1="31.820383"
       x2="314.22931"
       y2="31.820383" />
    <linearGradient
       inkscape:collect="always"
       xlink:href="#linearGradient18973"
       id="linearGradient4416"
       gradientUnits="userSpaceOnUse"
       x1="229.22832"
       y1="31.820383"
       x2="314.22931"
       y2="31.820383" />
  </defs>
  <g
     id="g4235"
     style="fill:url(#linearGradient4244);fill-opacity:1"
     transform="translate(495.45763,-1.6271167)">
    <rect
       x="5"
       y="5"
       width="86"
       height="86"
       transform="matrix(0,1,1,0,0,0)"
       rx="11.577"
       style="opacity:0.1;fill:url(#linearGradient4246);fill-opacity:1"
       id="rect4360" />
  </g>
  <g
     id="g4404">
    <rect
       id="rect4211"
       style="fill:url(#linearGradient4213);fill-opacity:1"
       rx="11.442"
       transform="matrix(0,1,1,0,0,0)"
       height="85"
       width="85"
       y="5.5"
       x="4.2987242" />
    <rect
       height="21.006001"
       x="13.59031"
       y="18.172812"
       width="68.818001"
       style="color:#000000;opacity:0.397;filter:url(#filter4356)"
       id="rect4350" />
    <rect
       id="rect4233"
       style="color:#000000;fill:#e6e6e6;stroke:none;stroke-opacity:1"
       height="21.006001"
       width="68.818001"
       y="17.853416"
       x="13.591" />
    <g
       style="fill:url(#linearGradient4396);fill-opacity:1"
       transform="translate(-223.72881,24.424839)"
       id="g4221">
      <path
         id="path4374"
         d="m 264.79101,3.6981031 -7.2188,11.0739999 -21.656,0 0,33.934 c 0,5.2204 4.2132,9.4336 9.4336,9.4336 l 51.13299,0 c 5.2204,0 9.4336,-4.2132 9.4336,-9.4336 l 0,-45.0079999 -41.12499,0 z"
         style="opacity:0.08900003;fill:url(#linearGradient4414);fill-opacity:1;filter:url(#filter4390)"
         inkscape:connector-curvature="0" />
      <path
         id="path4304"
         style="fill:url(#linearGradient4416);fill-opacity:1"
         d="m 264.29091,-1.233119 -8.7656,13.447 -26.297,0 0,41.205004 c 0,6.3391 5.116,11.455 11.455,11.455 l 62.09,0 c 6.34,0 11.456,-5.116 11.456,-11.455 l 0,-54.652004 -49.938,0 z"
         inkscape:connector-curvature="0" />
    </g>
    <path
       inkscape:connector-curvature="0"
       id="path4225"
       style="fill:url(#linearGradient4227);fill-opacity:1"
       d="m 40.562285,22.057739 -8.7656,13.447 -26.297,0 0,2.3008 26.008,0 8.7656,-13.447 49.938,0 0,54.652 c 0,0.0969 -0.0113,0.1908 -0.0137,0.28711 0.19156,-0.83234 0.30273,-1.6963 0.30273,-2.5879 l 0,-54.652 -49.938,0 z" />
    <path
       inkscape:connector-curvature="0"
       style="opacity:0.13999999;fill:url(#linearGradient4316);fill-opacity:1"
       d="m 5.4435,74.602976 0,5.0663 c 0,6.668 5.3645,12.032 12.032,12.032 l 61.049,0 c 6.668,0 12.032,-5.3645 12.032,-12.032 l 0,-5.0663 c 0,6.6681 -5.3645,12.032 -12.032,12.032 l -61.049,0 c -6.668,0 -12.032,-5.3643 -12.032,-12.032 z"
       id="path64" />
  </g>
  <path
     display="block"
     style="display:block;opacity:0.05;fill:#ffffff"
     d="m -98.325143,-23.473345 c -1.843197,0 -3.339627,1.552588 -3.339627,3.368972 l 0,1.669768 c -0.61778,0.222173 -1.20274,0.480907 -1.78676,0.762139 l -1.1718,-1.201048 a 1.8787235,1.8787235 0 0 0 -0.0293,0 c -1.26835,-1.269294 -3.41603,-1.330228 -4.71626,-0.03 l -4.04271,4.04271 c -1.3006,1.30051 -1.2392,3.447998 0.0293,4.716448 a 1.8787235,1.8787235 0 0 0 0,0.02929 l 1.20104,1.1717996 c -0.28103,0.5837252 -0.53959,1.1693627 -0.76167,1.7869482 l -1.66976,0 c -1.8177,0 -3.3701,1.4970916 -3.3701,3.3400987 l 0,5.68323 c 0,1.8431945 1.55259,3.33963 3.36897,3.33963 l 1.66977,0 c 0.22208,0.6176698 0.48063,1.203298 0.76167,1.7869481 l -1.20105,1.1718 a 1.8787235,1.8787235 0 0 0 0,0.029295 c -1.26836,1.2685438 -1.32985,3.4159374 -0.0293,4.7164484 l 4.04271,4.04271 c 0.69369,0.693705 1.59468,0.973531 2.40219,0.966688 0.84632,-0.0071 1.70173,-0.383469 2.31435,-0.99603 a 1.8787235,1.8787235 0 0 0 0.0293,0 l 1.1718,-1.200861 c 0.58373,0.281035 1.16937,0.539591 1.78695,0.76167 l 0,1.669768 c 0,1.81629 1.49644,3.368972 3.339631,3.368972 l 5.68323,0 c 1.843194,0 3.33963,-1.552588 3.33963,-3.368972 l 0,-1.669768 c 0.619648,-0.221236 1.20461,-0.479969 1.788635,-0.761201 l 1.1718,1.201048 a 1.8787235,1.8787235 0 0 0 0.0293,0 c 1.268544,1.268544 3.416032,1.329759 4.716448,0.02929 l 4.04271,-4.04271 c 1.300605,-1.30051 1.239202,-3.447998 -0.0293,-4.716448 a 1.8787235,1.8787235 0 0 0 0,-0.029295 l -1.20086,-1.1718 c 0.281035,-0.5837252 0.53959,-1.1693627 0.76167,-1.7869482 l 1.669768,0 c 1.817696,0 3.370097,-1.4970917 3.370097,-3.3400987 l 0,-5.68323 c 0,-1.8431945 -1.552588,-3.33963 -3.368972,-3.33963 l -1.669768,0 c -0.222174,-0.617773 -0.480907,-1.2027355 -0.762139,-1.7867606 l 1.201048,-1.1718005 a 1.8787235,1.8787235 0 0 0 0,-0.0293 c 1.269294,-1.268356 1.330228,-3.416031 0.03,-4.71626 l -4.043178,-4.043179 c -1.300511,-1.30051 -3.447905,-1.239296 -4.716449,0.02929 a 1.8787235,1.8787235 0 0 0 -0.0293,0 l -1.1718,1.201798 c -0.584025,-0.281232 -1.168987,-0.539965 -1.78676,-0.762139 l 0,-1.669768 c 0,-1.816758 -1.497092,-3.369159 -3.340099,-3.369159 l -5.68323,0 z m 0,1.87488 5.68323,0 c 0.811636,0 1.46475,0.668535 1.46475,1.494092 l 0,2.900252 c 1.451251,0.386675 2.861817,0.990499 4.130548,1.728452 l 2.05065,-2.079992 c 0.583725,-0.583725 1.505998,-0.603196 2.079992,-0.02929 l 4.04271,4.04271 c 0.57391,0.573919 0.554374,1.496248 -0.0293,2.079992 l -2.081117,2.0501809 c 0.737906,1.2687313 1.341758,2.6792973 1.728452,4.1305481 l 2.900252,0 c 0.82551,0 1.494092,0.6531051 1.494092,1.46475 l 0,5.68323 c 0,0.8116356 -0.668545,1.46475 -1.494092,1.46475 l -2.900252,0 c -0.387163,1.453032 -0.990874,2.8638792 -1.728639,4.1322355 l 2.079992,2.05065 c 0.583725,0.5837255 0.603261,1.5059975 0.0293,2.0799915 l -4.04271,4.04271 c -0.573714,0.572776 -1.496155,0.55309 -2.079242,-0.03 l -2.051119,-2.080179 c -1.268731,0.737906 -2.679297,1.341758 -4.130548,1.728452 l 0,2.900252 c 0,0.824947 -0.653396,1.493342 -1.465219,1.493342 l -5.68323,0 c -0.811645,0 -1.46475,-0.668536 -1.46475,-1.494092 l 0,-2.900252 c -1.451157,-0.386225 -2.862007,-0.989937 -4.130357,-1.727702 l -2.05065,2.079992 c -0.29187,0.291862 -0.64762,0.436228 -1.02538,0.439425 -0.3777,0.0032 -0.76766,-0.12317 -1.05462,-0.41013 l -4.04271,-4.04271 c -0.57277,-0.573713 -0.55308,-1.496154 0.03,-2.0792421 l 2.08018,-2.0511187 c -0.73776,-1.2683563 -1.34147,-2.6792035 -1.7277,-4.1303606 l -2.90025,0 c -0.82589,0 -1.49428,-0.6533957 -1.49428,-1.4652188 l 0,-5.68323 c 0,-0.8116449 0.66853,-1.46475 1.49409,-1.46475 l 2.90025,0 c 0.38623,-1.4511571 0.98994,-2.8620043 1.7277,-4.1303606 l -2.08017,-2.0511192 c -0.58373,-0.583725 -0.60328,-1.505997 -0.0293,-2.079991 l 4.04271,-4.04271 c 0.57391,-0.57392 1.49625,-0.55444 2.07999,0.0293 l 2.05018,2.081116 c 1.26873,-0.737905 2.6793,-1.341757 4.130551,-1.728451 l 0,-2.900252 c 0,-0.824948 0.653396,-1.493342 1.465219,-1.493342 z m 2.841381,14.3840794 c -3.441718,0 -6.239788,2.7980709 -6.239788,6.23978809 0,3.44171721 2.79807,6.23978811 6.239788,6.23978811 3.441717,0 6.239788,-2.7980709 6.239788,-6.23978811 0,-3.44171719 -2.798071,-6.23978809 -6.239788,-6.23978809 z m 0,1.87488 c 2.423563,0 4.364908,1.9413445 4.364908,4.36490809 0,2.42356361 -1.941345,4.36490811 -4.364908,4.36490811 -2.423564,0 -4.364908,-1.9413445 -4.364908,-4.36490811 0,-2.42356359 1.941344,-4.36490809 4.364908,-4.36490809 z"
     id="path75"
     inkscape:connector-curvature="0" />
  <path
     display="block"
     style="display:block;opacity:0.1;fill:#ffffff"
     d="m -98.325143,-22.535905 c -1.326384,0 -2.402187,1.111523 -2.402187,2.431532 l 0,2.28501 c -1.03841,0.328591 -2.04437,0.730238 -2.98809,1.23039 l -1.58146,-1.611459 a 0.93753374,0.93753374 0 0 0 0,-0.0293 c -0.92526,-0.926191 -2.49078,-0.966501 -3.42728,-0.03 l -4.04271,4.04271 c -0.9366,0.936503 -0.89615,2.502028 0.0293,3.427469 a 0.93753374,0.93753374 0 0 0 0.0293,0 l 1.61127,1.5819296 c -0.50015,0.9437208 -0.9018,1.9496877 -1.23039,2.98809 l -2.28501,0 c -1.31804,0 -2.42985,1.0761811 -2.42985,2.4026587 l 0,5.68323 c 0,1.3263838 1.11153,2.40219 2.43153,2.40219 l 2.28501,0 c 0.3286,1.0384023 0.73025,2.0443691 1.23039,2.98809 l -1.61127,1.58193 a 0.93753374,0.93753374 0 0 0 -0.0293,0 c -0.92536,0.9254595 -0.96585,2.4909657 -0.0293,3.4274677 l 4.04271,4.04271 c 0.48994,0.489935 1.13618,0.678782 1.72845,0.673785 0.61156,-0.0052 1.24717,-0.251177 1.69911,-0.70308 a 0.93753374,0.93753374 0 0 0 0,-0.0293 l 1.58193,-1.611271 c 0.94373,0.500152 1.94969,0.901798 2.98809,1.23039 l 0,2.28501 c 0,1.319915 1.075811,2.431531 2.402194,2.431531 l 5.68323,0 c 1.326384,0 2.40219,-1.111522 2.40219,-2.431531 l 0,-2.28501 c 1.038403,-0.328592 2.04437,-0.730238 2.98809,-1.23039 l 1.58193,1.611271 a 0.93753374,0.93753374 0 0 0 0,0.0293 c 0.925469,0.925488 2.49106,0.965751 3.427469,0.02929 l 4.04271,-4.04271 c 0.936596,-0.936502 0.896145,-2.502027 -0.0293,-3.4274677 a 0.93753374,0.93753374 0 0 0 -0.0293,0 l -1.611272,-1.58193 c 0.500143,-0.9437209 0.901798,-1.9496877 1.23039,-2.98809 l 2.28501,0 c 1.31804,0 2.429844,-1.0761811 2.429844,-2.4026587 l 0,-5.68323 c 0,-1.3263839 -1.111522,-2.40219 -2.431532,-2.40219 l -2.28501,0 c -0.328591,-1.0384023 -0.730247,-2.0443692 -1.23039,-2.98809 l 1.611272,-1.5819296 a 0.93753374,0.93753374 0 0 0 0.02929,0 c 0.925253,-0.924316 0.966501,-2.489841 0.03,-3.426344 l -4.043179,-4.043178 c -0.936502,-0.936484 -2.502027,-0.896174 -3.427468,0.0293 a 0.93753374,0.93753374 0 0 0 0,0.02929 l -1.58193,1.611272 c -0.94372,-0.500153 -1.949687,-0.901799 -2.98809,-1.23039 l 0,-2.28501 c 0,-1.318041 -1.076181,-2.429845 -2.402658,-2.429845 l -5.68323,0 z m 0,0.93744 5.68323,0 c 0.811636,0 1.46475,0.668535 1.46475,1.494092 l 0,2.900252 c 1.451251,0.386675 2.861817,0.990499 4.130548,1.728452 l 2.05065,-2.079992 c 0.583725,-0.583725 1.505998,-0.603196 2.079992,-0.02929 l 4.04271,4.04271 c 0.57391,0.573919 0.554374,1.496248 -0.0293,2.079992 l -2.081117,2.0501809 c 0.737906,1.2687313 1.341758,2.6792973 1.728452,4.1305481 l 2.900252,0 c 0.82551,0 1.494092,0.6531051 1.494092,1.46475 l 0,5.68323 c 0,0.8116356 -0.668545,1.46475 -1.494092,1.46475 l -2.900252,0 c -0.387163,1.453032 -0.990874,2.8638792 -1.728639,4.1322355 l 2.079992,2.05065 c 0.583725,0.5837255 0.603261,1.5059975 0.0293,2.0799915 l -4.04271,4.04271 c -0.573714,0.572776 -1.496155,0.55309 -2.079242,-0.03 l -2.051119,-2.080179 c -1.268731,0.737906 -2.679297,1.341758 -4.130548,1.728452 l 0,2.900252 c 0,0.824947 -0.653396,1.493342 -1.465219,1.493342 l -5.68323,0 c -0.811645,0 -1.46475,-0.668536 -1.46475,-1.494092 l 0,-2.900252 c -1.451157,-0.386225 -2.862007,-0.989937 -4.130357,-1.727702 l -2.05065,2.079992 c -0.29187,0.291862 -0.64762,0.436228 -1.02538,0.439425 -0.3777,0.0032 -0.76766,-0.12317 -1.05462,-0.41013 l -4.04271,-4.04271 c -0.57277,-0.573713 -0.55308,-1.496154 0.03,-2.0792421 l 2.08018,-2.0511187 c -0.73776,-1.2683563 -1.34147,-2.6792035 -1.7277,-4.1303606 l -2.90025,0 c -0.82589,0 -1.49428,-0.6533957 -1.49428,-1.4652188 l 0,-5.68323 c 0,-0.8116449 0.66853,-1.46475 1.49409,-1.46475 l 2.90025,0 c 0.38623,-1.4511571 0.98994,-2.8620043 1.7277,-4.1303606 l -2.08017,-2.0511192 c -0.58373,-0.583725 -0.60328,-1.505997 -0.0293,-2.079991 l 4.04271,-4.04271 c 0.57391,-0.57392 1.49625,-0.55444 2.07999,0.0293 l 2.05018,2.081116 c 1.26873,-0.737905 2.6793,-1.341757 4.130551,-1.728451 l 0,-2.900252 c 0,-0.824948 0.653396,-1.493342 1.465219,-1.493342 z m 2.841381,14.3840794 c -3.441718,0 -6.239788,2.7980709 -6.239788,6.23978809 0,3.44171721 2.79807,6.23978811 6.239788,6.23978811 3.441717,0 6.239788,-2.7980709 6.239788,-6.23978811 0,-3.44171719 -2.798071,-6.23978809 -6.239788,-6.23978809 z m 0,0.93744 c 2.933624,0 5.302348,2.3687234 5.302348,5.30234809 0,2.93362471 -2.368724,5.30234811 -5.302348,5.30234811 -2.933625,0 -5.302348,-2.3687234 -5.302348,-5.30234811 0,-2.93362469 2.368723,-5.30234809 5.302348,-5.30234809 z"
     id="path77"
     inkscape:connector-curvature="0" />
  <path
     display="block"
     style="display:block;opacity:1;fill:#ffffff;fill-opacity:0.627451"
     d="m 57.325032,78.330988 c -0.811645,0 -1.468875,-0.673298 -1.468875,-1.498779 l 0,-2.907658 c -1.45116,-0.386225 -2.83763,-0.97025 -4.10599,-1.708953 l -2.06836,2.068368 c -0.29187,0.291862 -0.64149,0.446446 -1.01919,0.449643 -0.3777,0.0032 -0.76221,-0.132714 -1.04918,-0.419664 l -4.04693,-4.045991 c -0.57391,-0.573919 -0.55375,-1.484624 0.0299,-2.068368 l 2.06837,-2.068368 c -0.73791,-1.268731 -1.32198,-2.655486 -1.70867,-4.106737 l -2.90766,0 c -0.82551,0 -1.49878,-0.657192 -1.49878,-1.468875 l 0,-5.69551 c 0,-0.811645 0.6733,-1.468875 1.49878,-1.468875 l 2.90766,0 c 0.38668,-1.451251 0.97072,-2.838006 1.70867,-4.106737 l -2.06837,-2.068367 c -0.58496,-0.583088 -0.60465,-1.494279 -0.0309,-2.067993 l 4.04683,-4.046741 c 0.57391,-0.573919 1.48463,-0.553745 2.06837,0.02999 l 2.06837,2.068368 c 1.26873,-0.737906 2.65548,-1.321978 4.106735,-1.708672 l 0,-2.907658 c 0,-0.82551 0.657192,-1.498779 1.468874,-1.498779 l 5.695511,0 c 0.811635,0 1.468875,0.673298 1.468875,1.498779 l 0,2.907658 c 1.45125,0.386675 2.838005,0.970719 4.106737,1.708672 l 2.068367,-2.068368 c 0.583725,-0.583725 1.494467,-0.603889 2.068368,-0.02999 l 4.046741,4.046741 c 0.57391,0.57392 0.553746,1.484624 -0.02992,2.068368 l -2.068368,2.068367 c 0.737906,1.268731 1.321978,2.655486 1.708672,4.106737 l 2.907658,0 c 0.825509,0 1.498779,0.657193 1.498779,1.468875 l 0,5.69551 c 0,0.811636 -0.673307,1.468875 -1.498779,1.468875 l -2.907658,0 c -0.386675,1.451251 -0.970719,2.838006 -1.708672,4.106737 l 2.068368,2.068368 c 0.583725,0.583726 0.603899,1.494467 0.02992,2.068368 l -4.046741,4.046741 c -0.57392,0.57392 -1.484624,0.553746 -2.068368,-0.02999 l -2.068367,-2.068367 c -1.269294,0.737765 -2.655768,1.32179 -4.106925,1.708015 l 0,2.907658 c 0,0.82551 -0.657192,1.498779 -1.468875,1.498779 l -5.69551,0 z m 2.847755,-14.388767 c 3.441717,0 6.235007,-2.79329 6.235007,-6.235007 0,-3.441717 -2.79329,-6.235007 -6.235007,-6.235007 -3.441717,0 -6.23501,2.79329 -6.23501,6.235007 0,3.441717 2.793293,6.235007 6.23501,6.235007 z"
     id="path79-0"
     inkscape:connector-curvature="0" />
</svg>
