<?xml version="1.0" encoding="UTF-8" standalone="no"?>
<svg xmlns="http://www.w3.org/2000/svg" height="96" width="96" xmlns:xlink="http://www.w3.org/1999/xlink">
 <defs>
  <clipPath id="clipPath3613-55">
   <rect y="6" x="6" rx="6" width="84" height="84"/>
  </clipPath>
  <filter id="filter3794-41" color-interpolation-filters="sRGB" width="1.384" y="-.192" x="-.192" height="1.384">
   <feGaussianBlur stdDeviation="5.28"/>
  </filter>
  <linearGradient id="linearGradient90466" x2="0" y1="20.221" y2="138.66" gradientUnits="userSpaceOnUse">
   <stop stop-color="#fff" offset="0"/>
   <stop stop-color="#fff" stop-opacity="0" offset="1"/>
  </linearGradient>
  <linearGradient id="linearGradient3339">
   <stop stop-color="#4f4f4f" offset="0"/>
   <stop stop-color="#a2a2a2" offset="1"/>
  </linearGradient>
  <linearGradient id="linearGradient5892">
   <stop stop-color="#333" offset="0"/>
   <stop stop-color="#424242" offset="1"/>
  </linearGradient>
  <linearGradient id="linearGradient3175" gradientUnits="userSpaceOnUse" y1="92.54" gradientTransform="scale(1.0059 .99417)" x2="0" y2="7.02">
   <stop offset="0"/>
   <stop stop-opacity="0" offset="1"/>
  </linearGradient>
  <linearGradient id="linearGradient6151">
   <stop stop-color="#5b5b5b" offset="0"/>
   <stop stop-color="#0a0a0a" offset="1"/>
  </linearGradient>
  <filter id="filter6045-2" color-interpolation-filters="sRGB">
   <feGaussianBlur stdDeviation="0.19031"/>
  </filter>
  <filter id="filter6036-5" color-interpolation-filters="sRGB">
   <feGaussianBlur stdDeviation="0.285"/>
  </filter>
  <radialGradient id="radialGradient3275" cx="34.521" xlink:href="#linearGradient90466" gradientUnits="userSpaceOnUse" cy="45" r="27" gradientTransform="matrix(1.5571 0 0 .6629 -22.411 1.53)"/>
  <radialGradient id="radialGradient3271" gradientUnits="userSpaceOnUse" cy="-.562" cx="77.2" gradientTransform="matrix(-1.9505 0 0 -.46938 224.41 16.05)" r="21">
   <stop stop-color="#6262ea" offset="0"/>
   <stop stop-color="#4b28d9" offset="1"/>
  </radialGradient>
  <linearGradient id="linearGradient6065" x2="42.851" gradientUnits="userSpaceOnUse" x1="36.925">
   <stop stop-opacity=".426" offset="0"/>
   <stop stop-color="#fff" stop-opacity=".317" offset="1"/>
  </linearGradient>
  <linearGradient id="linearGradient6157-2" x2="43.21" gradientUnits="userSpaceOnUse" x1="34.571" xlink:href="#linearGradient6151"/>
  <linearGradient id="linearGradient6149-5" x2="43.643" gradientUnits="userSpaceOnUse" x1="34.14">
   <stop stop-color="#747474" offset="0"/>
   <stop offset="1"/>
  </linearGradient>
  <linearGradient id="linearGradient6214-2" x2="43.42" gradientUnits="userSpaceOnUse" x1="34.37" xlink:href="#linearGradient6151"/>
  <linearGradient id="linearGradient5699" x2="48" gradientUnits="userSpaceOnUse" x1="30">
   <stop stop-color="#1a1a1a" offset="0"/>
   <stop stop-color="#1a1a1a" offset=".251"/>
   <stop stop-color="#cdff01" offset=".501"/>
   <stop stop-color="#1a1a1a" offset=".75"/>
   <stop stop-color="#1a1a1a" offset="1"/>
  </linearGradient>
  <linearGradient id="linearGradient5703" xlink:href="#linearGradient3339" gradientUnits="userSpaceOnUse" y1="34" x2="0" y2="32"/>
  <linearGradient id="linearGradient5705" gradientUnits="userSpaceOnUse" y1="72" x2="0" y2="82.01">
   <stop stop-color="#333" offset="0"/>
   <stop stop-color="#333" offset=".431"/>
   <stop offset=".555"/>
   <stop offset="1"/>
  </linearGradient>
  <linearGradient id="linearGradient5707" xlink:href="#linearGradient5892" gradientUnits="userSpaceOnUse" y1="73" x2="0" y2="83.04"/>
  <linearGradient id="linearGradient5709" xlink:href="#linearGradient3175" gradientUnits="userSpaceOnUse" x2="34" x1="33"/>
  <linearGradient id="linearGradient5712" xlink:href="#linearGradient3175" gradientUnits="userSpaceOnUse" gradientTransform="translate(-78)" x2="34" x1="33"/>
  <linearGradient id="linearGradient5714" xlink:href="#linearGradient3339" gradientUnits="userSpaceOnUse" y1="34" gradientTransform="translate(0 4)" x2="0" y2="32"/>
  <linearGradient id="linearGradient5716" gradientUnits="userSpaceOnUse" y1="34" gradientTransform="matrix(1 0 0 .91071 0 9.929)" x2="0" y2="32">
   <stop offset="0"/>
   <stop stop-color="#656565" offset=".5"/>
   <stop offset="1"/>
  </linearGradient>
  <linearGradient id="linearGradient5718" xlink:href="#linearGradient5892" gradientUnits="userSpaceOnUse" y1="72" x2="0" y2="42"/>
  <linearGradient id="linearGradient5720" xlink:href="#linearGradient3175" gradientUnits="userSpaceOnUse" gradientTransform="matrix(2 0 0 1.3333 6 -141)" x2="34" x1="33"/>
  <linearGradient id="linearGradient5724" x2="43.643" gradientUnits="userSpaceOnUse" x1="34.14">
   <stop stop-color="#fff" offset="0"/>
   <stop stop-color="#7c7c7c" offset="1"/>
  </linearGradient>
  <linearGradient id="linearGradient5740" x2="90.5" gradientUnits="userSpaceOnUse" x1="5.437">
   <stop stop-color="#828282" offset="0"/>
   <stop stop-color="#5a5a5a" offset="1"/>
  </linearGradient>
  <rect id="SVGCleanerId_0" y="10.483" x="31.34" width="48.613" height="20.877"/>
  <path id="SVGCleanerId_1" d="m38.512 27.246a1.1364 1.0733 0 1 1 -2.2728 0 1.1364 1.0733 0 1 1 2.2728 0z"/>
  <path id="SVGCleanerId_2" d="m42.851 48a3.9597 3.9597 0 1 1 -7.9194 0 3.9597 3.9597 0 1 1 7.9194 0z"/>
  <rect id="SVGCleanerId_3" height="2" width="18" y="30" x="30" fill="url(#linearGradient5699)"/>
 </defs>
 <rect fill-opacity=".039" rx="12.552" height="88.76" width="88.76" y="3.6" x="3.608"/>
 <rect fill-opacity=".078" rx="12.38" height="87.55" width="87.55" y="4.21" x="4.216"/>
 <rect fill-opacity=".157" rx="12.208" height="86.33" width="86.33" y="4.82" x="4.824"/>
 <path opacity=".9" d="m17.469 5.4062c-6.668 0-12.032 5.3948-12.032 12.063l0.0005 61.031c0 5.418 3.5332 9.982 8.4375 11.5h68.187c4.715-1.457 8.172-5.734 8.438-10.875v-62.281c-0.321-6.377-5.54-11.438-12-11.438l-61.031 0.0002z" fill="url(#linearGradient5740)"/>
 <path d="m5.4316 73.44v5.0663c0 6.668 5.3645 12.032 12.032 12.032h61.049c6.668 0 12.032-5.3645 12.032-12.032v-5.0663c0 6.6681-5.3645 12.032-12.032 12.032h-61.049c-6.668 0-12.032-5.3643-12.032-12.032z" fill-opacity=".235"/>
 <path d="m5.4316 77.54v1.0133c0 6.668 5.3645 12.032 12.032 12.032h61.049c6.668 0 12.032-5.3645 12.032-12.032v-1.0133c0 6.6681-5.3645 12.032-12.032 12.032h-61.049c-6.668 0-12.032-5.3644-12.032-12.032z" fill-opacity=".098"/>
 <rect opacity=".3" clip-path="url(#clipPath3613-55)" rx="12" transform="translate(-.5 -2.5)" height="66" filter="url(#filter3794-41)" width="66" stroke="#fff" stroke-linecap="round" y="15" x="15" stroke-width=".5" fill="url(#linearGradient90466)"/>
 <g transform="matrix(.90024 0 0 .86988 4.331 5.264)">
  <use xlink:href="#SVGCleanerId_2" transform="matrix(0 1.7678 -1.7678 0 102.85 9.249)" fill="url(#linearGradient6065)"/>
  <use xlink:href="#SVGCleanerId_2" transform="matrix(0 1.389 -1.389 0 84.67 23.981)" stroke="#000000" stroke-linecap="square" stroke-width=".72" fill="url(#linearGradient6157-2)"/>
  <use xlink:href="#SVGCleanerId_2" transform="matrix(0 1.1996 -1.1996 0 75.58 31.347)" stroke="url(#linearGradient6149-5)" stroke-linecap="square" stroke-width=".417" fill="none"/>
  <text font-size="3" font-stretch="semi-condensed" y="70" x="13.788" font-family="DejaVu Sans" line-height="120.00000477%" fill="#666666">
   <tspan y="70" x="13.788">Power</tspan>
  </text>
  <use xlink:href="#SVGCleanerId_2" transform="matrix(0 1.2627 -1.2627 0 78.61 10.892)" fill="url(#linearGradient6065)"/>
  <use xlink:href="#SVGCleanerId_2" transform="matrix(0 .88389 -.88389 0 60.43 25.624)" stroke="#000000" stroke-linecap="square" stroke-width="1.131" fill="url(#linearGradient6214-2)"/>
  <use xlink:href="#SVGCleanerId_2" transform="matrix(0 .69448 -.69448 0 51.33 32.99)" stroke="url(#linearGradient6149-5)" stroke-linecap="square" stroke-width=".72" fill="none"/>
  <text font-size="3" font-stretch="semi-condensed" y="54" x="14.13" font-family="DejaVu Sans" line-height="120.00000477%" fill="#666666">
   <tspan y="54" x="14.13">Reset</tspan>
  </text>
  <text font-size="2" font-family="DejaVu Sans" font-stretch="semi-condensed" y="18.976" x="9.849" font-weight="bold" line-height="120.00000477%" fill="#666666">
   <tspan y="18.976" x="9.849">Icon Server</tspan>
  </text>
 </g>
 <use xlink:href="#SVGCleanerId_0" fill="#2e2e2e"/>
 <rect y="10.483" x="30.438" opacity=".3" width=".9" height="73.07"/>
 <rect y="10.483" x="79.951" opacity=".3" width=".9" height="73.07"/>
 <rect height="9.569" width="36.91" stroke="#2f2485" stroke-linecap="square" y="16.14" x="37.19" stroke-width=".885" fill="url(#radialGradient3271)"/>
 <use opacity=".3" xlink:href="#SVGCleanerId_0" fill="url(#radialGradient3275)"/>
 <path d="m41.391 17.464c-0.13639 0.24293 0.04159 0.41454 0.33875 0.3262 0.20369 0.0711-0.01442 0.45443 0.02697 0.65241-0.0075 0.26469-0.06877 0.54635-0.05626 0.8427-0.0239 0.22763-0.0094 0.56234-0.39619 0.43494-0.24431-0.05716-0.18603 0.44696 0.08673 0.29902 0.32732-0.01899 0.73258 0.03734 1.0128-0.02718 0.16138-0.33992-0.1825-0.27655-0.42432-0.27184-0.0036-0.173 0.0292-0.50356 0.0586-0.67959 0.02757-0.44074 0.07019-0.83035 0.11253-1.2505 0.2453 0.000286 0.55705 0.07472 0.47825-0.27184-0.13355-0.12467-0.50447-0.01997-0.73145-0.05437h-0.50639zm9.7901 0c0.04564 0.31284-0.35345 0.14378-0.30946 0.46212-0.0026 0.25079-0.03883 0.46566-0.05627 0.73396 0.29971-0.06307 0.12117 0.33598 0.45012 0.24465h0.90024c0.01193 0.27429-0.07973 0.5399-0.05626 0.81551-0.37443 0.01877-0.82564-0.03665-1.1534 0.02718-0.16689 0.35232 0.20655 0.27098 0.45012 0.27184 0.24409-0.01786 0.562 0.03562 0.75958-0.02718-0.02441-0.2996 0.40202-0.10185 0.28133-0.48931 0.03681-0.24061 0.04692-0.42351 0.05627-0.65241-0.29971 0.06308-0.12117-0.33598-0.45012-0.24465h-0.90024c-0.01908-0.27546 0.08052-0.53956 0.05626-0.81551 0.38459-0.01802 0.84286 0.03517 1.1816-0.02718 0.11239-0.34494-0.16226-0.3159-0.42432-0.29902h-0.78538zm2.1662 0c0.04564 0.31284-0.35345 0.14378-0.30946 0.46212-0.0026 0.25079-0.03883 0.46566-0.05626 0.73396 0.35143 0.03534 0.17295 0.16646-0.02813 0.21747-0.01341 0.28175-0.05449 0.58615-0.0844 0.89702 0.29971-0.06307 0.12117 0.33598 0.45012 0.24465 0.32738-0.01892 0.73174 0.03653 1.0128-0.02718 0.16138-0.33992-0.1825-0.27655-0.42432-0.27184h-0.70098c0.03037-0.24407 0.02979-0.58341 0.0844-0.81551 0.37605-0.01721 0.82418 0.03524 1.1534-0.02718 0.1078-0.33144-0.18183-0.27886-0.42432-0.27184-0.21944-0.03386-0.61173 0.06921-0.71785-0.05441 0.04348-0.2681 0.05407-0.51786 0.07314-0.76109 0.37422-0.01897 0.8255 0.03651 1.1534-0.02718 0.17167-0.37011-0.18617-0.30654-0.45012-0.29902h-0.73145zm2.1662 0c0.01792 0.2894-0.39856 0.12642-0.30946 0.48931-0.005 0.2282-0.04004 0.43114-0.05627 0.67959 0.38975 0.05688 0.109 0.13367-0.02813 0.24465 0.02939 0.2923-0.12406 0.64744-0.02813 0.89702 0.32611 0.09727 0.287-0.15838 0.30946-0.35451 0.03373-0.21187-0.05103-0.60624 0.28132-0.51537 0.33068-0.07412 0.40502 0.09944 0.42199 0.32846 0.0317 0.17703 0.11293 0.30621 0.11253 0.51424 0.175 0.13584 0.44645-0.05779 0.30946-0.24465-0.02316-0.14736-0.10409-0.24284-0.0844-0.43494-0.27793-0.18739 0.34803-0.085 0.1688-0.40776 0.34576 0.09851 0.24654-0.23296 0.28132-0.43494-0.02464-0.20836 0.22003-0.64378-0.1688-0.54367 0.10248-0.36216-0.37014-0.16864-0.59195-0.21747h-0.61776zm4.3042 0c0.07744 0.31947-0.37132 0.13051-0.28133 0.46212-0.02643 0.26927-0.05301 0.47769-0.05626 0.73396 0.33934 0.02769 0.15638 0.16335-0.02813 0.21747-0.04906 0.31803-0.04684 0.57261-0.0844 0.89702 0.29971-0.06307 0.12117 0.33598 0.45012 0.24465 0.32921-0.01715 0.73093 0.03575 1.0128-0.02718 0.1078-0.33144-0.18183-0.27886-0.42432-0.27184-0.21728-0.03432-0.57949 0.07138-0.70098-0.05549-0.0093-0.25602 0.08043-0.50257 0.05627-0.76002 0.37422-0.01897 0.8255 0.03651 1.1534-0.02718 0.1551-0.32584-0.15778-0.28173-0.39619-0.27184-0.21876-0.03439-0.61044 0.06818-0.71785-0.05441 0.03399-0.27341 0.03054-0.48309 0.07314-0.76109 0.37514-0.01808 0.82591 0.03691 1.1534-0.02718 0.16533-0.35688-0.16244-0.31192-0.42432-0.29902h-0.78538zm2.1662 0c0.05399 0.29292-0.34867 0.12023-0.28133 0.46212-0.01575 0.2225-0.06839 0.52987-0.02813 0.70678 0.42277 0.09356-0.0655 0.09783-0.05627 0.30014-0.02176 0.244-0.05519 0.53691-0.0844 0.81439 0.24109 0.12274 0.41384-0.0214 0.34885-0.29906 0.09864-0.19151-0.09282-0.62703 0.24193-0.54362 0.26908-0.02336 0.45225-0.02198 0.42199 0.21747 0.05326 0.11341 0.06803 0.27225 0.11253 0.40776-0.01024 0.14126 0.10137 0.36428 0.33759 0.21747 0.06714-0.14866-0.0082-0.38972-0.0844-0.48931-0.06473-0.28408-0.04928-0.34318 0.19693-0.40776-0.02727-0.28814 0.3932-0.11474 0.26446-0.51653 0.0074-0.20046 0.12382-0.53807-0.01126-0.65236-0.26177 0.03743-0.04016-0.36742-0.45012-0.21747h-0.92833zm-23.012 0.24465c-0.03579 0.26852-0.09243 0.6381-0.0844 0.95147 0.19739 0.11422 0.40498-0.01772 0.33759-0.27184-0.0053-0.19601 0.0836-0.47648 0.02813-0.65241-0.01365-0.06539-0.21409-0.0094-0.28133-0.02718zm4.3606 0c-0.08291 0.2078-0.06278 0.47286-0.0844 0.70678-0.18015 0.27276 0.19762 0.3626 0.30946 0.21747-0.04862-0.23567 0.09849-0.66579 0.0844-0.19029 0.02051 0.15146 0.14061 0.35222 0.36572 0.21747 0.06596-0.25258-0.04326-0.32739-0.05627-0.51649-0.14184-0.08919-0.01759-0.34684-0.14066-0.43494h-0.47825zm1.3785 0c-0.06558 0.26062-0.06475 0.62355-0.11253 0.95147 0.22541 0.12477 0.40177-0.02791 0.36572-0.24465-0.0444-0.22925 0.10067-0.52398 0.02813-0.70678h-0.28132zm0.78771 0c-0.06611 0.26101-0.0632 0.62369-0.11253 0.95147 0.22541 0.12477 0.40177-0.02791 0.36572-0.24465-0.04139-0.22071 0.12149-0.57526-0.02813-0.70678h-0.22506zm1.3785 0c-0.03579 0.26852-0.09243 0.6381-0.0844 0.95147 0.19739 0.11422 0.40498-0.01772 0.33759-0.27184-0.0053-0.19601 0.0836-0.47648 0.02813-0.65241-0.02592-0.06716-0.20247-0.0084-0.28133-0.02718zm1.0409 0c-0.1427 0.2048 0.05081 0.28881 0 0.48931 0.09233 0.09723 0.09289 0.27902 0.11253 0.43494 0.13406 0.15495 0.47744 0.04175 0.33759-0.24465-0.11265-0.09956-0.04783-0.3706-0.1688-0.46212 0.043-0.24971-0.0568-0.22718-0.28133-0.21747zm0.90024 0c-0.03602 0.16204-0.10167 0.33248-0.19693 0.46212-0.02409 0.15741-0.19305 0.31977-0.0844 0.51649 0.32888 0.09139 0.31316-0.1876 0.3846-0.38131 0.09044-0.15826 0.1363-0.28617 0.20617-0.48857 0.03507-0.17413-0.18324-0.08968-0.30946-0.10874zm8.6086 0c-0.11207 0.26298-0.06531 0.64245-0.11253 0.95147 0.24467 0.13756 0.38575-0.06658 0.34885-0.32626 0.0018-0.22558 0.08375-0.4473 0.01687-0.62518h-0.25319zm1.1534 0c-0.06839 0.16774-0.13164 0.3214-0.19693 0.46212-0.05329 0.13245-0.25472 0.37802-0.0844 0.51649 0.29583 0.07654 0.30532-0.19638 0.36572-0.35451 0.02572-0.18976 0.2108-0.29516 0.19693-0.51761 0.03338-0.16235-0.16052-0.09274-0.28133-0.10648zm-3.0383 0.08155h1.069c-0.0292 0.23602-0.03595 0.52057-0.0844 0.78833h-1.0409c-0.01331-0.26523 0.07701-0.52195 0.05627-0.78833zm6.4987 0h1.069c-0.05761 0.28059-0.03381 0.50272-0.0844 0.78833h-1.069c0.06357-0.27098 0.06019-0.54119 0.0844-0.78833zm-23.153 1.033c-0.09471 0.25637-0.04904 0.55342-0.10692 0.84279 0.01509 0.18858 0.27936 0.16348 0.27572 0.38048 0.38536-0.01727 0.84295 0.03526 1.1816-0.02718 0.11239-0.34494-0.16226-0.3159-0.42432-0.29902-0.21778-0.0335-0.61512 0.06847-0.71519-0.05384 0.04332-0.29215 0.06199-0.53941 0.07047-0.81604-0.05397-0.04722-0.1837-0.02163-0.28133-0.02718zm4.3324 0c-0.04099 0.2671-0.09219 0.63918-0.0844 0.95147 0.22391 0.12933 0.36238-0.04656 0.33759-0.24465-0.0444-0.22925 0.10067-0.52398 0.02813-0.70678h-0.28132zm0.92833 0c-0.08524 0.17057 0.03281 0.36324 0.05626 0.51649 0.09692 0.13326-0.02498 0.47795 0.22622 0.46212 0.26053 0.03038 0.49168 0.02058 0.42083-0.29902 0.03681-0.24061 0.04692-0.42351 0.05627-0.65241-0.24109-0.12274-0.41384 0.0214-0.34885 0.29906-0.04147 0.2609-0.09152-0.18126-0.10127-0.2447 0.01846-0.1384-0.20181-0.0632-0.30946-0.08155zm1.2378 0c-0.0572 0.2244-0.04023 0.58629-0.0844 0.81663-0.01226 0.24489 0.295 0.12929 0.22506 0.40663 0.40377-0.01761 0.88018 0.03498 1.2378-0.02718-0.1032-0.34437 0.40866-0.09442 0.25319-0.48931 0.01751-0.21731 0.1359-0.57483 0-0.70678-0.36019-0.11015-0.2619 0.29268-0.30946 0.51649 0.02228 0.26693-0.03402 0.45794-0.36806 0.38057-0.20656-0.05641-0.72353 0.12137-0.70126-0.10767 0.01353-0.24134 0.06919-0.56736 0.02841-0.7622-0.01365-0.06539-0.21409-0.0094-0.28133-0.02718zm2.6445 0c-0.03602 0.16204-0.10167 0.33248-0.19693 0.46212-0.0077 0.15704-0.21375 0.32498-0.11253 0.51649 0.34347 0.11442 0.27907-0.16529 0.39386-0.27184 0.06024-0.22082 0.12607-0.33805 0.20819-0.51653 0.09082-0.24799-0.10274-0.18563-0.29259-0.19024zm0.47825 0c-0.1427 0.2048 0.05081 0.28881 0 0.48931 0.09233 0.09723 0.09289 0.27902 0.11253 0.43494 0.13406 0.15495 0.47744 0.04175 0.33759-0.24465-0.11265-0.09956-0.04783-0.3706-0.1688-0.46212 0.043-0.24971-0.0568-0.22718-0.28133-0.21747zm8.8055 0c-0.06558 0.26062-0.06475 0.62355-0.11253 0.95147 0.12403 0.0093 0.56483 0.12674 0.5721-0.08193 0.05226-0.21888 0.17566-0.33943 0.21562-0.57048 0.18262-0.13379 0.0674-0.42025-0.22506-0.29902-0.04633 0.16364-0.0944 0.3256-0.1688 0.46212-0.04633-0.13777 0.1328-0.58036-0.22506-0.46212h-0.02813-0.02813zm-15.81 2.8271c0.06939 0.3117-0.40332 0.09959-0.28133 0.46212 0.0014 0.22616-0.1449 0.59225 0 0.73396 0.27967-0.04222 0.01752 0.40732 0.45012 0.24465h0.84398c-0.05589 0.28174-0.03406 0.50265-0.0844 0.78833-0.37605 0.01721-0.82418-0.03524-1.1534 0.02718-0.11239 0.34494 0.16226 0.3159 0.42432 0.29902 0.26199-0.01794 0.59846 0.03611 0.81351-0.02718-0.1032-0.34437 0.40866-0.09443 0.25319-0.48931 0.01921-0.21643 0.13588-0.57389 0-0.70678-0.44655-0.09038 0.19922-0.07524 0.11253-0.3262 0.01187-0.2521 0.07263-0.58046 0.02813-0.78833-0.31299 0.07591-0.09463-0.36162-0.47825-0.21747h-0.92833zm2.1662 0c-0.13639 0.24293 0.04159 0.41454 0.33875 0.3262h0.78655c-0.05589 0.28174-0.03406 0.50265-0.0844 0.78833-0.37553 0.01771-0.82575-0.03675-1.1534 0.02718-0.0257 0.26084-0.3646 0.15845-0.28133 0.48931 0.05763 0.21333-0.14203 0.55701 0 0.67959 0.27953-0.03451 0.07742 0.39637 0.47825 0.24465 0.2994-0.01878 0.67526 0.03633 0.92833-0.02718 0.16533-0.35688-0.16244-0.31192-0.42432-0.29902-0.21728-0.03432-0.57949 0.07138-0.70098-0.05549-0.0036-0.24642 0.07974-0.48451 0.05627-0.73284 0.38494-0.01768 0.84326 0.03554 1.1816-0.02718-0.1032-0.34437 0.40866-0.09443 0.25319-0.48931 0.01921-0.21643 0.13588-0.57389 0-0.70678-0.26177 0.03743-0.04017-0.36742-0.45012-0.21747h-0.92833zm5.0358 0c0.01792 0.2894-0.39856 0.12642-0.30946 0.48931 0.01948 0.21691-0.08812 0.4882-0.02813 0.67959 0.42277 0.09356-0.0655 0.09783-0.05626 0.30014-0.02176 0.244-0.05519 0.53691-0.0844 0.81439 0.31884-0.07249 0.10302 0.37163 0.45012 0.27184 0.32738-0.01892 0.73174 0.03653 1.0128-0.02718-0.05845-0.32972 0.38874-0.11583 0.28132-0.48931 0.0094-0.22324 0.04118-0.43171 0.05627-0.67959-0.29971 0.06307-0.12117-0.33598-0.45012-0.24465h-0.92833c0.06303-0.27312 0.06006-0.53837 0.0844-0.78833 0.37422-0.01897 0.8255 0.03651 1.1534-0.02718 0.17167-0.37011-0.18617-0.30654-0.45012-0.29902h-0.73145zm2.1662 0c0.01791 0.2894-0.39856 0.12642-0.30946 0.48931 0.01948 0.21691-0.08813 0.4882-0.02813 0.67959 0.44113 0.10868-0.05564 0.09034-0.05626 0.30014 0.01742 0.27313-0.12132 0.61033-0.02813 0.84157 0.33621-0.08815 0.0156 0.40596 0.45012 0.24465 0.30901-0.01856 0.69392 0.03623 0.95651-0.02718-0.05845-0.32972 0.38874-0.11583 0.28133-0.48931 0.0371-0.2504 0.04972-0.43787 0.05626-0.67959-0.38975-0.05688-0.109-0.13367 0.02813-0.24465 0.01611-0.26835 0.05933-0.56948 0.0844-0.86988-0.29971 0.06307-0.12117-0.33598-0.45012-0.24465h-0.98468zm5.0076 0c0.08504 0.30945-0.36626 0.10065-0.28133 0.41001-0.0327 0.21405-0.05365 0.50691-0.0844 0.75889 0.22541 0.12477 0.40177-0.02791 0.36572-0.24465 0.05824-0.18527-0.0927-0.62604 0.17113-0.59804h0.92608c0.02363 0.28359-0.12282 0.62882-0.02813 0.86988 0.32126 0.1024 0.32708-0.17592 0.30946-0.41001 0.0036-0.13219 0.11909-0.48565 0-0.5686-0.26312 0.02772-0.10037-0.35608-0.47825-0.21747h-0.90024zm2.1662 0c0.06939 0.3117-0.40332 0.09959-0.28132 0.46212-0.02628 0.2592-0.04994 0.4634-0.05627 0.70678 0.19739 0.11422 0.40498-0.01772 0.33759-0.27184 0.06799-0.17744-0.09009-0.61017 0.22506-0.57086h0.87211c-0.000217 0.30293-0.05657 0.5634-0.05626 0.8427 0.22583 0.12796 0.38826-0.04496 0.34885-0.29906 0.003-0.23427 0.08524-0.46276 0.01687-0.65236-0.31299 0.07591-0.09463-0.36162-0.47825-0.21747h-0.92833zm2.757 0c-0.13639 0.24293 0.04159 0.41454 0.33875 0.3262h0.78655c-0.05589 0.28174-0.03406 0.50265-0.0844 0.78833-0.37553 0.01771-0.82575-0.03675-1.1534 0.02718-0.0257 0.26084-0.3646 0.15845-0.28133 0.48931 0.05763 0.21333-0.14203 0.55701 0 0.67959 0.27954-0.03451 0.07742 0.39637 0.47825 0.24465 0.2994-0.01878 0.67526 0.03633 0.92833-0.02718 0.16533-0.35688-0.16244-0.31192-0.42432-0.29902-0.21728-0.03432-0.57949 0.07138-0.70098-0.05549-0.0036-0.24642 0.07974-0.48451 0.05627-0.73284 0.38494-0.01768 0.84326 0.03554 1.1816-0.02718-0.1032-0.34437 0.40866-0.09443 0.25319-0.48931 0.01921-0.21643 0.13588-0.57389 0-0.70678-0.26177 0.03743-0.04016-0.36742-0.45012-0.21747h-0.92833zm2.1943 0c0.01791 0.2894-0.39856 0.12642-0.30946 0.48931 0.01949 0.21691-0.08812 0.4882-0.02813 0.67959 0.28826 0.1585 0.34604-0.09986 0.33198-0.35348 0.07506-0.19713-0.0891-0.59308 0.2588-0.48921h0.84398c-0.01541 0.26061-0.05646 0.55153-0.0844 0.8427 0.22541 0.12477 0.40177-0.02791 0.36572-0.24465-0.03797-0.22944 0.1023-0.52325 0.02813-0.70678-0.31299 0.07591-0.09463-0.36162-0.47825-0.21747h-0.92833zm2.1662 0c0.08504 0.30945-0.36626 0.10065-0.28133 0.41001-0.0327 0.21405-0.05365 0.50691-0.0844 0.75889 0.22541 0.12477 0.40177-0.02791 0.36572-0.24465 0.05824-0.18527-0.0927-0.62604 0.17113-0.59804h0.92608c0.02359 0.28359-0.12282 0.62882-0.02809 0.86988 0.32126 0.1024 0.32708-0.17592 0.30946-0.41001 0.0036-0.13219 0.11909-0.48565 0-0.5686-0.26312 0.02772-0.10037-0.35608-0.47825-0.21747h-0.90024zm-24.701 0.21747c-0.06094 0.26483-0.06519 0.62206-0.11253 0.95147 0.19983 0.10977 0.44192 0.00069 0.36572-0.27184-0.05121-0.21228 0.14362-0.55784 0-0.67959h-0.25319zm7.2019 0c-0.07981 0.20701-0.05948 0.47857-0.0844 0.70678-0.18015 0.27276 0.19762 0.3626 0.30946 0.21747-0.02671-0.30266 0.12478-0.66376 0.02813-0.92425h-0.25319zm7.1739 0c-0.06094 0.26483-0.06519 0.62206-0.11253 0.95147 0.19983 0.10977 0.44192 0.00069 0.36572-0.27184-0.05121-0.21228 0.14362-0.55784 0-0.67959h-0.25319zm-13.279 0.10874h1.0409c-0.0014 0.28001-0.04801 0.53699-0.05626 0.78833h-1.069c0.05863-0.27882 0.03055-0.50561 0.0844-0.78833zm9.34 0h1.069c-0.02017 0.24477-0.04138 0.5151-0.0844 0.78833h-1.0409c-0.01469-0.266 0.08076-0.52134 0.05627-0.78833zm-10.55 1.0058c-0.0572 0.2244-0.04023 0.58629-0.0844 0.81663-0.09042 0.2532 0.42101 0.22729 0.33759-0.0283 0.01187-0.2521 0.07263-0.58046 0.02813-0.78833h-0.28133zm7.2019 0c-0.05482 0.26463-0.08422 0.61842-0.0844 0.95147 0.19739 0.11422 0.40498-0.01772 0.33759-0.27184-0.0068-0.19601 0.08592-0.47443 0.02813-0.65241-0.01365-0.06539-0.21409-0.0094-0.28133-0.02718zm7.1739 0c-0.0572 0.2244-0.04023 0.58629-0.0844 0.81663-0.09042 0.2532 0.42101 0.22729 0.33759-0.0283 0.01187-0.2521 0.07263-0.58046 0.02813-0.78833h-0.28132zm0.78771 0c-0.0572 0.2244-0.04023 0.58629-0.0844 0.81663-0.01226 0.24489 0.295 0.12929 0.22506 0.40663 0.40377-0.01761 0.88018 0.03498 1.2378-0.02718-0.10319-0.34437 0.40867-0.09442 0.25319-0.48931 0.01921-0.21642 0.13588-0.57389 0-0.70678-0.36019-0.11015-0.2619 0.29268-0.30946 0.51649 0.02228 0.26693-0.03402 0.45794-0.36806 0.38057-0.20656-0.05641-0.72353 0.12138-0.70126-0.10767 0.01286-0.24154 0.06933-0.56557 0.02841-0.7622-0.02592-0.06716-0.20247-0.0084-0.28133-0.02718zm2.1943 0c-0.07981 0.20701-0.05948 0.47857-0.0844 0.70678-0.19784 0.37407 0.30676 0.15567 0.19693 0.48931 0.34735 0.06307 0.81632 0.0086 1.2097 0.02718-0.07743-0.31947 0.37132-0.13051 0.28132-0.46212 0.0043-0.24461 0.12075-0.5593 0.05627-0.76114-0.35618-0.1082-0.31877 0.16392-0.33759 0.38169-0.04199 0.19185 0.06158 0.6007-0.25319 0.51537h-0.84398c-0.01809-0.30621 0.09984-0.62716 0.02813-0.86988-0.01853-0.06521-0.18078-0.01085-0.25319-0.02718zm4.9232 0c-0.03579 0.26852-0.09243 0.6381-0.0844 0.95147 0.32906-0.07539 0.05657 0.34999 0.39619 0.27184 0.33612-0.0188 0.74879 0.03638 1.0386-0.02718-0.05845-0.32972 0.38874-0.11583 0.28133-0.48931 0.0371-0.2504 0.04972-0.43787 0.05627-0.67959-0.25939-0.13255-0.41398 0.04162-0.34885 0.32626-0.09864 0.19151 0.09282 0.62703-0.24193 0.54362h-0.87211c0.01611-0.26835 0.05933-0.56948 0.0844-0.86988-0.06065-0.05028-0.20418-0.01944-0.30946-0.02718zm2.1662 0c-0.0572 0.2244-0.04023 0.58629-0.0844 0.81663-0.01226 0.24489 0.295 0.12929 0.22506 0.40663 0.40377-0.01761 0.88018 0.03498 1.2378-0.02718-0.1032-0.34437 0.40866-0.09442 0.25319-0.48931 0.01918-0.21642 0.13588-0.57389 0-0.70678-0.36019-0.11015-0.2619 0.29268-0.30946 0.51649 0.02224 0.26693-0.03403 0.45794-0.36806 0.38057-0.20656-0.05641-0.72353 0.12138-0.70126-0.10767 0.01286-0.24154 0.06933-0.56557 0.02841-0.7622-0.02592-0.06716-0.20247-0.0084-0.28133-0.02718zm-16.176 0.10874h1.069c0.01467 0.26597-0.08073 0.52141-0.05626 0.78833h-1.069c0.0105-0.24599 0.06567-0.5091 0.05626-0.78833zm2.1943 0h1.0409c0.01467 0.26597-0.08073 0.52141-0.05626 0.78833h-1.069c0.02132-0.24611 0.03894-0.51229 0.0844-0.78833zm-5.4859 0.92425c-0.13784 0.17784 0.05344 0.42278 0.25319 0.27184 0.14593-0.23751 0.03019-0.31698-0.25319-0.27184zm7.1739 0c-0.13785 0.17784 0.05344 0.42278 0.25319 0.27184 0.14593-0.23751 0.03018-0.31698-0.25319-0.27184zm7.2019 0c-0.13785 0.17784 0.05344 0.42278 0.25319 0.27184 0.10107-0.21062 0.01607-0.32532-0.25319-0.27184z" fill="#aabce8"/>
 <use xlink:href="#SVGCleanerId_1" transform="matrix(.79218 0 0 .81048 8.03 6.668)" fill="#d4ff2a"/>
 <use xlink:href="#SVGCleanerId_1" transform="matrix(.79218 0 0 .81048 11.632 6.668)" fill="#ffa000"/>
 <use xlink:href="#SVGCleanerId_1" transform="matrix(.79218 0 0 .81048 15.233 6.668)" fill="#d4ff2a"/>
 <use xlink:href="#SVGCleanerId_1" transform="matrix(.79218 0 0 .81048 18.834 6.668)" fill="#ff4d2a"/>
 <g id="g6086" transform="matrix(.90024 0 0 .86988 4.331 5.264)">
  <path d="m33.969 50.281c-0.08293 0.58638-0.39841 1.0984-0.875 1.4062v4.625c0.551 0.357 0.906 0.983 0.906 1.688 0.000001 0.70494-0.35472 1.3313-0.90625 1.6875v4.625c0.551 0.356 0.906 0.982 0.906 1.687 0.000001 0.70494-0.35472 1.3313-0.90625 1.6875v4.625c0.551 0.356 0.906 0.982 0.906 1.687 0.000001 0.70494-0.35472 1.3313-0.90625 1.6875v2h0.9375c0.149-0.956 0.97-1.688 1.968-1.688 0.99766 0 1.8185 0.73182 1.9688 1.6875h4.0625c0.149-0.956 0.97-1.688 1.968-1.688 0.51964 0 0.98802 0.20598 1.3438 0.53125v-5.0625c-0.356 0.326-0.824 0.532-1.344 0.532-1.104 0-2-0.896-2-2 0.000001-1.104 0.896-2 2-2 0.51964 0 0.98802 0.20598 1.3438 0.53125v-5.0625c-0.356 0.326-0.824 0.532-1.344 0.532-1.104 0-2-0.896-2-2 0.000001-1.104 0.896-2 2-2 0.51964 0 0.98802 0.20598 1.3438 0.53125v-5.0625c-0.356 0.326-0.824 0.532-1.344 0.532-1.104 0-2-0.896-2-2 0.000001-1.104 0.896-2 2-2 0.51964 0 0.98802 0.20598 1.3438 0.53125v-2.25h-3.375c-0.138 0.971-0.961 1.719-1.969 1.719s-1.831-0.748-1.969-1.719h-4.0625zm2.031 1.719c1.104 0 2 0.896 2 2 0.000001 1.104-0.896 2-2 2s-2-0.896-2-2c0.000001-1.104 0.896-2 2-2zm4 4c1.104 0 2 0.896 2 2 0.000001 1.104-0.896 2-2 2s-2-0.896-2-2c0.000001-1.104 0.896-2 2-2zm-4 4c1.104 0 2 0.896 2 2 0.000001 1.104-0.896 2-2 2s-2-0.896-2-2c0.000001-1.104 0.896-2 2-2zm4 4c1.104 0 2 0.896 2 2 0.000001 1.104-0.896 2-2 2s-2-0.896-2-2c0.000001-1.104 0.896-2 2-2zm-4 4c1.104 0 2 0.896 2 2 0.000001 1.104-0.896 2-2 2s-2-0.896-2-2c0.000001-1.104 0.896-2 2-2zm4 4c1.104 0 2 0.896 2 2 0.000001 1.104-0.896 2-2 2s-2-0.896-2-2c0.000001-1.104 0.896-2 2-2z" fill="#999"/>
  <rect opacity=".645" height="50" width="18" y="34" x="30" fill="#a5a5a5"/>
  <use xlink:href="#SVGCleanerId_3"/>
  <use xlink:href="#SVGCleanerId_3"/>
  <rect y="32" x="30" width="18" height="1"/>
  <rect y="33" x="30" height="1" width="18" fill="#c4c4c4"/>
  <rect y="32" x="33" height="2" width="12" fill="url(#linearGradient5703)"/>
  <path d="m34 68.969v6.031c0 0.554 0.446 1 1 1s1-0.446 1-1v-6.0312h-2zm4 0v6.031c0 0.554 0.446 1 1 1s1-0.446 1-1v-6.0312h-2zm4 0v6.031c0 0.554 0.446 1 1 1s1-0.446 1-1v-6.0312h-2z" filter="url(#filter6045-2)" stroke="#000" stroke-linecap="square" fill="none"/>
  <rect height="49" width="17" stroke="#000" stroke-linecap="square" y="34.5" x="30.5" fill="none"/>
  <path d="m32 72v10h14v-10h-2v3c0 0.554-0.446 1-1 1s-1-0.446-1-1v-3h-2v3c0 0.554-0.446 1-1 1s-1-0.446-1-1v-3h-2v3c0 0.554-0.446 1-1 1s-1-0.446-1-1v-3h-2z" fill="url(#linearGradient5705)"/>
  <path d="m31 73v8 2h2 12 1.0938 0.90625v-10h-2v8h-12v-8h-2z" fill="url(#linearGradient5707)"/>
  <rect y="72" x="31" width="2" height="1"/>
  <rect y="72" x="45" width="2" height="1"/>
  <rect y="72" x="33" height="9" width="1" fill="url(#linearGradient5709)"/>
  <rect transform="scale(-1 1)" height="9" width="1" y="72" x="-45" fill="url(#linearGradient5712)"/>
  <rect y="34.812" x="30.536" width="16.875" height="7.188"/>
  <rect opacity=".6" height="2" width="12" y="36" x="33" fill="url(#linearGradient5714)"/>
  <rect y="39.07" x="33" height="1.821" width="12" fill="url(#linearGradient5716)"/>
  <rect y="36" x="31" height="5" width="1" fill="#545454"/>
  <rect y="36" x="46" height="5" width="1" fill="#545454"/>
  <path d="m34 51.5v15.5c0 0.554 0.446 1 1 1s1-0.446 1-1v-13.719c-0.787-0.447-1.482-1.043-2-1.781zm10 0c-0.51837 0.73816-1.2126 1.3338-2 1.7812v13.719c0 0.554 0.446 1 1 1s1-0.446 1-1v-15.5zm-6 2.5v13c0 0.554 0.446 1 1 1s1-0.446 1-1v-13c-0.32749 0.05456-0.6571 0.09375-1 0.09375s-0.67251-0.03919-1-0.09375z" filter="url(#filter6036-5)" stroke="#000" stroke-linecap="square" fill="none"/>
  <path d="m31 42v30h16v-30h-16zm3 9.5c0.51837 0.73816 1.2126 1.3338 2 1.7812v13.719c0 0.554-0.446 1-1 1s-1-0.446-1-1v-15.5zm10 0v15.5c0 0.554-0.446 1-1 1s-1-0.446-1-1v-13.719c0.787-0.447 1.482-1.043 2-1.781zm-6 2.5c0.32749 0.05456 0.6571 0.09375 1 0.09375s0.67251-0.03919 1-0.09375v13c0 0.554-0.446 1-1 1s-1-0.446-1-1v-13z" fill="url(#linearGradient5718)"/>
  <rect transform="rotate(90)" height="12" width="2" y="-45" x="72" fill="url(#linearGradient5720)"/>
  <use xlink:href="#SVGCleanerId_2" transform="matrix(0 1.2347 -1.2347 0 98.26 -.017)" fill="url(#linearGradient6065)"/>
  <use xlink:href="#SVGCleanerId_2" transform="matrix(.8839 0 0 .8839 4.624 5.573)" stroke="#000000" stroke-linecap="square" stroke-width="1.131" fill="#c6c6c6"/>
  <path opacity=".15" d="m34 67v1c0 0.554 0.446 1 1 1s1-0.446 1-1v-1c0 0.554-0.446 1-1 1s-1-0.446-1-1zm4 0v1c0 0.554 0.446 1 1 1s1-0.446 1-1v-1c0 0.554-0.446 1-1 1s-1-0.446-1-1zm4 0v1c0 0.554 0.446 1 1 1s1-0.446 1-1v-1c0 0.554-0.446 1-1 1s-1-0.446-1-1z" fill="#fff"/>
  <use xlink:href="#SVGCleanerId_2" transform="matrix(0 .63136 -.63136 0 69.31 23.446)" stroke="url(#linearGradient5724)" stroke-linecap="square" stroke-width="1.584" fill="none"/>
  <path opacity=".426" d="m39 46.5c-0.83227 0-1.5312 0.69898-1.5312 1.5312 0 0.69356 0.51281 1.2637 1.1562 1.4375v0.5h0.6875v-0.46875c0.686-0.139 1.188-0.741 1.188-1.469 0-0.832-0.668-1.531-1.5-1.531zm0 0.5c0.56174 0.000001 1 0.46951 1 1.0312-0.000001 0.56174-0.43826 1-1 1-0.56174-0.000001-1.0312-0.43826-1.0312-1 0-0.561 0.469-1.031 1.031-1.031z"/>
 </g>
 <use width="96" xlink:href="#g6086" transform="translate(16.204)" height="96"/>
 <use width="96" xlink:href="#g6086" transform="translate(32.409)" height="96"/>
</svg>
