<?xml version="1.0" encoding="UTF-8" standalone="no"?>
<svg xmlns="http://www.w3.org/2000/svg" height="96" width="96" xmlns:xlink="http://www.w3.org/1999/xlink">
 <defs>
  <linearGradient id="linearGradient6400" x2="0" y1="84.03" y2="2.993" gradientUnits="userSpaceOnUse">
   <stop stop-color="#ccc" offset="0"/>
   <stop stop-color="#dae0de" offset="1"/>
  </linearGradient>
  <clipPath id="clipPath6423" clipPathUnits="userSpaceOnUse">
   <rect y="967.42" x="16.06" rx="7.803" width="64.56" height="61"/>
  </clipPath>
  <linearGradient id="linearGradient4451" xlink:href="#linearGradient6400" gradientUnits="userSpaceOnUse" y1="84.03" gradientTransform="matrix(.60659 0 0 .58735 6.683 6.411)" x2="0" y2="2.993"/>
  <radialGradient id="radialGradient4453" gradientUnits="userSpaceOnUse" cy="-15.871" cx="56.07" gradientTransform="matrix(.00226 .92548 -1.3844 0 25.902 -30.21)" r="35.938">
   <stop stop-color="#4490e6" offset="0"/>
   <stop stop-color="#103d8f" offset="1"/>
  </radialGradient>
  <linearGradient id="linearGradient4545" xlink:href="#linearGradient6400" gradientUnits="userSpaceOnUse" y1="84.03" gradientTransform="matrix(.42459 0 0 .42459 30.02 28.471)" x2="0" y2="2.993"/>
  <path id="SVGCleanerId_0" d="m12.062 12.062v53.875h71.875v-53.875h-71.875z" fill="url(#radialGradient4453)"/>
  <rect id="SVGCleanerId_1" opacity=".4" rx="3.03" ry="2.383" height="10" width="72.54" y="74" x="11.786" fill="#c3d9f5"/>
  <rect id="SVGCleanerId_2" opacity=".4" rx="3.03" ry="2.383" height="10" width="72.54" y="12" x="11.786" fill="#c3d9f5"/>
  <path id="SVGCleanerId_3" color="#000000" opacity=".08" d="m19 13c-3.2894 0-6 2.7106-6 6v58c0 3.2894 2.7106 6 6 6h58c3.2894 0 6-2.7106 6-6v-58c0-3.2894-2.7106-6-6-6h-58zm0 4h58c1.1426 0 2 0.85741 2 2v58c0 1.1426-0.85741 2-2 2h-58c-1.1426 0-2-0.85741-2-2v-58c0-1.1426 0.85741-2 2-2z"/>
  <path id="SVGCleanerId_4" color="#000000" opacity=".1" d="m17 14c-1.662 0-3 1.338-3 3v62c0 1.662 1.338 3 3 3h62c1.662 0 3-1.338 3-3v-62c0-1.662-1.338-3-3-3h-62zm0 1.9375h62c0.61816 0 1.0625 0.44434 1.0625 1.0625v62c0 0.61816-0.44434 1.0625-1.0625 1.0625h-62c-0.61816 0-1.0625-0.44434-1.0625-1.0625v-62c0-0.61816 0.44434-1.0625 1.0625-1.0625z"/>
  <path id="SVGCleanerId_5" color="#000000" opacity=".25" d="m17 14c-1.662 0-3 1.338-3 3v62c0 1.662 1.338 3 3 3h62c1.662 0 3-1.338 3-3v-62c0-1.662-1.338-3-3-3h-62zm0 0.96875h62c1.1401 0 2.0312 0.89117 2.0312 2.0312v62c0 1.1401-0.89117 2.0312-2.0312 2.0312h-62c-1.1401 0-2.0312-0.89117-2.0312-2.0312v-62c0-1.1401 0.89117-2.0312 2.0312-2.0312z"/>
 </defs>
 <rect fill-opacity=".02" rx="12.724" height="89.98" width="89.62" y="2.99" x="3.353"/>
 <rect fill-opacity=".039" rx="12.552" height="88.76" width="88.41" y="3.6" x="3.959"/>
 <rect fill-opacity=".078" rx="12.38" height="87.55" width="87.2" y="4.21" x="4.564"/>
 <rect fill-opacity=".157" rx="12.208" height="86.33" width="85.991" y="4.82" x="5.17"/>
 <path d="m17.75 5.4062c-6.642 0-11.969 5.3948-11.969 12.063l0.0002 61.031c0 6.668 5.3268 12.031 11.969 12.031h60.812c6.642 0 11.969-5.363 11.969-12.031v-61.031c0-6.668-5.327-12.063-11.969-12.063l-60.812 0.0002z" fill="#f2f2f2"/>
 <rect transform="rotate(90)" height="20.339" width="3.864" y="-42.814" x="68.34" fill="#808080"/>
 <path d="m5.7756 73.44v5.0663c0 6.668 5.3434 12.032 11.985 12.032h60.809c6.6418 0 11.985-5.3645 11.985-12.032v-5.0663c0 6.6681-5.3434 12.032-11.985 12.032h-60.809c-6.6418 0-11.985-5.3643-11.985-12.032z" fill-opacity=".118"/>
 <path d="m5.7756 77.54v1.0133c0 6.668 5.3434 12.032 11.985 12.032h60.809c6.6418 0 11.985-5.3645 11.985-12.032v-1.0133c0 6.6681-5.3434 12.032-11.985 12.032h-60.809c-6.6418 0-11.985-5.3644-11.985-12.032z" fill-opacity=".098"/>
 <rect height="20.14" width="3.864" y="49.729" x="21.661" fill="#808080"/>
 <rect transform="rotate(90)" height="20.339" width="3.864" y="-69.59" x="24" fill="#808080"/>
 <g transform="matrix(.86392 0 0 .86392 1.755 1.416)">
  <rect fill-opacity=".02" rx="7.473" height="52.849" width="54.36" y="8.167" x="8.717"/>
  <rect fill-opacity=".039" rx="7.372" height="52.13" width="53.63" y="8.526" x="9.08"/>
  <rect fill-opacity=".078" rx="7.271" height="51.42" width="52.896" y="8.884" x="9.451"/>
  <rect fill-opacity=".157" rx="7.17" height="50.706" width="52.16" y="9.242" x="9.819"/>
  <path d="m17.449 9.5866c-4.029 0-7.2602 3.1686-7.2602 7.0852l0.000121 35.847c0 3.9165 3.2312 7.0664 7.2602 7.0664h36.888c4.029 0 7.2602-3.15 7.2602-7.0664v-35.847c0-3.9165-3.2313-7.0852-7.2602-7.0852l-36.888 0.0001169z" fill="url(#linearGradient4451)"/>
  <path d="m10.186 49.546v2.9757c0 3.9165 3.2412 7.067 7.2699 7.067h36.886c4.0288 0 7.2699-3.1508 7.2699-7.067v-2.9757c0 3.9165-3.2412 7.067-7.2699 7.067h-36.886c-4.0288 0-7.2699-3.1507-7.2699-7.067z" fill-opacity=".118"/>
  <path d="m10.186 51.954v0.59516c0 3.9165 3.2412 7.067 7.2699 7.067h36.886c4.0288 0 7.2699-3.1508 7.2699-7.067v-0.59516c0 3.9165-3.2412 7.067-7.2699 7.067h-36.886c-4.0288 0-7.2699-3.1508-7.2699-7.067z" fill-opacity=".098"/>
  <rect opacity=".5" rx="4.207" height="32.892" width="43.35" y="14.07" x="14.1" fill="#4d4d4d"/>
  <g transform="matrix(.65469 0 0 .53917 4.131 -506.2)" clip-path="url(#clipPath6423)">
   <g enable-background="new" transform="matrix(1 0 0 .93125 .272 953.28)">
    <use xlink:href="#SVGCleanerId_0" transform="matrix(-1.0009 0 0 -1.334 96.01 99.97)"/>
    <use xlink:href="#SVGCleanerId_1"/>
    <use xlink:href="#SVGCleanerId_2"/>
    <use xlink:href="#SVGCleanerId_3"/>
    <use xlink:href="#SVGCleanerId_4"/>
    <use xlink:href="#SVGCleanerId_5"/>
   </g>
  </g>
 </g>
 <g transform="matrix(1.2342 0 0 1.1951 1.427 .686)">
  <rect rx=".238" transform="scale(1 -1)" height=".476" width="6.373" y="-41.758" x="35.592" fill="#999"/>
  <rect rx=".238" transform="scale(1 -1)" height=".476" width="6.373" y="-41.546" x="35.592" fill="#808080"/>
  <rect fill-opacity=".02" rx="5.402" height="38.2" width="38.05" y="29.74" x="31.44"/>
  <rect fill-opacity=".039" rx="5.329" height="37.687" width="37.539" y="29.999" x="31.697"/>
  <rect fill-opacity=".078" rx="5.256" height="37.17" width="37.02" y="30.26" x="31.954"/>
  <rect fill-opacity=".157" rx="5.183" height="36.655" width="36.511" y="30.517" x="32.21"/>
  <path d="m37.553 30.766c-2.8201 0-5.0819 2.2906-5.0819 5.1218l0.000085 25.913c0 2.8311 2.2617 5.1082 5.0819 5.1082h25.82c2.8201 0 5.0819-2.2771 5.0819-5.1082v-25.913c0-2.8311-2.2618-5.1218-5.0819-5.1218l-25.82 0.000085z" fill="url(#linearGradient4545)"/>
  <path d="m32.468 59.652v2.1511c0 2.8311 2.2687 5.1086 5.0887 5.1086h25.819c2.82 0 5.0887-2.2777 5.0887-5.1086v-2.1511c0 2.8312-2.2687 5.1086-5.0887 5.1086h-25.819c-2.82 0-5.0887-2.2776-5.0887-5.1086z" fill-opacity=".118"/>
  <path d="m32.468 61.393v0.43023c0 2.8311 2.2687 5.1086 5.0887 5.1086h25.819c2.82 0 5.0887-2.2777 5.0887-5.1086v-0.43023c0 2.8312-2.2687 5.1086-5.0887 5.1086h-25.819c-2.82 0-5.0887-2.2776-5.0887-5.1086z" fill-opacity=".098"/>
  <rect opacity=".5" rx="3.041" height="23.777" width="30.346" y="34.01" x="35.21" fill="#4d4d4d"/>
  <g transform="matrix(.45826 0 0 .38976 28.23 -342.09)" clip-path="url(#clipPath6423)">
   <g enable-background="new" transform="matrix(1 0 0 .93125 .272 953.28)">
    <use xlink:href="#SVGCleanerId_0" transform="matrix(-1.0009 0 0 -1.334 96.01 99.97)"/>
    <use xlink:href="#SVGCleanerId_1"/>
    <use xlink:href="#SVGCleanerId_2"/>
    <use xlink:href="#SVGCleanerId_3"/>
    <use xlink:href="#SVGCleanerId_4"/>
    <use xlink:href="#SVGCleanerId_5"/>
   </g>
  </g>
  <rect rx=".238" transform="scale(1 -1)" height=".476" width="6.373" y="-61.61" x="56.01" fill="#999"/>
  <rect rx=".238" transform="scale(1 -1)" height=".476" width="6.373" y="-61.39" x="56.01" fill="#808080"/>
 </g>
 <circle cx="23.508" cy="70.66" r="5" fill="#808080"/>
 <circle cx="23.508" cy="70.03" r="5" fill="#b3b3b3"/>
 <rect height="20.14" width="3.864" y="5.39" x="68.44" fill="#808080"/>
 <circle cx="70.29" cy="26.322" r="5" fill="#808080"/>
 <circle cx="70.29" cy="25.687" r="5" fill="#b3b3b3"/>
</svg>
