<?xml version="1.0" encoding="UTF-8" standalone="no"?>
<svg xmlns="http://www.w3.org/2000/svg" height="96" width="96" xmlns:xlink="http://www.w3.org/1999/xlink">
 <defs>
  <clipPath id="clipPath3613-55">
   <rect y="6" x="6" rx="6" width="84" height="84"/>
  </clipPath>
  <filter id="filter3794-41" color-interpolation-filters="sRGB" width="1.384" y="-.192" x="-.192" height="1.384">
   <feGaussianBlur stdDeviation="5.28"/>
  </filter>
  <linearGradient id="linearGradient3182" gradientUnits="userSpaceOnUse" y1="90" gradientTransform="matrix(1.125 0 0 1.0417 -7.75 -3.25)" x2="0" y2="5.988">
   <stop stop-color="#8c8c8c" offset="0"/>
   <stop stop-color="#dcdcdc" offset="1"/>
  </linearGradient>
  <linearGradient id="linearGradient90466" x2="0" y1="20.221" y2="138.66" gradientUnits="userSpaceOnUse">
   <stop stop-color="#fff" offset="0"/>
   <stop stop-color="#fff" stop-opacity="0" offset="1"/>
  </linearGradient>
  <filter id="filter3276" color-interpolation-filters="sRGB">
   <feGaussianBlur stdDeviation="0.56242"/>
  </filter>
  <linearGradient id="linearGradient3659" x2="69.921" gradientUnits="userSpaceOnUse" x1="87.23" xlink:href="#linearGradient4360"/>
  <linearGradient id="linearGradient4360">
   <stop stop-color="#6e6e6e" offset="0"/>
   <stop stop-color="#8c8c8c" offset="1"/>
  </linearGradient>
  <linearGradient id="linearGradient3661" y2="97.97" xlink:href="#linearGradient4368" gradientUnits="userSpaceOnUse" y1="87.43" x2="86.75" x1="82.86"/>
  <linearGradient id="linearGradient4368">
   <stop stop-color="#828282" offset="0"/>
   <stop stop-color="#5a5a5a" offset="1"/>
  </linearGradient>
  <linearGradient id="linearGradient3663" y2="68.3" xlink:href="#linearGradient4368" gradientUnits="userSpaceOnUse" y1="76.54" x2="61.13" x1="52.11"/>
  <linearGradient id="linearGradient3665" y2="80.82" xlink:href="#linearGradient4360" gradientUnits="userSpaceOnUse" y1="63.59" x2="75.28" x1="66.74"/>
  <linearGradient id="linearGradient3667" y2="93.47" xlink:href="#linearGradient4360" gradientUnits="userSpaceOnUse" y1="104.22" x2="48.19" x1="43.24"/>
  <linearGradient id="linearGradient3669" y2="110.66" xlink:href="#linearGradient4368" gradientUnits="userSpaceOnUse" y1="106.16" x2="46.921" x1="60.41"/>
  <linearGradient id="linearGradient4282" y2="36.952" xlink:href="#linearGradient4368" gradientUnits="userSpaceOnUse" y1="8.07" x2="46.27" x1="47.23"/>
 </defs>
 <rect fill-opacity=".039" rx="12.552" height="88.76" width="88.76" y="3.6" x="3.608"/>
 <rect fill-opacity=".078" rx="12.38" height="87.55" width="87.55" y="4.21" x="4.216"/>
 <rect fill-opacity=".157" rx="12.208" height="86.33" width="86.33" y="4.82" x="4.824"/>
 <path opacity=".9" d="m17.469 5.4062c-6.668 0-12.032 5.3948-12.032 12.063l0.0005 61.031c0 5.418 3.5332 9.982 8.4375 11.5h68.187c4.715-1.457 8.172-5.734 8.438-10.875v-62.281c-0.321-6.377-5.54-11.438-12-11.438l-61.031 0.0002z" fill="url(#linearGradient3182)"/>
 <path d="m5.4316 73.44v5.0663c0 6.668 5.3645 12.032 12.032 12.032h61.049c6.668 0 12.032-5.3645 12.032-12.032v-5.0663c0 6.6681-5.3645 12.032-12.032 12.032h-61.049c-6.668 0-12.032-5.3643-12.032-12.032z" fill-opacity=".235"/>
 <path d="m5.4316 77.54v1.0133c0 6.668 5.3645 12.032 12.032 12.032h61.049c6.668 0 12.032-5.3645 12.032-12.032v-1.0133c0 6.6681-5.3645 12.032-12.032 12.032h-61.049c-6.668 0-12.032-5.3644-12.032-12.032z" fill-opacity=".098"/>
 <rect opacity=".3" clip-path="url(#clipPath3613-55)" rx="12" transform="translate(-.5 -2.5)" height="66" filter="url(#filter3794-41)" width="66" stroke="#fff" stroke-linecap="round" y="15" x="15" stroke-width=".5" fill="url(#linearGradient90466)"/>
 <g transform="translate(0 -2.478)">
  <path filter="url(#filter3276)" opacity=".8" transform="matrix(.62074 0 0 .62074 2.664 22.255)" d="m75.778 90.69 6.3317-11.357 0.0301 4.1536 13.326-0.03009c2.3811-0.25234 4.4687-1.2201 5.9805-3.0399-4.825 9.8683-6.2147 16.851-16.226 16.855h-3.0806l-0.0301 4.6151-6.3317-11.197zm14.5-8.9587-5.8802-10.835 11.881-7.1935 5.7497 11.518c0.17409 2.7563-4.2769 6.592-7.0396 6.5622l-4.7107-0.05088zm-36.131-24.001 6.07-9.096c5.8874-2.1923 9.2977 2.5406 11.45 5.524l-5.719 10.976-11.801-7.404zm23.982 4.5275c-1.221-2.878-2.852-6.17-4.892-9.032-1.826-2.563-4.033-4.798-5.704-5.797l15.353-0.03009c2.7572 0.24748 4.0968 1.8546 5.5591 4.0532l2.2076 3.8827 3.4117-2.1771-6.422 11.437-13.848 0.03009 4.3349-2.3677zm-21.244 4.2464 7.3428 10.731-3.7316-1.8255-5.9163 11.938c-0.83607 2.2434-0.90083 4.5431 0.05403 6.7077-6.682-8.719-12.313-13.077-7.852-22.038l1.3739-2.7568-4.1179-2.0852 12.847-0.67259zm1.6825 16.973 13.538-0.42958-0.07542 13.84-12.875 0.0086c-2.5451-1.0735-3.9936-6.7673-2.7347-9.2263l2.1465-4.1929z"/>
  <path opacity=".8" d="m75.778 92.69 6.3317-11.357 0.0301 4.1536 13.326-0.03009c2.3811-0.25235 4.4687-1.2201 5.9805-3.0399-4.825 9.8683-6.2147 16.851-16.226 16.855h-3.0806l-0.0301 4.6151-6.3317-11.197zm14.5-8.9587-5.8802-10.835 11.881-7.1935 5.7497 11.518c0.17409 2.7563-4.2769 6.592-7.0396 6.5622l-4.7107-0.05088zm-36.131-24.001 6.07-9.096c5.8874-2.1923 9.2977 2.5406 11.45 5.524l-5.719 10.976-11.801-7.404zm23.982 4.5275c-1.221-2.878-2.852-6.17-4.892-9.032-1.826-2.563-4.033-4.798-5.704-5.797l15.353-0.03009c2.7572 0.24748 4.0968 1.8546 5.5591 4.0532l2.2076 3.8827 3.4117-2.1771-6.422 11.437-13.848 0.03009 4.3349-2.3677zm-21.244 4.2464 7.3428 10.731-3.7316-1.8255-5.9163 11.938c-0.83607 2.2434-0.90083 4.5431 0.05403 6.7077-6.682-8.719-12.313-13.077-7.852-22.038l1.3739-2.7568-4.1179-2.0852 12.847-0.67259zm1.6825 16.973 13.538-0.42959-0.07542 13.84-12.875 0.0086c-2.5451-1.0735-3.9936-6.7673-2.7347-9.2263l2.1465-4.1929z" transform="matrix(.62074 0 0 .62074 2.664 22.01)" filter="url(#filter3276)" fill="#fff"/>
  <g transform="matrix(.62074 0 0 .62074 8.274 12.705)">
   <path d="m66.74 106.88 6.3317-11.357 0.0301 4.1536 13.326-0.03009c2.3811-0.25234 4.4687-1.2201 5.9805-3.0399-4.825 9.8683-6.2147 16.851-16.226 16.855h-3.0806l-0.0301 4.6151-6.3317-11.197z" fill="url(#linearGradient3659)"/>
   <path d="m81.24 97.921-5.88-10.835 11.881-7.193 5.749 11.517c0.17409 2.7563-4.2769 6.592-7.0396 6.5622l-4.7107-0.05088z" fill="url(#linearGradient3661)"/>
   <path d="m45.109 73.92 6.07-9.0957c5.8874-2.1923 9.2977 2.5406 11.45 5.524l-5.719 10.976-11.801-7.404z" fill="url(#linearGradient3663)"/>
   <path d="m69.091 78.447c-1.221-2.878-2.852-6.169-4.892-9.031-1.826-2.563-4.033-4.798-5.704-5.797l15.353-0.03009c2.7572 0.24748 4.0968 1.8546 5.5591 4.0532l2.2076 3.8827 3.4117-2.1771-6.422 11.437-13.848 0.03009 4.3349-2.3677z" fill="url(#linearGradient3665)"/>
   <path d="m47.847 82.694 7.3428 10.731-3.7316-1.8255-5.9163 11.938c-0.83607 2.2434-0.90083 4.5431 0.05403 6.7077-6.682-8.719-12.313-13.077-7.8518-22.037l1.3739-2.7568-4.1179-2.0852 12.847-0.67259z" fill="url(#linearGradient3667)"/>
   <path d="m49.529 99.667 13.538-0.42958-0.07542 13.84-12.875 0.009c-2.5451-1.0735-3.9936-6.7673-2.7347-9.2263l2.1465-4.1929z" fill="url(#linearGradient3669)"/>
  </g>
 </g>
 <path opacity=".9" d="m19.227 7.0738c-6.2698 0-11.251 5.0097-11.251 11.28l0.0004702 12.065c0.0001985 5.0945 1.2593 7.323 5.8707 8.7504h68.241c4.4335-1.37 5.6211-3.3287 5.8712-8.1627v-13.24c-0.301-5.996-5.145-10.692-11.219-10.692l-57.513 0.0001898z" fill="url(#linearGradient4282)"/>
 <path opacity=".9" d="m5.5332 34.418v2c0.0002106 5.0945 1.3351 6.3057 6.2285 7.7331h72.414c4.7045-1.37 5.9631-2.3111 6.2285-7.1452v-2c-0.26541 4.834-1.524 6.7921-6.2285 8.1621h-72.414c-4.8934-1.4274-6.2283-3.6555-6.2285-8.75z" fill="#999"/>
</svg>
