<?xml version="1.0" encoding="UTF-8" standalone="no"?>
<svg
   xmlns:dc="http://purl.org/dc/elements/1.1/"
   xmlns:cc="http://creativecommons.org/ns#"
   xmlns:rdf="http://www.w3.org/1999/02/22-rdf-syntax-ns#"
   xmlns:svg="http://www.w3.org/2000/svg"
   xmlns="http://www.w3.org/2000/svg"
   xmlns:xlink="http://www.w3.org/1999/xlink"
   xmlns:sodipodi="http://sodipodi.sourceforge.net/DTD/sodipodi-0.dtd"
   xmlns:inkscape="http://www.inkscape.org/namespaces/inkscape"
   id="svg2"
   height="96"
   width="96"
   version="1.1"
   inkscape:version="0.91 r13725"
   sodipodi:docname="user-bookmarks.svg">
  <sodipodi:namedview
     pagecolor="#ffffff"
     bordercolor="#666666"
     borderopacity="1"
     objecttolerance="10"
     gridtolerance="10"
     guidetolerance="10"
     inkscape:pageopacity="0"
     inkscape:pageshadow="2"
     inkscape:window-width="1366"
     inkscape:window-height="718"
     id="namedview28"
     showgrid="false"
     inkscape:zoom="5.6875"
     inkscape:cx="48"
     inkscape:cy="48"
     inkscape:window-x="0"
     inkscape:window-y="24"
     inkscape:window-maximized="1"
     inkscape:current-layer="svg2" />
  <metadata
     id="metadata70">
    <rdf:RDF>
      <cc:Work
         rdf:about="">
        <dc:format>image/svg+xml</dc:format>
        <dc:type
           rdf:resource="http://purl.org/dc/dcmitype/StillImage" />
        <dc:title></dc:title>
      </cc:Work>
    </rdf:RDF>
  </metadata>
  <defs
     id="defs4">
    <linearGradient
       id="linearGradient4398">
      <stop
         id="stop4400"
         offset="0"
         style="stop-color:#78d9fd;stop-opacity:1;" />
      <stop
         id="stop4402"
         offset="1"
         style="stop-color:#7bb8ff;stop-opacity:1" />
    </linearGradient>
    <linearGradient
       id="linearGradient4340"
       y2="45.913"
       gradientUnits="userSpaceOnUse"
       x2="45.07"
       y1="-20.335"
       x1="44.36"
       gradientTransform="translate(5.5712949,10.359987)">
      <stop
         id="stop4336"
         style="stop-color:#fff"
         offset="0" />
      <stop
         id="stop4338"
         style="stop-color:#fff;stop-opacity:0"
         offset="1" />
    </linearGradient>
    <linearGradient
       id="linearGradient4348"
       y2="48"
       gradientUnits="userSpaceOnUse"
       x2="90.499"
       y1="48"
       x1="5.4988">
      <stop
         id="stop4344"
         style="stop-color:#3eadf3"
         offset="0" />
      <stop
         id="stop4346"
         style="stop-color:#005285"
         offset="1" />
    </linearGradient>
    <filter
       id="filter4356"
       style="color-interpolation-filters:sRGB"
       height="1.2617"
       width="1.0799"
       y="-.13085"
       x="-.039940">
      <feGaussianBlur
         id="feGaussianBlur4358"
         stdDeviation="1.1452528" />
    </filter>
    <linearGradient
       id="linearGradient4372"
       y2="26.095"
       gradientUnits="userSpaceOnUse"
       x2="52.385"
       y1="88.512"
       x1="52.385">
      <stop
         id="stop4368"
         style="stop-color:#389edd"
         offset="0" />
      <stop
         id="stop4370"
         style="stop-color:#66bff7"
         offset="1" />
    </linearGradient>
    <filter
       id="filter4390"
       style="color-interpolation-filters:sRGB"
       height="1.1591"
       width="1.1237"
       y="-.079545"
       x="-.061865">
      <feGaussianBlur
         id="feGaussianBlur4392"
         stdDeviation="1.8044006" />
    </filter>
    <linearGradient
       inkscape:collect="always"
       id="linearGradient3793">
      <stop
         style="stop-color:#000000;stop-opacity:1;"
         offset="0"
         id="stop3795" />
      <stop
         style="stop-color:#000000;stop-opacity:0;"
         offset="1"
         id="stop3797" />
    </linearGradient>
    <linearGradient
       id="linearGradient18984">
      <stop
         style="stop-color:#78d9fd;stop-opacity:1;"
         offset="0"
         id="stop18986" />
      <stop
         style="stop-color:#7bdeff;stop-opacity:1;"
         offset="1"
         id="stop18988" />
    </linearGradient>
    <linearGradient
       id="linearGradient18973">
      <stop
         style="stop-color:#35cafc;stop-opacity:1;"
         offset="0"
         id="stop18975" />
      <stop
         id="stop18981"
         offset="0.5"
         style="stop-color:#50d4ff;stop-opacity:1;" />
      <stop
         style="stop-color:#4dcbf6;stop-opacity:1;"
         offset="1"
         id="stop18977" />
    </linearGradient>
    <linearGradient
       inkscape:collect="always"
       xlink:href="#linearGradient18973"
       id="linearGradient4213"
       gradientUnits="userSpaceOnUse"
       x1="5.4987998"
       y1="48"
       x2="90.499001"
       y2="48"
       gradientTransform="translate(-1.200076,-5.4722595e-6)" />
    <linearGradient
       inkscape:collect="always"
       xlink:href="#linearGradient18984"
       id="linearGradient4227"
       gradientUnits="userSpaceOnUse"
       x1="44.360001"
       y1="-20.334999"
       x2="45.07"
       y2="45.912998"
       gradientTransform="translate(2.85e-4,-2.336261)" />
    <linearGradient
       inkscape:collect="always"
       xlink:href="#linearGradient4348"
       id="linearGradient4244"
       x1="5"
       y1="48"
       x2="91"
       y2="48"
       gradientUnits="userSpaceOnUse" />
    <linearGradient
       inkscape:collect="always"
       xlink:href="#linearGradient4348"
       id="linearGradient4246"
       gradientUnits="userSpaceOnUse"
       x1="5"
       y1="48"
       x2="91"
       y2="48" />
    <linearGradient
       inkscape:collect="always"
       xlink:href="#linearGradient3793"
       id="linearGradient4316"
       x1="46.124733"
       y1="74.434715"
       x2="45.516567"
       y2="93.322433"
       gradientUnits="userSpaceOnUse" />
    <linearGradient
       x1="44.36"
       y1="-20.335"
       x2="45.07"
       gradientUnits="userSpaceOnUse"
       y2="45.913"
       id="linearGradient4340-4">
      <stop
         offset="0"
         style="stop-color:#fff"
         id="stop4336-6" />
      <stop
         offset="1"
         style="stop-color:#fff;stop-opacity:0"
         id="stop4338-1" />
    </linearGradient>
    <filter
       x="-.039940"
       y="-.13085"
       width="1.0799"
       height="1.2617"
       style="color-interpolation-filters:sRGB"
       id="filter4356-3">
      <feGaussianBlur
         stdDeviation="1.1452528"
         id="feGaussianBlur4358-5" />
    </filter>
    <filter
       x="-.061865"
       y="-.079545"
       width="1.1237"
       height="1.1591"
       style="color-interpolation-filters:sRGB"
       id="filter4390-1">
      <feGaussianBlur
         stdDeviation="1.8044006"
         id="feGaussianBlur4392-5" />
    </filter>
    <linearGradient
       inkscape:collect="always"
       xlink:href="#linearGradient18973"
       id="linearGradient4396"
       x1="229.22832"
       y1="31.820383"
       x2="314.22931"
       y2="31.820383"
       gradientUnits="userSpaceOnUse" />
    <linearGradient
       inkscape:collect="always"
       xlink:href="#linearGradient18973"
       id="linearGradient4414"
       gradientUnits="userSpaceOnUse"
       x1="229.22832"
       y1="31.820383"
       x2="314.22931"
       y2="31.820383" />
    <linearGradient
       inkscape:collect="always"
       xlink:href="#linearGradient18973"
       id="linearGradient4416"
       gradientUnits="userSpaceOnUse"
       x1="229.22832"
       y1="31.820383"
       x2="314.22931"
       y2="31.820383" />
    <linearGradient
       id="linearGradient5567"
       gradientUnits="userSpaceOnUse"
       y1="0.48100001"
       gradientTransform="matrix(0.70536,0,0,0.63010514,79.101136,25.486171)"
       x2="0"
       y2="96.029999"
       xlink:href="#linearGradient4340-4">
      <stop
         id="stop33"
         stop-opacity=".569"
         offset="0" />
      <stop
         id="stop35"
         stop-opacity="0"
         offset=".07" />
      <stop
         id="stop37"
         stop-color="#750202"
         stop-opacity=".09"
         offset=".203" />
      <stop
         id="stop39"
         stop-color="#e47b04"
         stop-opacity=".137"
         offset=".266" />
      <stop
         id="stop41"
         stop-color="#ffc906"
         stop-opacity=".184"
         offset=".35" />
      <stop
         id="stop43"
         stop-color="#b76403"
         stop-opacity=".137"
         offset=".439" />
      <stop
         id="stop45"
         stop-color="#700000"
         stop-opacity=".09"
         offset=".498" />
      <stop
         id="stop47"
         stop-color="#fda100"
         stop-opacity=".192"
         offset=".659" />
      <stop
         id="stop49"
         stop-color="#7c0000"
         stop-opacity=".61"
         offset="1" />
    </linearGradient>
  </defs>
  <g
     id="g4235"
     style="fill:url(#linearGradient4244);fill-opacity:1"
     transform="translate(495.45763,-1.6271167)">
    <rect
       x="5"
       y="5"
       width="86"
       height="86"
       transform="matrix(0,1,1,0,0,0)"
       rx="11.577"
       style="opacity:0.1;fill:url(#linearGradient4246);fill-opacity:1"
       id="rect4360" />
  </g>
  <g
     id="g4404">
    <rect
       id="rect4211"
       style="fill:url(#linearGradient4213);fill-opacity:1"
       rx="11.442"
       transform="matrix(0,1,1,0,0,0)"
       height="85"
       width="85"
       y="5.5"
       x="4.2987242" />
    <rect
       height="21.006001"
       x="13.59031"
       y="18.172812"
       width="68.818001"
       style="color:#000000;opacity:0.397;filter:url(#filter4356)"
       id="rect4350" />
    <rect
       id="rect4233"
       style="color:#000000;fill:#e6e6e6;stroke:none;stroke-opacity:1"
       height="21.006001"
       width="68.818001"
       y="17.853416"
       x="13.591" />
    <g
       style="fill:url(#linearGradient4396);fill-opacity:1"
       transform="translate(-223.72881,24.424839)"
       id="g4221">
      <path
         id="path4374"
         d="m 264.79101,3.6981031 -7.2188,11.0739999 -21.656,0 0,33.934 c 0,5.2204 4.2132,9.4336 9.4336,9.4336 l 51.13299,0 c 5.2204,0 9.4336,-4.2132 9.4336,-9.4336 l 0,-45.0079999 -41.12499,0 z"
         style="opacity:0.08900003;fill:url(#linearGradient4414);fill-opacity:1;filter:url(#filter4390)"
         inkscape:connector-curvature="0" />
      <path
         id="path4304"
         style="fill:url(#linearGradient4416);fill-opacity:1"
         d="m 264.29091,-1.233119 -8.7656,13.447 -26.297,0 0,41.205004 c 0,6.3391 5.116,11.455 11.455,11.455 l 62.09,0 c 6.34,0 11.456,-5.116 11.456,-11.455 l 0,-54.652004 -49.938,0 z"
         inkscape:connector-curvature="0" />
    </g>
    <path
       inkscape:connector-curvature="0"
       id="path4225"
       style="fill:url(#linearGradient4227);fill-opacity:1"
       d="m 40.562285,22.057739 -8.7656,13.447 -26.297,0 0,2.3008 26.008,0 8.7656,-13.447 49.938,0 0,54.652 c 0,0.0969 -0.0113,0.1908 -0.0137,0.28711 0.19156,-0.83234 0.30273,-1.6963 0.30273,-2.5879 l 0,-54.652 -49.938,0 z" />
    <path
       inkscape:connector-curvature="0"
       style="opacity:0.13999999;fill:url(#linearGradient4316);fill-opacity:1"
       d="m 5.4435,74.602976 0,5.0663 c 0,6.668 5.3645,12.032 12.032,12.032 l 61.049,0 c 6.668,0 12.032,-5.3645 12.032,-12.032 l 0,-5.0663 c 0,6.6681 -5.3645,12.032 -12.032,12.032 l -61.049,0 c -6.668,0 -12.032,-5.3643 -12.032,-12.032 z"
       id="path64" />
  </g>
  <path
     display="block"
     style="display:block;opacity:0.05;fill:#ffffff"
     d="m -98.325143,-23.473345 c -1.843197,0 -3.339627,1.552588 -3.339627,3.368972 l 0,1.669768 c -0.61778,0.222173 -1.20274,0.480907 -1.78676,0.762139 l -1.1718,-1.201048 a 1.8787235,1.8787235 0 0 0 -0.0293,0 c -1.26835,-1.269294 -3.41603,-1.330228 -4.71626,-0.03 l -4.04271,4.04271 c -1.3006,1.30051 -1.2392,3.447998 0.0293,4.716448 a 1.8787235,1.8787235 0 0 0 0,0.02929 l 1.20104,1.1717996 c -0.28103,0.5837252 -0.53959,1.1693627 -0.76167,1.7869482 l -1.66976,0 c -1.8177,0 -3.3701,1.4970916 -3.3701,3.3400987 l 0,5.68323 c 0,1.8431945 1.55259,3.33963 3.36897,3.33963 l 1.66977,0 c 0.22208,0.6176698 0.48063,1.203298 0.76167,1.7869481 l -1.20105,1.1718 a 1.8787235,1.8787235 0 0 0 0,0.029295 c -1.26836,1.2685438 -1.32985,3.4159374 -0.0293,4.7164484 l 4.04271,4.04271 c 0.69369,0.693705 1.59468,0.973531 2.40219,0.966688 0.84632,-0.0071 1.70173,-0.383469 2.31435,-0.99603 a 1.8787235,1.8787235 0 0 0 0.0293,0 l 1.1718,-1.200861 c 0.58373,0.281035 1.16937,0.539591 1.78695,0.76167 l 0,1.669768 c 0,1.81629 1.49644,3.368972 3.339631,3.368972 l 5.68323,0 c 1.843194,0 3.33963,-1.552588 3.33963,-3.368972 l 0,-1.669768 c 0.619648,-0.221236 1.20461,-0.479969 1.788635,-0.761201 l 1.1718,1.201048 a 1.8787235,1.8787235 0 0 0 0.0293,0 c 1.268544,1.268544 3.416032,1.329759 4.716448,0.02929 l 4.04271,-4.04271 c 1.300605,-1.30051 1.239202,-3.447998 -0.0293,-4.716448 a 1.8787235,1.8787235 0 0 0 0,-0.029295 l -1.20086,-1.1718 c 0.281035,-0.5837252 0.53959,-1.1693627 0.76167,-1.7869482 l 1.669768,0 c 1.817696,0 3.370097,-1.4970917 3.370097,-3.3400987 l 0,-5.68323 c 0,-1.8431945 -1.552588,-3.33963 -3.368972,-3.33963 l -1.669768,0 c -0.222174,-0.617773 -0.480907,-1.2027355 -0.762139,-1.7867606 l 1.201048,-1.1718005 a 1.8787235,1.8787235 0 0 0 0,-0.0293 c 1.269294,-1.268356 1.330228,-3.416031 0.03,-4.71626 l -4.043178,-4.043179 c -1.300511,-1.30051 -3.447905,-1.239296 -4.716449,0.02929 a 1.8787235,1.8787235 0 0 0 -0.0293,0 l -1.1718,1.201798 c -0.584025,-0.281232 -1.168987,-0.539965 -1.78676,-0.762139 l 0,-1.669768 c 0,-1.816758 -1.497092,-3.369159 -3.340099,-3.369159 l -5.68323,0 z m 0,1.87488 5.68323,0 c 0.811636,0 1.46475,0.668535 1.46475,1.494092 l 0,2.900252 c 1.451251,0.386675 2.861817,0.990499 4.130548,1.728452 l 2.05065,-2.079992 c 0.583725,-0.583725 1.505998,-0.603196 2.079992,-0.02929 l 4.04271,4.04271 c 0.57391,0.573919 0.554374,1.496248 -0.0293,2.079992 l -2.081117,2.0501809 c 0.737906,1.2687313 1.341758,2.6792973 1.728452,4.1305481 l 2.900252,0 c 0.82551,0 1.494092,0.6531051 1.494092,1.46475 l 0,5.68323 c 0,0.8116356 -0.668545,1.46475 -1.494092,1.46475 l -2.900252,0 c -0.387163,1.453032 -0.990874,2.8638792 -1.728639,4.1322355 l 2.079992,2.05065 c 0.583725,0.5837255 0.603261,1.5059975 0.0293,2.0799915 l -4.04271,4.04271 c -0.573714,0.572776 -1.496155,0.55309 -2.079242,-0.03 l -2.051119,-2.080179 c -1.268731,0.737906 -2.679297,1.341758 -4.130548,1.728452 l 0,2.900252 c 0,0.824947 -0.653396,1.493342 -1.465219,1.493342 l -5.68323,0 c -0.811645,0 -1.46475,-0.668536 -1.46475,-1.494092 l 0,-2.900252 c -1.451157,-0.386225 -2.862007,-0.989937 -4.130357,-1.727702 l -2.05065,2.079992 c -0.29187,0.291862 -0.64762,0.436228 -1.02538,0.439425 -0.3777,0.0032 -0.76766,-0.12317 -1.05462,-0.41013 l -4.04271,-4.04271 c -0.57277,-0.573713 -0.55308,-1.496154 0.03,-2.0792421 l 2.08018,-2.0511187 c -0.73776,-1.2683563 -1.34147,-2.6792035 -1.7277,-4.1303606 l -2.90025,0 c -0.82589,0 -1.49428,-0.6533957 -1.49428,-1.4652188 l 0,-5.68323 c 0,-0.8116449 0.66853,-1.46475 1.49409,-1.46475 l 2.90025,0 c 0.38623,-1.4511571 0.98994,-2.8620043 1.7277,-4.1303606 l -2.08017,-2.0511192 c -0.58373,-0.583725 -0.60328,-1.505997 -0.0293,-2.079991 l 4.04271,-4.04271 c 0.57391,-0.57392 1.49625,-0.55444 2.07999,0.0293 l 2.05018,2.081116 c 1.26873,-0.737905 2.6793,-1.341757 4.130551,-1.728451 l 0,-2.900252 c 0,-0.824948 0.653396,-1.493342 1.465219,-1.493342 z m 2.841381,14.3840794 c -3.441718,0 -6.239788,2.7980709 -6.239788,6.23978809 0,3.44171721 2.79807,6.23978811 6.239788,6.23978811 3.441717,0 6.239788,-2.7980709 6.239788,-6.23978811 0,-3.44171719 -2.798071,-6.23978809 -6.239788,-6.23978809 z m 0,1.87488 c 2.423563,0 4.364908,1.9413445 4.364908,4.36490809 0,2.42356361 -1.941345,4.36490811 -4.364908,4.36490811 -2.423564,0 -4.364908,-1.9413445 -4.364908,-4.36490811 0,-2.42356359 1.941344,-4.36490809 4.364908,-4.36490809 z"
     id="path75"
     inkscape:connector-curvature="0" />
  <path
     display="block"
     style="display:block;opacity:0.1;fill:#ffffff"
     d="m -98.325143,-22.535905 c -1.326384,0 -2.402187,1.111523 -2.402187,2.431532 l 0,2.28501 c -1.03841,0.328591 -2.04437,0.730238 -2.98809,1.23039 l -1.58146,-1.611459 a 0.93753374,0.93753374 0 0 0 0,-0.0293 c -0.92526,-0.926191 -2.49078,-0.966501 -3.42728,-0.03 l -4.04271,4.04271 c -0.9366,0.936503 -0.89615,2.502028 0.0293,3.427469 a 0.93753374,0.93753374 0 0 0 0.0293,0 l 1.61127,1.5819296 c -0.50015,0.9437208 -0.9018,1.9496877 -1.23039,2.98809 l -2.28501,0 c -1.31804,0 -2.42985,1.0761811 -2.42985,2.4026587 l 0,5.68323 c 0,1.3263838 1.11153,2.40219 2.43153,2.40219 l 2.28501,0 c 0.3286,1.0384023 0.73025,2.0443691 1.23039,2.98809 l -1.61127,1.58193 a 0.93753374,0.93753374 0 0 0 -0.0293,0 c -0.92536,0.9254595 -0.96585,2.4909657 -0.0293,3.4274677 l 4.04271,4.04271 c 0.48994,0.489935 1.13618,0.678782 1.72845,0.673785 0.61156,-0.0052 1.24717,-0.251177 1.69911,-0.70308 a 0.93753374,0.93753374 0 0 0 0,-0.0293 l 1.58193,-1.611271 c 0.94373,0.500152 1.94969,0.901798 2.98809,1.23039 l 0,2.28501 c 0,1.319915 1.075811,2.431531 2.402194,2.431531 l 5.68323,0 c 1.326384,0 2.40219,-1.111522 2.40219,-2.431531 l 0,-2.28501 c 1.038403,-0.328592 2.04437,-0.730238 2.98809,-1.23039 l 1.58193,1.611271 a 0.93753374,0.93753374 0 0 0 0,0.0293 c 0.925469,0.925488 2.49106,0.965751 3.427469,0.02929 l 4.04271,-4.04271 c 0.936596,-0.936502 0.896145,-2.502027 -0.0293,-3.4274677 a 0.93753374,0.93753374 0 0 0 -0.0293,0 l -1.611272,-1.58193 c 0.500143,-0.9437209 0.901798,-1.9496877 1.23039,-2.98809 l 2.28501,0 c 1.31804,0 2.429844,-1.0761811 2.429844,-2.4026587 l 0,-5.68323 c 0,-1.3263839 -1.111522,-2.40219 -2.431532,-2.40219 l -2.28501,0 c -0.328591,-1.0384023 -0.730247,-2.0443692 -1.23039,-2.98809 l 1.611272,-1.5819296 a 0.93753374,0.93753374 0 0 0 0.02929,0 c 0.925253,-0.924316 0.966501,-2.489841 0.03,-3.426344 l -4.043179,-4.043178 c -0.936502,-0.936484 -2.502027,-0.896174 -3.427468,0.0293 a 0.93753374,0.93753374 0 0 0 0,0.02929 l -1.58193,1.611272 c -0.94372,-0.500153 -1.949687,-0.901799 -2.98809,-1.23039 l 0,-2.28501 c 0,-1.318041 -1.076181,-2.429845 -2.402658,-2.429845 l -5.68323,0 z m 0,0.93744 5.68323,0 c 0.811636,0 1.46475,0.668535 1.46475,1.494092 l 0,2.900252 c 1.451251,0.386675 2.861817,0.990499 4.130548,1.728452 l 2.05065,-2.079992 c 0.583725,-0.583725 1.505998,-0.603196 2.079992,-0.02929 l 4.04271,4.04271 c 0.57391,0.573919 0.554374,1.496248 -0.0293,2.079992 l -2.081117,2.0501809 c 0.737906,1.2687313 1.341758,2.6792973 1.728452,4.1305481 l 2.900252,0 c 0.82551,0 1.494092,0.6531051 1.494092,1.46475 l 0,5.68323 c 0,0.8116356 -0.668545,1.46475 -1.494092,1.46475 l -2.900252,0 c -0.387163,1.453032 -0.990874,2.8638792 -1.728639,4.1322355 l 2.079992,2.05065 c 0.583725,0.5837255 0.603261,1.5059975 0.0293,2.0799915 l -4.04271,4.04271 c -0.573714,0.572776 -1.496155,0.55309 -2.079242,-0.03 l -2.051119,-2.080179 c -1.268731,0.737906 -2.679297,1.341758 -4.130548,1.728452 l 0,2.900252 c 0,0.824947 -0.653396,1.493342 -1.465219,1.493342 l -5.68323,0 c -0.811645,0 -1.46475,-0.668536 -1.46475,-1.494092 l 0,-2.900252 c -1.451157,-0.386225 -2.862007,-0.989937 -4.130357,-1.727702 l -2.05065,2.079992 c -0.29187,0.291862 -0.64762,0.436228 -1.02538,0.439425 -0.3777,0.0032 -0.76766,-0.12317 -1.05462,-0.41013 l -4.04271,-4.04271 c -0.57277,-0.573713 -0.55308,-1.496154 0.03,-2.0792421 l 2.08018,-2.0511187 c -0.73776,-1.2683563 -1.34147,-2.6792035 -1.7277,-4.1303606 l -2.90025,0 c -0.82589,0 -1.49428,-0.6533957 -1.49428,-1.4652188 l 0,-5.68323 c 0,-0.8116449 0.66853,-1.46475 1.49409,-1.46475 l 2.90025,0 c 0.38623,-1.4511571 0.98994,-2.8620043 1.7277,-4.1303606 l -2.08017,-2.0511192 c -0.58373,-0.583725 -0.60328,-1.505997 -0.0293,-2.079991 l 4.04271,-4.04271 c 0.57391,-0.57392 1.49625,-0.55444 2.07999,0.0293 l 2.05018,2.081116 c 1.26873,-0.737905 2.6793,-1.341757 4.130551,-1.728451 l 0,-2.900252 c 0,-0.824948 0.653396,-1.493342 1.465219,-1.493342 z m 2.841381,14.3840794 c -3.441718,0 -6.239788,2.7980709 -6.239788,6.23978809 0,3.44171721 2.79807,6.23978811 6.239788,6.23978811 3.441717,0 6.239788,-2.7980709 6.239788,-6.23978811 0,-3.44171719 -2.798071,-6.23978809 -6.239788,-6.23978809 z m 0,0.93744 c 2.933624,0 5.302348,2.3687234 5.302348,5.30234809 0,2.93362471 -2.368724,5.30234811 -5.302348,5.30234811 -2.933625,0 -5.302348,-2.3687234 -5.302348,-5.30234811 0,-2.93362469 2.368723,-5.30234809 5.302348,-5.30234809 z"
     id="path77"
     inkscape:connector-curvature="0" />
  <path
     style="opacity:0.05;fill:#ffffff"
     d="m -4.349624,24.622203 c -1.3538,0 -2.5006,1.1468 -2.5006,2.5006 l 0,5.1575 c -1.9711,1.1608 -3.3341,3.242 -3.3341,5.6784 0,1.0911 0.34035,2.0878 0.80748,2.9955 l -1.5895,5.3396 -2.5523,0 c -1.3538,0 -2.5006,1.1468 -2.5006,2.5006 0,1.3538 1.1468,2.5006 2.5006,2.5006 l 1.0679,0 -1.2243,4.0635 c -0.96073,3.2206 -1.4596,6.229 -1.4847,8.6479 -0.01257,1.2094 0.06438,2.2565 0.36467,3.2039 0.30029,0.94739 0.91947,1.9892 2.1098,2.3443 a 1.6623,1.6623 0 0 0 2.058,-1.1211 l 5.1054,-17.139 4.0374,0 5.1054,17.139 a 1.6623,1.6623 0 0 0 2.0578,1.1201 c 1.1904,-0.35511 1.8096,-1.3969 2.1098,-2.3443 0.30007,-0.94772 0.37676,-1.9946 0.36425,-3.2041 -0.02501,-2.4189 -0.52429,-5.4271 -1.4845,-8.6479 l -1.2245,-4.0635 1.0419,0 c 1.3538,0 2.5006,-1.1468 2.5006,-2.5006 0,-1.3538 -1.1468,-2.5006 -2.5006,-2.5006 l -2.5264,0 -1.5895,-5.3663 c 0.46011,-0.90521 0.78185,-1.8913 0.78185,-2.969 0,-2.4364 -1.3628,-4.5177 -3.3341,-5.678 l 0,-5.1579 c 0,-1.3538 -1.1468,-2.5006 -2.5006,-2.5006 l -1.6671,0 z m 0,1.6671 1.6671,0 c 0.46178,0 0.83353,0.37176 0.83353,0.83353 l 0,6.1213 c 1.9431,0.6862 3.3341,2.5367 3.3341,4.7146 0,1.0562 -0.32673,2.0319 -0.88562,2.8392 l 2.1355,7.1634 3.7509,0 c 0.46178,0 0.83353,0.37175 0.83353,0.83353 0,0.46178 -0.37175,0.83353 -0.83353,0.83353 l -3.2559,0 1.8494,6.1994 c 1.8479,6.1948 1.8996,11.61 0.13003,12.138 l -5.4705,-18.338 -6.4857,0 -5.4705,18.338 c -1.771,-0.527 -1.719,-5.943 0.129,-12.137 l 1.8496,-6.1998 -3.2824,0 c -0.46178,0 -0.83353,-0.37175 -0.83353,-0.83353 0,-0.46178 0.37175,-0.83353 0.83353,-0.83353 l 3.7769,0 2.1359,-7.1371 c -0.5718,-0.81352 -0.91188,-1.7963 -0.91188,-2.8657 0,-2.178 1.391,-4.0284 3.3341,-4.7146 l 0,-6.1214 c 0,-0.46178 0.37175,-0.83353 0.83353,-0.83353 z m 0.83353,8.3353 c -1.8414,0 -3.3341,1.4928 -3.3341,3.3341 0,0.2681 0.04443,0.53164 0.10419,0.78143 0.03718,0.15539 0.07268,0.29694 0.13024,0.44281 0.05971,0.15156 0.12805,0.30305 0.20838,0.44281 0.0222,0.03913 0.05445,0.06608 0.07814,0.10419 0.0203,0.03239 0.03072,0.07256 0.0521,0.10419 0.03895,0.05791 0.08783,0.1011 0.13024,0.15629 0.09368,0.12191 0.20316,0.25719 0.31257,0.36467 0.08509,0.0822 0.16705,0.16158 0.26048,0.23443 0.03468,0.02726 0.06839,0.05226 0.10419,0.07814 0.05069,0.03639 0.10353,0.07063 0.15629,0.10419 0.13877,0.08828 0.29111,0.16711 0.44281,0.23443 0.01763,0.0078 0.03431,0.01855 0.0521,0.02605 0.18845,0.07912 0.39393,0.1387 0.5991,0.18233 0.22505,0.04834 0.46428,0.07835 0.7035,0.07835 0.25043,0 0.49468,-0.05185 0.72934,-0.10419 0.15494,-0.03456 0.29719,-0.07568 0.44281,-0.13024 0.29124,-0.10912 0.56284,-0.26238 0.80748,-0.44281 0.12232,-0.09021 0.25633,-0.18065 0.36467,-0.28653 0.10834,-0.10588 0.19373,-0.21854 0.28652,-0.33862 0.08566,-0.11085 0.16328,-0.24289 0.23443,-0.36467 0.0058,-0.01006 0.0203,-0.01593 0.02605,-0.02605 0.07193,-0.12621 0.15325,-0.25425 0.20838,-0.39072 0.06054,-0.15032 0.09191,-0.30862 0.13024,-0.46886 0.06001,-0.25006 0.10419,-0.51345 0.10419,-0.78185 0,-1.8413 -1.4929,-3.3341 -3.3341,-3.3341 z m 0,1.6671 c 0.94314,0 1.6671,0.72395 1.6671,1.6671 0,0.08445 -0.0105,0.21686 -0.0521,0.39072 -0.04824,0.20163 -0.06832,0.2747 -0.0521,0.23443 0.01989,-0.04923 -0.02792,0.02073 -0.10419,0.15629 -0.0073,0.01229 0.0073,0.01309 0,0.02605 -0.01283,0.02065 -0.01291,0.0034 -0.02605,0.02605 -0.06952,0.11899 -0.11195,0.19238 -0.10419,0.18233 -0.09868,0.1277 -0.15723,0.15721 -0.15629,0.15629 0.04331,-0.04233 -0.02034,0.03681 -0.18233,0.15629 -0.13357,0.09851 -0.26041,0.15956 -0.39072,0.20838 -0.06955,0.02606 -0.14193,0.05751 -0.23443,0.07814 -0.22339,0.04918 -0.34425,0.05168 -0.36509,0.05168 -0.09831,0 -0.23487,0.0016 -0.36467,-0.02605 -0.07748,-0.01648 -0.12744,-0.02851 -0.18234,-0.0521 0.0046,-0.0013 -0.0231,-0.0179 -0.10419,-0.0521 -0.01282,-0.0055 -0.01074,0.0068 -0.02605,0 -0.08919,-0.04001 -0.18254,-0.09752 -0.23506,-0.13003 -0.04501,-0.02917 -0.07085,-0.04751 -0.07835,-0.05251 -0.02501,-0.01834 -0.04001,-0.0175 -0.05168,-0.02584 -0.0027,-0.0022 -0.05025,-0.05303 -0.10419,-0.10419 -0.0068,-0.0064 0.0077,-0.01871 0,-0.02605 -0.0075,-0.0075 -0.08169,-0.08585 -0.15587,-0.18254 -0.04001,-0.05168 -0.05501,-0.04918 -0.07835,-0.07835 -0.02667,-0.04001 -0.01584,-0.03501 -0.02667,-0.05251 -0.0125,-0.02 -0.015,-0.0083 -0.02584,-0.02584 -0.01167,-0.02 -0.01584,-0.0083 -0.02584,-0.02584 -0.0099,-0.01715 -0.03835,-0.05308 -0.0521,-0.07814 -0.0034,-0.0059 0.0028,-0.02124 0,-0.02605 -0.01066,-0.01732 -0.05151,-0.07752 -0.0521,-0.07814 -0.0039,-0.0094 0.004,-0.01598 0,-0.02605 -0.0083,-0.02167 -0.0175,-0.09002 -0.05251,-0.23422 -0.04084,-0.17421 -0.05168,-0.30674 -0.05168,-0.39092 0,-0.94314 0.72395,-1.6671 1.6671,-1.6671 z m -1.1719,6.5115 -1.537,5.1579 5.4696,0 -1.5362,-5.1579 c -0.39092,0.09836 -0.80269,0.1567 -1.2245,0.1567 -0.40343,0 -0.79602,-0.06585 -1.1719,-0.1567 z m 1.1719,1.8238 c 0.009,0 0.01709,3.8e-5 0.02605,0 l 0.52096,1.6671 -1.0419,0 0.49512,-1.6671 z"
     id="path75-7"
     inkscape:connector-curvature="0" />
  <path
     style="opacity:0.1;fill:#ffffff"
     d="m -4.349624,25.430203 c -0.92822,0 -1.6931,0.76492 -1.6931,1.6931 l 0,5.6263 c -1.9601,0.95247 -3.3341,2.8933 -3.3341,5.2096 0,1.0738 0.32913,2.0537 0.83353,2.9174 l -1.8494,6.2255 -3.1257,0 c -0.92822,0 -1.6931,0.76492 -1.6931,1.6931 0,0.92822 0.76492,1.6931 1.6931,1.6931 l 2.1098,0 -1.5108,5.0794 c -0.94322,3.1618 -1.4347,6.1279 -1.4587,8.4395 -0.01202,1.1559 0.07897,2.1503 0.33862,2.9694 0.25965,0.81918 0.72931,1.5747 1.5629,1.8233 a 0.86912,0.86912 0 0 0 1.094,-0.572 l 5.2877,-17.738 5.1836,0 5.2877,17.738 a 0.86912,0.86912 0 0 0 1.0936,0.5718 c 0.83353,-0.24865 1.3032,-1.0042 1.5629,-1.8233 0.25965,-0.81918 0.35064,-1.8136 0.33862,-2.9694 -0.02403,-2.3116 -0.51549,-5.2777 -1.4587,-8.4395 l -1.5104,-5.0795 2.0838,0 c 0.92822,0 1.6931,-0.76492 1.6931,-1.6931 0,-0.92822 -0.76492,-1.6931 -1.6931,-1.6931 l -3.0997,0 -1.8494,-6.2515 c 0.49345,-0.85937 0.80769,-1.8329 0.80769,-2.8915 0,-2.3163 -1.374,-4.2571 -3.3341,-5.2096 l 0,-5.6263 c 0,-0.92822 -0.76492,-1.6931 -1.6931,-1.6931 l -1.6671,0 z m 0,0.85937 1.6671,0 c 0.46178,0 0.83353,0.37176 0.83353,0.83353 l 0,6.1213 c 1.9431,0.6862 3.3341,2.5367 3.3341,4.7146 0,1.0562 -0.32673,2.0319 -0.88562,2.8392 l 2.1355,7.1634 3.7509,0 c 0.46178,0 0.83353,0.37175 0.83353,0.83353 0,0.46178 -0.37175,0.83353 -0.83353,0.83353 l -3.2559,0 1.8494,6.1994 c 1.8479,6.1948 1.8996,11.61 0.13003,12.138 l -5.4705,-18.338 -6.4857,0 -5.4705,18.338 c -1.771,-0.527 -1.719,-5.943 0.129,-12.137 l 1.8496,-6.1998 -3.2824,0 c -0.46178,0 -0.83353,-0.37175 -0.83353,-0.83353 0,-0.46178 0.37175,-0.83353 0.83353,-0.83353 l 3.7769,0 2.1359,-7.1371 c -0.5718,-0.81352 -0.91188,-1.7963 -0.91188,-2.8657 0,-2.178 1.391,-4.0284 3.3341,-4.7146 l 0,-6.1214 c 0,-0.46178 0.37175,-0.83353 0.83353,-0.83353 z m 0.83353,8.3353 c -1.8414,0 -3.3341,1.4928 -3.3341,3.3341 0,0.2681 0.04443,0.53164 0.10419,0.78143 0.03718,0.15539 0.07268,0.29694 0.13024,0.44281 0.05971,0.15156 0.12805,0.30305 0.20838,0.44281 0.0222,0.03913 0.05445,0.06608 0.07814,0.10419 0.0203,0.03239 0.03072,0.07256 0.0521,0.10419 0.03895,0.05791 0.08783,0.1011 0.13024,0.15629 0.09368,0.12191 0.20316,0.25719 0.31257,0.36467 0.08509,0.0822 0.16705,0.16158 0.26048,0.23443 0.03468,0.02726 0.06839,0.05226 0.10419,0.07814 0.05069,0.03639 0.10353,0.07063 0.15629,0.10419 0.13877,0.08828 0.29111,0.16711 0.44281,0.23443 0.01763,0.0078 0.03431,0.01855 0.0521,0.02605 0.18845,0.07912 0.39393,0.1387 0.5991,0.18233 0.22505,0.04834 0.46428,0.07835 0.7035,0.07835 0.25043,0 0.49468,-0.05185 0.72934,-0.10419 0.15494,-0.03456 0.29719,-0.07568 0.44281,-0.13024 0.29124,-0.10912 0.56284,-0.26238 0.80748,-0.44281 0.12232,-0.09021 0.25633,-0.18065 0.36467,-0.28653 0.10834,-0.10588 0.19373,-0.21854 0.28652,-0.33862 0.08566,-0.11085 0.16328,-0.24289 0.23443,-0.36467 0.0058,-0.01006 0.0203,-0.01593 0.02605,-0.02605 0.07193,-0.12621 0.15325,-0.25425 0.20838,-0.39072 0.06054,-0.15032 0.09191,-0.30862 0.13024,-0.46886 0.06001,-0.25006 0.10419,-0.51345 0.10419,-0.78185 0,-1.8413 -1.4929,-3.3341 -3.3341,-3.3341 z m 0,0.85954 c 1.3717,0 2.4746,1.1028 2.4746,2.4746 0,0.17208 -0.02788,0.36296 -0.07814,0.57305 -0.04351,0.18188 -0.08379,0.314 -0.10419,0.36467 -0.01465,0.03627 -0.07,0.10905 -0.15629,0.26048 -0.0065,0.0098 0.0067,0.01528 0,0.02605 -0.006,0.0097 -0.01995,-0.0105 -0.02605,0 -0.0703,0.12032 -0.11947,0.23888 -0.15629,0.28652 -0.09587,0.12407 -0.15718,0.18439 -0.20838,0.23443 -0.02905,0.02839 -0.14346,0.10287 -0.28653,0.20838 -0.18657,0.1376 -0.392,0.26103 -0.5991,0.33862 -0.10585,0.03966 -0.19028,0.05086 -0.31257,0.07814 -0.2286,0.051 -0.41653,0.10419 -0.547,0.10419 -0.16545,0 -0.34585,-0.04091 -0.52096,-0.07814 -0.14293,-0.0304 -0.27548,-0.06043 -0.39072,-0.10419 0.0034,-0.0016 -0.01394,-0.01 -0.0521,-0.02605 -0.01076,-0.0043 -0.01086,0.0068 -0.02605,0 -0.11893,-0.05277 -0.24517,-0.12288 -0.33862,-0.18233 -0.04148,-0.02639 -0.07752,-0.05956 -0.10419,-0.07814 -0.007,-0.0051 -0.0197,0.0047 -0.02605,0 -0.02113,-0.01548 -0.03478,-0.03848 -0.0521,-0.0521 -0.04668,-0.03668 -0.12336,-0.10002 -0.20838,-0.18254 -0.05668,-0.05501 -0.15087,-0.1517 -0.23506,-0.2609 -0.10502,-0.1367 -0.11503,-0.18504 -0.07835,-0.13003 0.09669,0.14253 0.06918,0.11503 -0.05168,-0.07835 -0.03167,-0.05085 -0.03584,-0.05418 -0.05168,-0.07752 -0.05168,-0.08919 -0.10752,-0.18754 -0.1567,-0.31257 -0.03167,-0.08085 -0.06835,-0.18921 -0.10419,-0.33841 -0.05001,-0.21088 -0.07835,-0.40176 -0.07835,-0.57347 0,-1.3717 1.1028,-2.4746 2.4746,-2.4746 z m -1.1719,7.3192 -1.537,5.1579 5.4696,0 -1.5362,-5.1579 c -0.39092,0.09836 -0.80269,0.1567 -1.2245,0.1567 -0.40343,0 -0.79602,-0.06585 -1.1719,-0.1567 z m 0.62515,0.93772 c 0.18544,0.02151 0.34926,0.07814 0.547,0.07814 0.20973,0 0.39684,-0.0558 0.5991,-0.07814 l 0.98982,3.3601 -3.1257,0 0.98982,-3.3601 z"
     id="path77-4"
     inkscape:connector-curvature="0" />
  <path
     style="opacity:0.3"
     d="m 55.622685,20.695096 c 1.1723,0 2.1161,0.843079 2.1161,1.890333 l 0,44.736965 0,12.601924 11.991,-15.122845 11.991,15.122845 0,-1.890333 0,-10.71168 0,-44.736965 c 0,-1.047228 -0.94377,-1.890333 -2.1161,-1.890333 l -23.982,0 z"
     id="path94"
     inkscape:connector-curvature="0" />
  <path
     style="fill:#550000"
     d="m 54.622685,19.172002 c -1.662,0 -3,1.195249 -3,2.67993 l 0,0.02792 30,0 0,-0.02769 c 0,-1.484682 -1.338,-2.67993 -3,-2.67993 l -24,0 z"
     id="path98"
     inkscape:connector-curvature="0" />
  <path
     style="fill:#d40000"
     d="m 54.622685,19.172002 c 1.662,0 3,1.195249 3,2.67993 l 0,4.46655 0.09375,0 0,40.365999 0,12.618004 12,-15.130885 11.969,15.130885 0,-1.898284 0,-10.71972 -0.063,-44.832549 c 0,-1.484681 -1.338,-2.67993 -3,-2.67993 l -1.0312,0 -22,0 -0.96875,0 z"
     id="path100"
     inkscape:connector-curvature="0" />
  <path
     style="fill:#ffffff;stroke:none"
     d="m 56.511685,19.172002 c 1.1723,0 3.1161,0.244392 3.1161,1.890334 l -0.005,52.252381 10.08,-12.157055 9.8808,12.157055 0.0051,-52.252381 c 0,-1.04696 -0.944,-1.890244 -2.116,-1.890244 l -20.961,0 z"
     id="path102"
     inkscape:connector-curvature="0" />
  <path
     style="fill:#d40000"
     d="m 58.443685,19.172002 c 1.1723,0 3.1161,0.124787 3.1161,1.890334 l 0,46.9488 8.143,-10.097083 7.92,10.097083 0,-46.9488 c 0,-1.04696 -0.944,-1.890244 -2.116,-1.890244 l -17.063,0 z"
     id="path104"
     inkscape:connector-curvature="0" />
</svg>
