<?xml version="1.0" encoding="UTF-8" standalone="no"?>
<svg id="svg2" xmlns:rdf="http://www.w3.org/1999/02/22-rdf-syntax-ns#" xmlns="http://www.w3.org/2000/svg" height="96" width="96" version="1.1" xmlns:cc="http://creativecommons.org/ns#" xmlns:xlink="http://www.w3.org/1999/xlink" xmlns:dc="http://purl.org/dc/elements/1.1/">
 <metadata id="metadata82">
  <rdf:RDF>
   <cc:Work rdf:about="">
    <dc:format>image/svg+xml</dc:format>
    <dc:type rdf:resource="http://purl.org/dc/dcmitype/StillImage"/>
    <dc:title/>
   </cc:Work>
  </rdf:RDF>
 </metadata>
 <defs id="defs4">
  <linearGradient id="linearGradient4368-5">
   <stop id="stop4518" stop-color="#828282" offset="0"/>
   <stop id="stop4520" stop-color="#5a5a5a" offset="1"/>
  </linearGradient>
  <linearGradient id="linearGradient4360">
   <stop id="stop4512" stop-color="#6e6e6e" offset="0"/>
   <stop id="stop4514" stop-color="#8c8c8c" offset="1"/>
  </linearGradient>
  <filter id="filter3276-14" color-interpolation-filters="sRGB">
   <feGaussianBlur id="feGaussianBlur4508" stdDeviation="0.56242"/>
  </filter>
  <filter id="filter3794-41" height="1.384" width="1.384" color-interpolation-filters="sRGB" y="-.192" x="-.192">
   <feGaussianBlur id="feGaussianBlur4495" stdDeviation="5.28"/>
  </filter>
  <clipPath id="clipPath3613-55-7">
   <rect id="rect4492" rx="6" height="84" width="84" y="6" x="6"/>
  </clipPath>
  <linearGradient id="linearGradient4909">
   <stop id="stop4911" offset="0"/>
   <stop id="stop4913" style="stop-opacity:0" offset="1"/>
  </linearGradient>
  <linearGradient id="linearGradient4971" y2="10.624" xlink:href="#linearGradient4909" gradientUnits="userSpaceOnUse" x2="29.639" gradientTransform="matrix(2.1503 0 0 9.9633 -18.035 -79.513)" y1="12.189" x1="29.639"/>
  <linearGradient id="linearGradient4977" y2="10.624" xlink:href="#linearGradient4909" gradientUnits="userSpaceOnUse" x2="29.639" gradientTransform="matrix(2.1503 0 0 5.8956 -26.181 -31.161)" y1="12.189" x1="29.639"/>
  <linearGradient id="linearGradient5171" gradientUnits="userSpaceOnUse" x2="0" y1="20.221" y2="138.66">
   <stop id="stop4503" stop-color="#fff" offset="0"/>
   <stop id="stop4505" stop-opacity="0" stop-color="#fff" offset="1"/>
  </linearGradient>
  <linearGradient id="linearGradient5173" xlink:href="#linearGradient4360" gradientUnits="userSpaceOnUse" x2="69.921" x1="87.23"/>
  <linearGradient id="linearGradient5175" y2="97.97" xlink:href="#linearGradient4368-5" gradientUnits="userSpaceOnUse" x2="86.75" y1="87.43" x1="82.86"/>
  <linearGradient id="linearGradient5177" y2="68.3" xlink:href="#linearGradient4368-5" gradientUnits="userSpaceOnUse" x2="61.13" y1="76.54" x1="52.11"/>
  <linearGradient id="linearGradient5179" y2="80.82" xlink:href="#linearGradient4360" gradientUnits="userSpaceOnUse" x2="75.28" y1="63.59" x1="66.74"/>
  <linearGradient id="linearGradient5181" y2="93.47" xlink:href="#linearGradient4360" gradientUnits="userSpaceOnUse" x2="48.19" y1="104.22" x1="43.24"/>
  <linearGradient id="linearGradient5183" y2="110.66" xlink:href="#linearGradient4368-5" gradientUnits="userSpaceOnUse" x2="46.921" y1="106.16" x1="60.41"/>
  <linearGradient id="linearGradient5189" y2="36.952" xlink:href="#linearGradient4368-5" gradientUnits="userSpaceOnUse" x2="46.27" gradientTransform="translate(.011999 .069999)" y1="8.07" x1="47.23"/>
  <linearGradient id="linearGradient5205" gradientUnits="userSpaceOnUse" x2="0" gradientTransform="matrix(1.125 0 0 1.0417 -7.738 -3.18)" y1="90" y2="5.988">
   <stop id="stop4498" stop-color="#8c8c8c" offset="0"/>
   <stop id="stop4500" stop-color="#dcdcdc" offset="1"/>
  </linearGradient>
  <linearGradient id="linearGradient5223" y2="1005.1" gradientUnits="userSpaceOnUse" x2="-57.649" gradientTransform="matrix(-2.1369 0 0 2.7981 -102.51 -2768.8)" y1="1003.5" x1="-57.649">
   <stop id="stop6439" style="stop-color:#af0000" offset="0"/>
   <stop id="stop6433" style="stop-color:#ff3d3d" offset="1"/>
  </linearGradient>
  <linearGradient id="linearGradient5276" y2="10.624" gradientUnits="userSpaceOnUse" x2="29.639" gradientTransform="matrix(3.8439 0 0 5.5866 -66.574 -27.489)" y1="12.189" x1="29.639">
   <stop id="stop6611" style="stop-opacity:.61603" offset="0"/>
   <stop id="stop6613" style="stop-opacity:0" offset="1"/>
  </linearGradient>
  <clipPath id="clipPath5278" clipPathUnits="userSpaceOnUse">
   <path id="path5280" d="m19.239 6.3302c-6.2698 0-11.251 5.0097-11.251 11.28l0.0004702 12.065c0.0001985 5.0945 1.2593 7.323 5.8707 8.7504h68.241c4.4335-1.37 5.6211-3.3287 5.8712-8.1627v-13.24c-0.301-5.996-5.145-10.692-11.219-10.692l-57.513 0.0001898z" style="opacity:.9;fill:url(#linearGradient5282)"/>
  </clipPath>
  <linearGradient id="linearGradient5282" y2="36.952" xlink:href="#linearGradient4368-5" gradientUnits="userSpaceOnUse" x2="46.27" gradientTransform="translate(.011999 -.74356)" y1="8.07" x1="47.23"/>
 </defs>
 <rect id="rect4527" style="fill-opacity:0.039" rx="12.552" height="88.76" width="88.76" y="3.67" x="3.62"/>
 <rect id="rect4529" style="fill-opacity:.078" rx="12.38" height="87.55" width="87.55" y="4.28" x="4.228"/>
 <rect id="rect4531" style="fill-opacity:0.157" rx="12.208" height="86.33" width="86.33" y="4.89" x="4.836"/>
 <path id="path4533" style="opacity:.9;fill:url(#linearGradient5205)" d="m17.481 5.4762c-6.668 0-12.032 5.3948-12.032 12.063l0.0005 61.031c0 5.418 3.5332 9.982 8.4375 11.5h68.187c4.715-1.457 8.172-5.734 8.438-10.875v-62.281c-0.321-6.377-5.54-11.438-12-11.438l-61.031 0.0002z"/>
 <path id="path4535" style="fill-opacity:0.235" d="m5.4436 73.51v5.0663c0 6.668 5.3645 12.032 12.032 12.032h61.049c6.668 0 12.032-5.3645 12.032-12.032v-5.0663c0 6.6681-5.3645 12.032-12.032 12.032h-61.049c-6.668 0-12.032-5.3643-12.032-12.032z"/>
 <path id="path4537" style="fill-opacity:0.098" d="m5.4436 77.61v1.0133c0 6.668 5.3645 12.032 12.032 12.032h61.049c6.668 0 12.032-5.3645 12.032-12.032v-1.0133c0 6.6681-5.3645 12.032-12.032 12.032h-61.049c-6.668 0-12.032-5.3644-12.032-12.032z"/>
 <rect id="rect4539" style="opacity:.3;filter:url(#filter3794-41);stroke:#fff;stroke-linecap:round;stroke-width:.5;fill:url(#linearGradient5171)" clip-path="url(#clipPath3613-55-7)" rx="12" transform="translate(-0.488 -2.43)" height="66" width="66" y="15" x="15"/>
 <g id="g4541" transform="translate(.011999 -2.408)">
  <path id="path4543" style="opacity:.8;filter:url(#filter3276-14)" transform="matrix(.62074 0 0 .62074 2.664 22.255)" d="m75.778 90.69 6.3317-11.357 0.0301 4.1536 13.326-0.03009c2.3811-0.25234 4.4687-1.2201 5.9805-3.0399-4.825 9.8683-6.2147 16.851-16.226 16.855h-3.0806l-0.0301 4.6151-6.3317-11.197zm14.5-8.9587-5.8802-10.835 11.881-7.1935 5.7497 11.518c0.17409 2.7563-4.2769 6.592-7.0396 6.5622l-4.7107-0.05088zm-36.131-24.001 6.07-9.096c5.8874-2.1923 9.2977 2.5406 11.45 5.524l-5.719 10.976-11.801-7.404zm23.982 4.5275c-1.221-2.878-2.852-6.17-4.892-9.032-1.826-2.563-4.033-4.798-5.704-5.797l15.353-0.03009c2.7572 0.24748 4.0968 1.8546 5.5591 4.0532l2.2076 3.8827 3.4117-2.1771-6.422 11.437-13.848 0.03009 4.3349-2.3677zm-21.244 4.2464 7.3428 10.731-3.7316-1.8255-5.9163 11.938c-0.83607 2.2434-0.90083 4.5431 0.05403 6.7077-6.682-8.719-12.313-13.077-7.852-22.038l1.3739-2.7568-4.1179-2.0852 12.847-0.67259zm1.6825 16.973 13.538-0.42958-0.07542 13.84-12.875 0.0086c-2.5451-1.0735-3.9936-6.7673-2.7347-9.2263l2.1465-4.1929z"/>
  <path id="path4545" style="opacity:.8;filter:url(#filter3276-14);fill:#fff" transform="matrix(.62074 0 0 .62074 2.664 22.01)" d="m75.778 92.69 6.3317-11.357 0.0301 4.1536 13.326-0.03009c2.3811-0.25235 4.4687-1.2201 5.9805-3.0399-4.825 9.8683-6.2147 16.851-16.226 16.855h-3.0806l-0.0301 4.6151-6.3317-11.197zm14.5-8.9587-5.8802-10.835 11.881-7.1935 5.7497 11.518c0.17409 2.7563-4.2769 6.592-7.0396 6.5622l-4.7107-0.05088zm-36.131-24.001 6.07-9.096c5.8874-2.1923 9.2977 2.5406 11.45 5.524l-5.719 10.976-11.801-7.404zm23.982 4.5275c-1.221-2.878-2.852-6.17-4.892-9.032-1.826-2.563-4.033-4.798-5.704-5.797l15.353-0.03009c2.7572 0.24748 4.0968 1.8546 5.5591 4.0532l2.2076 3.8827 3.4117-2.1771-6.422 11.437-13.848 0.03009 4.3349-2.3677zm-21.244 4.2464 7.3428 10.731-3.7316-1.8255-5.9163 11.938c-0.83607 2.2434-0.90083 4.5431 0.05403 6.7077-6.682-8.719-12.313-13.077-7.852-22.038l1.3739-2.7568-4.1179-2.0852 12.847-0.67259zm1.6825 16.973 13.538-0.42959-0.07542 13.84-12.875 0.0086c-2.5451-1.0735-3.9936-6.7673-2.7347-9.2263l2.1465-4.1929z"/>
  <g id="g4547" transform="matrix(.62074 0 0 .62074 8.274 12.705)">
   <path id="path4549" style="fill:url(#linearGradient5173)" d="m66.74 106.88 6.3317-11.357 0.0301 4.1536 13.326-0.03009c2.3811-0.25234 4.4687-1.2201 5.9805-3.0399-4.825 9.8683-6.2147 16.851-16.226 16.855h-3.0806l-0.0301 4.6151-6.3317-11.197z"/>
   <path id="path4551" style="fill:url(#linearGradient5175)" d="m81.24 97.921-5.88-10.835 11.881-7.193 5.749 11.517c0.17409 2.7563-4.2769 6.592-7.0396 6.5622l-4.7107-0.05088z"/>
   <path id="path4553" style="fill:url(#linearGradient5177)" d="m45.109 73.92 6.07-9.0957c5.8874-2.1923 9.2977 2.5406 11.45 5.524l-5.719 10.976-11.801-7.404z"/>
   <path id="path4555" style="fill:url(#linearGradient5179)" d="m69.091 78.447c-1.221-2.878-2.852-6.169-4.892-9.031-1.826-2.563-4.033-4.798-5.704-5.797l15.353-0.03009c2.7572 0.24748 4.0968 1.8546 5.5591 4.0532l2.2076 3.8827 3.4117-2.1771-6.422 11.437-13.848 0.03009 4.3349-2.3677z"/>
   <path id="path4557" style="fill:url(#linearGradient5181)" d="m47.847 82.694 7.3428 10.731-3.7316-1.8255-5.9163 11.938c-0.83607 2.2434-0.90083 4.5431 0.05403 6.7077-6.682-8.719-12.313-13.077-7.8518-22.037l1.3739-2.7568-4.1179-2.0852 12.847-0.67259z"/>
   <path id="path4559" style="fill:url(#linearGradient5183)" d="m49.529 99.667 13.538-0.42958-0.07542 13.84-12.875 0.009c-2.5451-1.0735-3.9936-6.7673-2.7347-9.2263l2.1465-4.1929z"/>
  </g>
 </g>
 <path id="path4561" style="opacity:.9;fill:url(#linearGradient5189)" d="m19.239 7.1438c-6.2698 0-11.251 5.0097-11.251 11.28l0.0004702 12.065c0.0001985 5.0945 1.2593 7.323 5.8707 8.7504h68.241c4.4335-1.37 5.6211-3.3287 5.8712-8.1627v-13.24c-0.301-5.996-5.145-10.692-11.219-10.692l-57.513 0.0001898z"/>
 <path id="path4563" style="opacity:.9;fill:#999" d="m5.5452 34.488v2c0.0002106 5.0945 1.3351 6.3057 6.2285 7.7331h72.414c4.7045-1.37 5.9631-2.3111 6.2285-7.1452v-2c-0.26541 4.834-1.524 6.7921-6.2285 8.1621h-72.414c-4.8934-1.4274-6.2283-3.6555-6.2285-8.75z"/>
 <rect id="rect6589" style="opacity:0.333;color:black;fill:url(#linearGradient4977)" ry="0" height="13.4" width="43.442" y="25.52" x="16.175"/>
 <rect id="rect6585" style="opacity:0.333;color:black;fill:url(#linearGradient4971)" ry="0" height="22.645" width="43.442" y="16.275" x="24.32"/>
 <g id="g5261" clip-path="url(#clipPath5278)" transform="translate(0 .81356)">
  <rect id="rect6310" style="color:black;fill:#e95353" rx="2" ry="2" height="43.062" width="49.263" y="29.157" x="9.1994"/>
  <rect id="rect6302" style="color:black;fill:#00aad4" rx="2" ry="2" height="43.062" width="49.263" y="23.567" x="15.131"/>
  <rect id="rect6298" style="color:black;fill:#daedf3" rx="1" ry="1" height="43.062" width="49.263" y="16.454" x="24.687"/>
  <rect id="rect6283" style="color:black;fill:#f8c8c8" rx="2" ry="2" height="43.062" width="49.263" y="21.281" x="37.538"/>
  <rect id="rect6575" style="opacity:0.333;color:black;fill:url(#linearGradient5276)" ry="0" height="12.698" width="77.658" y="26.222" x="9.1428"/>
 </g>
 <path id="path6427" style="color:black;fill:url(#linearGradient5223)" d="m34.431 39.128v0.10242c-3.5984 0.30171-6.2159 2.1599-6.2622 4.4355-0.00037 0.01815 0 0.03517 0 0.05515v7.6538 5.05 17.506h-0.06432l-7.744-5.247-7.8147 5.247v-33.38c0.44625-0.74173 0.92888-1.422 1.9368-1.422h14.713z"/>
</svg>
